{
.appVersion = "1064";
DisplayStrings = (
"MINIMUM\012NNNNNNN\012OOOOOOO\012NONOONNO\012\012Otarie\012Ologramme",
"nnnnnnn\012oooooooo\012nonoonno\012\012nanonoaonbnonobo\012ncnonocndnonodo\012nenonoeonfnonofo\012ngnonogonhnonoho\012ninonoionjnonojonkn\012onokonlnonolonmnonomo\012npnonoponqnonoqonrnonoro\012nsnonosontnonotonunonouo\012nvnonovonwnonowonxnonoxo\012nynonoyonznonozo\012\012\012veux\012monologue\012agire\012aigre\012gaterie\012tacler\U00E7\012pragma\012pacte\012grogner\012gouter\012minimum\012moins\012amoindrie\012poindre\012\012\012cachette\012conseille\012\012Toutes ces decisions firent prises dans des conditions de hate\012bouquet\012\012salon\012"
);
date = "2017-10-13 07:30:52 +0000";
familyName = Baskerwille;
featurePrefixes = (
{
automatic = 1;
code = "languagesystem DFLT dflt;\012";
name = Languagesystems;
}
);
features = (
{
automatic = 1;
code = "feature salt;\012feature ss01;\012";
name = aalt;
},
{
automatic = 1;
code = "sub r by r.ss01;\012";
name = salt;
},
{
automatic = 1;
code = "sub r by r.ss01;\012";
name = ss01;
}
);
fontMaster = (
{
alignmentZones = (
"{710, 14}",
"{436, 18}",
"{0, -14}",
"{-280, -14}"
);
ascender = 710;
capHeight = 710;
descender = -280;
id = "9372F035-DA38-4B54-966C-CEBA9B53DD02";
userData = {
GSCornerRadius = 3;
};
verticalStems = (
90,
70
);
xHeight = 436;
}
);
glyphs = (
{
glyphname = A;
lastChange = "2017-10-17 14:50:45 +0000";
layers = (
{
backgroundImage = {
crop = "{{1330.095, 1862.19}, {76.19, 94.286}}";
imagePath = "Workshop Baskerville/1878 Limprimerie Berger Levrault Notice historique/Images/B543956101_050370_0002.jpg";
locked = "1";
transform = "{10.5, 0, 0, 10.5, -14000, -19833}";
};
layerId = "9372F035-DA38-4B54-966C-CEBA9B53DD02";
paths = (
{
closed = 1;
nodes = (
"639 69 OFFCURVE",
"648 35 OFFCURVE",
"699 24 CURVE SMOOTH",
"737 16 LINE",
"737 -3 LINE",
"570 0 LINE",
"446 -3 LINE",
"445 16 LINE",
"487 23 LINE SMOOTH",
"537 31 OFFCURVE",
"560 44 OFFCURVE",
"510 187 CURVE",
"341 643 LINE",
"360 660 LINE",
"135 115 LINE SMOOTH",
"102 36 OFFCURVE",
"115 26 OFFCURVE",
"158 22 CURVE SMOOTH",
"189 19 LINE",
"189 -3 LINE",
"126 1 OFFCURVE",
"59 1 OFFCURVE",
"-10 -3 CURVE",
"-10 19 LINE",
"16 22 LINE SMOOTH",
"63 27 OFFCURVE",
"70 39 OFFCURVE",
"101 113 CURVE SMOOTH",
"358 720 LINE",
"367 719 OFFCURVE",
"380 719 OFFCURVE",
"388 720 CURVE",
"510 395 LINE",
"605 146 LINE"
);
},
{
closed = 1;
nodes = (
"485 299 LINE",
"485 269 LINE",
"194 269 LINE",
"194 299 LINE"
);
}
);
width = 727;
}
);
unicode = 0041;
},
{
glyphname = AE;
lastChange = "2017-10-17 14:50:45 +0000";
layers = (
{
layerId = "9372F035-DA38-4B54-966C-CEBA9B53DD02";
paths = (
{
closed = 1;
nodes = (
"564 380 LINE",
"564 354 LINE",
"163 354 LINE",
"178 380 LINE"
);
},
{
closed = 1;
nodes = (
"614 500 LINE",
"614 218 LINE",
"592 218 LINE",
"592 320 OFFCURVE",
"564 354 OFFCURVE",
"521 354 CURVE",
"521 380 LINE",
"564 380 OFFCURVE",
"587 391 OFFCURVE",
"592 500 CURVE"
);
},
{
closed = 0;
nodes = (
"403 377 LINE"
);
},
{
closed = 1;
nodes = (
"-90 19 LINE",
"-64 22 LINE SMOOTH",
"-17 27 OFFCURVE",
"-16 41 OFFCURVE",
"21 113 CURVE SMOOTH",
"270 603 LINE SMOOTH",
"295 652 OFFCURVE",
"318 685 OFFCURVE",
"267 688 CURVE SMOOTH",
"231 690 LINE",
"231 713 LINE",
"374 710 LINE",
"751 709 LINE",
"761 546 LINE",
"744 546 LINE",
"741 626 OFFCURVE",
"697 680 OFFCURVE",
"601 680 CURVE SMOOTH",
"408 680 LINE",
"407 449 LINE",
"407 101 LINE SMOOTH",
"407 51 OFFCURVE",
"442 30 OFFCURVE",
"518 30 CURVE SMOOTH",
"601 30 LINE SMOOTH",
"715 30 OFFCURVE",
"767 90 OFFCURVE",
"777 210 CURVE",
"794 210 LINE",
"784 0 LINE",
"381 0 LINE",
"233 -3 LINE",
"233 22 LINE",
"253 24 LINE SMOOTH",
"322 32 OFFCURVE",
"339 34 OFFCURVE",
"339 133 CURVE SMOOTH",
"339 704 LINE",
"353 704 LINE",
"55 115 LINE SMOOTH",
"17 39 OFFCURVE",
"35 26 OFFCURVE",
"78 22 CURVE SMOOTH",
"109 19 LINE",
"109 -3 LINE",
"46 1 OFFCURVE",
"-21 1 OFFCURVE",
"-90 -3 CURVE"
);
}
);
width = 800;
}
);
unicode = 00C6;
},
{
glyphname = B;
lastChange = "2017-10-17 14:50:45 +0000";
layers = (
{
hints = (
{
origin = "{0, 4}";
scale = "{1.2, 1.1}";
type = Corner;
name = "_corner-bdc";
},
{
origin = "{0, 3}";
scale = "{-1.2, 1.1}";
type = Corner;
name = "_corner-bdc";
options = 1;
}
);
layerId = "9372F035-DA38-4B54-966C-CEBA9B53DD02";
paths = (
{
closed = 1;
nodes = (
"211 0 LINE",
"211 172 LINE",
"212 710 LINE",
"137 710 LINE",
"136 0 LINE"
);
},
{
closed = 1;
nodes = (
"326 358 LINE SMOOTH",
"365 358 OFFCURVE",
"569 398 OFFCURVE",
"569 547 CURVE SMOOTH",
"569 681 OFFCURVE",
"433 710 OFFCURVE",
"312 710 CURVE SMOOTH",
"190 710 LINE",
"190 684 LINE",
"308 684 LINE SMOOTH",
"451 684 OFFCURVE",
"488 625 OFFCURVE",
"488 547 CURVE SMOOTH",
"488 446 OFFCURVE",
"418 388 OFFCURVE",
"326 388 CURVE SMOOTH",
"179 388 LINE",
"179 358 LINE"
);
},
{
closed = 1;
nodes = (
"342 0 LINE SMOOTH",
"509 0 OFFCURVE",
"615 64 OFFCURVE",
"615 202 CURVE SMOOTH",
"615 370 OFFCURVE",
"421 392 OFFCURVE",
"311 378 CURVE",
"311 358 LINE",
"389 358 OFFCURVE",
"534 337 OFFCURVE",
"534 201 CURVE SMOOTH",
"534 85 OFFCURVE",
"435 26 OFFCURVE",
"327 26 CURVE SMOOTH",
"199 26 LINE",
"199 0 LINE"
);
}
);
width = 670;
}
);
leftMetricsKey = I;
unicode = 0042;
},
{
glyphname = C;
lastChange = "2017-10-17 14:50:45 +0000";
layers = (
{
background = {
paths = (
{
closed = 1;
nodes = (
"502 11 OFFCURVE",
"563 119 OFFCURVE",
"570 247 CURVE",
"590 247 LINE",
"588 125 LINE",
"590 17 LINE",
"570 17 LINE",
"554 83 LINE",
"524 37 OFFCURVE",
"457 -11 OFFCURVE",
"368 -11 CURVE",
"368 11 LINE"
);
},
{
closed = 1;
nodes = (
"448 721 OFFCURVE",
"505 682 OFFCURVE",
"536 642 CURVE",
"549 690 LINE",
"569 690 LINE",
"567 615 LINE",
"569 525 LINE",
"549 525 LINE",
"541 621 OFFCURVE",
"471 698 OFFCURVE",
"368 698 CURVE",
"368 721 LINE"
);
}
);
};
backgroundImage = {
crop = "{{1368.703, 1378.361}, {309.05, 382.449}}";
imagePath = "../../../../1878 Limprimerie Berger Levrault Notice historique/Romain/JACOB-notice-187505.jpg";
locked = "1";
transform = "{2.587, 0.09, -0.09, 2.587, -3596, -3848}";
};
layerId = "9372F035-DA38-4B54-966C-CEBA9B53DD02";
paths = (
{
closed = 1;
nodes = (
"30 557 OFFCURVE",
"151 725 OFFCURVE",
"368 725 CURVE",
"368 700 LINE",
"194 700 OFFCURVE",
"114 519 OFFCURVE",
"114 353 CURVE SMOOTH",
"114 187 OFFCURVE",
"197 10 OFFCURVE",
"370 10 CURVE SMOOTH",
"481 10 OFFCURVE",
"586 113 OFFCURVE",
"598 237 CURVE",
"618 237 LINE",
"616 115 LINE",
"618 0 LINE",
"598 0 LINE",
"592 22 OFFCURVE",
"589 57 OFFCURVE",
"565 57 CURVE SMOOTH",
"553 57 OFFCURVE",
"543 48 OFFCURVE",
"535 42 CURVE SMOOTH",
"501 15 OFFCURVE",
"437 -15 OFFCURVE",
"370 -15 CURVE SMOOTH",
"154 -15 OFFCURVE",
"30 149 OFFCURVE",
"30 353 CURVE SMOOTH"
);
},
{
closed = 1;
nodes = (
"479 700 OFFCURVE",
"596 606 OFFCURVE",
"596 473 CURVE",
"616 473 LINE",
"614 595 LINE",
"616 710 LINE",
"596 710 LINE",
"596 685 OFFCURVE",
"587 653 OFFCURVE",
"566 653 CURVE",
"551 653 OFFCURVE",
"541 662 OFFCURVE",
"533 668 CURVE",
"498 694 OFFCURVE",
"435 725 OFFCURVE",
"368 725 CURVE",
"368 700 LINE"
);
}
);
width = 678;
}
);
unicode = 0043;
},
{
glyphname = D;
lastChange = "2017-10-17 14:50:45 +0000";
layers = (
{
backgroundImage = {
crop = "{{1133.05, 1044.108}, {342.081, 376.29}}";
imagePath = "1878 Limprimerie Berger Levrault Notice historique/Romain/JACOB-notice-187517.jpg";
locked = "1";
transform = "{2.631, 0, 0, 2.631, -3079, -3027}";
};
hints = (
{
origin = "{0, 10}";
scale = "{1.2, 1.1}";
type = Corner;
name = "_corner-bdc";
},
{
origin = "{0, 9}";
scale = "{-1.2, 1.1}";
type = Corner;
name = "_corner-bdc";
options = 1;
}
);
layerId = "9372F035-DA38-4B54-966C-CEBA9B53DD02";
paths = (
{
closed = 1;
nodes = (
"176 0 LINE",
"299 0 LINE",
"299 26 LINE",
"283 26 LINE SMOOTH",
"236 26 OFFCURVE",
"211 38 OFFCURVE",
"211 128 CURVE",
"211 172 LINE",
"212 710 LINE",
"137 710 LINE",
"136 0 LINE"
);
},
{
closed = 1;
nodes = (
"346 0 LINE SMOOTH",
"492 0 OFFCURVE",
"731 77 OFFCURVE",
"732 364 CURVE SMOOTH",
"733 620 OFFCURVE",
"519 710 OFFCURVE",
"335 710 CURVE SMOOTH",
"199 710 LINE",
"199 684 LINE",
"323 683 LINE SMOOTH",
"471 682 OFFCURVE",
"653 607 OFFCURVE",
"648 364 CURVE SMOOTH",
"642 70 OFFCURVE",
"422 23 OFFCURVE",
"327 26 CURVE SMOOTH",
"199 26 LINE",
"199 0 LINE"
);
}
);
width = 752;
}
);
leftMetricsKey = I;
rightMetricsKey = O;
unicode = 0044;
},
{
glyphname = E;
lastChange = "2017-10-17 14:50:45 +0000";
layers = (
{
background = {
hints = (
{
place = "{0, 0}";
type = Corner;
name = "_corner-bg";
},
{
place = "{0, 0}";
scale = "{-1, 1}";
type = Corner;
name = "_corner-hg";
options = 1;
}
);
paths = (
{
closed = 1;
nodes = (
"384 395 LINE",
"384 365 LINE",
"188 365 LINE",
"188 395 LINE"
);
},
{
closed = 1;
nodes = (
"133 0 LINE",
"133 710 LINE",
"203 710 LINE",
"569 709 LINE",
"579 546 LINE",
"562 546 LINE",
"559 626 OFFCURVE",
"515 687 OFFCURVE",
"419 687 CURVE SMOOTH",
"280 688 OFFCURVE",
"290 685 OFFCURVE",
"290 685 CURVE SMOOTH",
"240 685 OFFCURVE",
"223 656 OFFCURVE",
"223 597 CURVE SMOOTH",
"222 440 LINE",
"222 115 LINE SMOOTH",
"222 56 OFFCURVE",
"239 27 OFFCURVE",
"333 27 CURVE SMOOTH",
"419 26 LINE SMOOTH",
"535 25 OFFCURVE",
"585 90 OFFCURVE",
"595 210 CURVE",
"612 210 LINE",
"602 0 LINE",
"204 0 LINE"
);
},
{
closed = 1;
nodes = (
"434 518 LINE",
"434 229 LINE",
"412 229 LINE",
"412 331 OFFCURVE",
"384 365 OFFCURVE",
"341 365 CURVE",
"341 395 LINE",
"386 395 OFFCURVE",
"407 409 OFFCURVE",
"412 518 CURVE"
);
}
);
};
backgroundImage = {
crop = "{{1310.741, 921.481}, {259.259, 366.667}}";
imagePath = "Workshop Baskerville/1878 Limprimerie Berger Levrault Notice historique/Romain/JACOB-notice-187516.jpg";
locked = "1";
transform = "{2.7, 0, 0, 2.7, -3605, -2768}";
};
hints = (
{
origin = "{0, 0}";
scale = "{-1.2, 1.1}";
type = Corner;
name = "_corner-bdc";
options = 1;
},
{
origin = "{0, 1}";
scale = "{1.2, 1.1}";
type = Corner;
name = "_corner-bdc";
},
{
origin = "{3, 0}";
scale = "{-1.2, 1.1}";
type = Corner;
name = "_corner-bdc";
options = 1;
},
{
origin = "{3, 1}";
scale = "{1.2, 1.1}";
type = Corner;
name = "_corner-bdc";
}
);
layerId = "9372F035-DA38-4B54-966C-CEBA9B53DD02";
paths = (
{
closed = 1;
nodes = (
"136 0 LINE",
"136 710 LINE",
"192 710 LINE",
"558 709 LINE",
"568 546 LINE",
"551 546 LINE",
"548 626 OFFCURVE",
"504 680 OFFCURVE",
"408 680 CURVE SMOOTH",
"212 680 LINE",
"211 449 LINE",
"211 101 LINE SMOOTH",
"211 51 OFFCURVE",
"239 30 OFFCURVE",
"315 30 CURVE SMOOTH",
"408 30 LINE SMOOTH",
"522 30 OFFCURVE",
"574 90 OFFCURVE",
"584 210 CURVE",
"601 210 LINE",
"591 0 LINE",
"215 0 LINE"
);
},
{
closed = 1;
nodes = (
"371 388 LINE",
"371 362 LINE",
"175 362 LINE",
"175 388 LINE"
);
},
{
closed = 1;
nodes = (
"421 508 LINE",
"421 226 LINE",
"399 226 LINE",
"399 328 OFFCURVE",
"371 362 OFFCURVE",
"328 362 CURVE",
"328 388 LINE",
"371 388 OFFCURVE",
"394 399 OFFCURVE",
"399 508 CURVE"
);
},
{
closed = 1;
nodes = (
"136 0 LINE",
"136 710 LINE",
"192 710 LINE",
"558 709 LINE",
"568 546 LINE",
"551 546 LINE",
"548 626 OFFCURVE",
"504 680 OFFCURVE",
"408 680 CURVE SMOOTH",
"212 680 LINE",
"211 449 LINE",
"211 30 LINE",
"333 30 LINE",
"408 30 LINE SMOOTH",
"522 30 OFFCURVE",
"574 90 OFFCURVE",
"584 210 CURVE",
"601 210 LINE",
"591 0 LINE",
"215 0 LINE"
);
},
{
closed = 1;
nodes = (
"371 388 LINE",
"371 362 LINE",
"175 362 LINE",
"175 388 LINE"
);
},
{
closed = 0;
nodes = (
"200 377 LINE"
);
},
{
closed = 1;
nodes = (
"421 508 LINE",
"421 226 LINE",
"399 226 LINE",
"399 328 OFFCURVE",
"371 362 OFFCURVE",
"328 362 CURVE",
"328 388 LINE",
"371 388 OFFCURVE",
"394 399 OFFCURVE",
"399 508 CURVE"
);
}
);
width = 646;
},
{
associatedMasterId = "9372F035-DA38-4B54-966C-CEBA9B53DD02";
background = {
paths = (
{
closed = 1;
nodes = (
"417 395 LINE",
"417 365 LINE",
"221 365 LINE",
"221 395 LINE"
);
},
{
closed = 1;
nodes = (
"166 0 LINE",
"166 710 LINE",
"236 710 LINE",
"602 709 LINE",
"612 546 LINE",
"595 546 LINE",
"592 626 OFFCURVE",
"548 687 OFFCURVE",
"452 687 CURVE SMOOTH",
"313 688 OFFCURVE",
"323 685 OFFCURVE",
"323 685 CURVE SMOOTH",
"273 685 OFFCURVE",
"256 656 OFFCURVE",
"256 597 CURVE SMOOTH",
"255 440 LINE",
"255 115 LINE SMOOTH",
"255 56 OFFCURVE",
"272 27 OFFCURVE",
"366 27 CURVE SMOOTH",
"452 26 LINE SMOOTH",
"568 25 OFFCURVE",
"618 90 OFFCURVE",
"628 210 CURVE",
"645 210 LINE",
"635 0 LINE",
"237 0 LINE"
);
},
{
closed = 1;
nodes = (
"467 518 LINE",
"467 229 LINE",
"445 229 LINE",
"445 331 OFFCURVE",
"417 365 OFFCURVE",
"374 365 CURVE",
"374 395 LINE",
"419 395 OFFCURVE",
"440 409 OFFCURVE",
"445 518 CURVE"
);
}
);
};
backgroundImage = {
crop = "{{1310.741, 921.481}, {259.259, 366.667}}";
imagePath = "Workshop Baskerville/1878 Limprimerie Berger Levrault Notice historique/Romain/JACOB-notice-187516.jpg";
locked = "1";
transform = "{2.7, 0, 0, 2.7, -3572, -2768}";
};
layerId = "2A5F9701-8749-4C52-B615-DA6447DB6863";
name = "Avec arrondie";
width = 675;
}
);
leftMetricsKey = I;
unicode = 0045;
},
{
glyphname = F;
lastChange = "2017-10-17 14:50:45 +0000";
layers = (
{
backgroundImage = {
crop = "{{1429.818, 1020}, {229.091, 360}}";
imagePath = "Workshop Baskerville/1878 Limprimerie Berger Levrault Notice historique/Romain/JACOB-notice-187504.jpg";
locked = "1";
transform = "{2.75, 0, 0, 2.75, -3965, -3085}";
};
hints = (
{
origin = "{0, 0}";
scale = "{-1.2, 1.1}";
type = Corner;
name = "_corner-bdc";
options = 1;
},
{
origin = "{0, 11}";
scale = "{1.2, 1.1}";
type = Corner;
name = "_corner-bdc";
},
{
origin = "{0, 1}";
scale = "{1.2, 1.1}";
type = Corner;
name = "_corner-bdc";
}
);
layerId = "9372F035-DA38-4B54-966C-CEBA9B53DD02";
paths = (
{
closed = 1;
nodes = (
"136 0 LINE",
"136 710 LINE",
"192 710 LINE",
"572 709 LINE",
"584 548 LINE",
"563 548 LINE",
"552 683 OFFCURVE",
"446 680 OFFCURVE",
"380 680 CURVE SMOOTH",
"212 680 LINE",
"211 345 LINE",
"211 0 LINE"
);
},
{
closed = 1;
nodes = (
"382 378 LINE",
"382 352 LINE",
"186 352 LINE",
"186 378 LINE"
);
},
{
closed = 1;
nodes = (
"432 498 LINE",
"432 216 LINE",
"410 216 LINE",
"410 318 OFFCURVE",
"382 352 OFFCURVE",
"339 352 CURVE",
"339 378 LINE",
"382 378 OFFCURVE",
"405 389 OFFCURVE",
"410 498 CURVE"
);
}
);
width = 594;
},
{
associatedMasterId = "9372F035-DA38-4B54-966C-CEBA9B53DD02";
backgroundImage = {
crop = "{{1429.818, 1020}, {229.091, 360}}";
imagePath = "Workshop Baskerville/1878 Limprimerie Berger Levrault Notice historique/Romain/JACOB-notice-187504.jpg";
locked = "1";
transform = "{2.75, 0, 0, 2.75, -3932, -3085}";
};
hints = (
{
origin = "{0, 1}";
type = Corner;
name = "_corner-cap";
},
{
origin = "{0, 0}";
scale = "{-1, 1}";
type = Corner;
name = "_corner-cap";
options = 1;
},
{
origin = "{0, 14}";
type = Corner;
name = "_corner-cap";
}
);
layerId = "9819B011-9A5C-4824-A6C8-3CFD034EFA7B";
name = "Oct 16 17, 14:35";
paths = (
{
closed = 1;
nodes = (
"169 0 LINE",
"169 710 LINE",
"225 710 LINE",
"605 709 LINE",
"617 548 LINE",
"596 548 LINE",
"585 683 OFFCURVE",
"479 687 OFFCURVE",
"413 687 CURVE SMOOTH",
"356 687 LINE SMOOTH",
"275 687 OFFCURVE",
"245 674 OFFCURVE",
"245 597 CURVE SMOOTH",
"244 345 LINE",
"244 0 LINE"
);
},
{
closed = 1;
nodes = (
"415 378 LINE",
"415 353 LINE",
"219 353 LINE",
"219 378 LINE"
);
},
{
closed = 1;
nodes = (
"465 499 LINE",
"465 217 LINE",
"443 217 LINE",
"443 319 OFFCURVE",
"415 353 OFFCURVE",
"372 353 CURVE",
"372 378 LINE",
"415 378 OFFCURVE",
"438 390 OFFCURVE",
"443 499 CURVE"
);
}
);
width = 630;
}
);
leftMetricsKey = I;
unicode = 0046;
},
{
glyphname = G;
lastChange = "2017-10-17 14:50:45 +0000";
layers = (
{
backgroundImage = {
crop = "{{841.6, 776.8}, {280, 396}}";
imagePath = "../../../../1878 Limprimerie Berger Levrault Notice historique/Romain/JACOB-notice-187543.jpg";
locked = "1";
transform = "{2.573, 0, 0, 2.573, -2152, -2297}";
};
layerId = "9372F035-DA38-4B54-966C-CEBA9B53DD02";
paths = (
{
closed = 1;
nodes = (
"20 555 OFFCURVE",
"145 725 OFFCURVE",
"357 725 CURVE",
"357 700 LINE",
"183 700 OFFCURVE",
"104 517 OFFCURVE",
"104 353 CURVE SMOOTH",
"104 189 OFFCURVE",
"183 10 OFFCURVE",
"363 10 CURVE SMOOTH",
"457 10 OFFCURVE",
"530 88 OFFCURVE",
"530 147 CURVE SMOOTH",
"530 208 LINE SMOOTH",
"530 257 OFFCURVE",
"483 275 OFFCURVE",
"437 280 CURVE SMOOTH",
"394 284 LINE",
"394 304 LINE",
"560 300 LINE",
"722 304 LINE",
"722 284 LINE",
"669 280 LINE SMOOTH",
"633 277 OFFCURVE",
"608 258 OFFCURVE",
"608 208 CURVE SMOOTH",
"608 147 LINE SMOOTH",
"608 125 OFFCURVE",
"616 99 OFFCURVE",
"624 81 CURVE SMOOTH",
"630 68 LINE",
"612 57 LINE",
"603 71 OFFCURVE",
"586 79 OFFCURVE",
"574 79 CURVE SMOOTH",
"557 79 OFFCURVE",
"544 68 OFFCURVE",
"535 60 CURVE SMOOTH",
"495 24 OFFCURVE",
"434 -15 OFFCURVE",
"353 -15 CURVE SMOOTH",
"144 -15 OFFCURVE",
"20 151 OFFCURVE",
"20 353 CURVE SMOOTH"
);
},
{
closed = 1;
nodes = (
"357 725 LINE",
"424 725 OFFCURVE",
"487 694 OFFCURVE",
"522 668 CURVE",
"530 662 OFFCURVE",
"540 653 OFFCURVE",
"555 653 CURVE",
"576 653 OFFCURVE",
"585 685 OFFCURVE",
"585 710 CURVE",
"605 710 LINE",
"603 595 LINE",
"605 473 LINE",
"585 473 LINE",
"585 606 OFFCURVE",
"468 700 OFFCURVE",
"357 700 CURVE"
);
}
);
width = 712;
},
{
associatedMasterId = "9372F035-DA38-4B54-966C-CEBA9B53DD02";
backgroundImage = {
crop = "{{841.6, 776.8}, {280, 396}}";
imagePath = "../../../../1878 Limprimerie Berger Levrault Notice historique/Romain/JACOB-notice-187543.jpg";
locked = "1";
transform = "{2.573, 0, 0, 2.573, -2122, -2297}";
};
layerId = "A4C25750-8302-49D2-A74F-D71EF015FF93";
name = "Oct 17 17, 10:55";
paths = (
{
closed = 1;
nodes = (
"50 555 OFFCURVE",
"175 725 OFFCURVE",
"387 725 CURVE SMOOTH",
"440 725 OFFCURVE",
"490 706 OFFCURVE",
"521 687 CURVE SMOOTH",
"542 674 OFFCURVE",
"545 668 OFFCURVE",
"558 668 CURVE SMOOTH",
"576 668 OFFCURVE",
"584 696 OFFCURVE",
"584 710 CURVE",
"604 710 LINE",
"602 615 LINE",
"604 515 LINE",
"584 515 LINE",
"561 611 OFFCURVE",
"495 700 OFFCURVE",
"387 700 CURVE SMOOTH",
"209 700 OFFCURVE",
"128 517 OFFCURVE",
"128 353 CURVE SMOOTH",
"128 189 OFFCURVE",
"209 10 OFFCURVE",
"393 10 CURVE SMOOTH",
"487 10 OFFCURVE",
"560 88 OFFCURVE",
"560 147 CURVE SMOOTH",
"560 208 LINE SMOOTH",
"560 257 OFFCURVE",
"510 275 OFFCURVE",
"461 280 CURVE SMOOTH",
"418 284 LINE",
"418 304 LINE",
"590 300 LINE",
"758 304 LINE",
"758 284 LINE",
"705 280 LINE SMOOTH",
"665 277 OFFCURVE",
"638 258 OFFCURVE",
"638 208 CURVE SMOOTH",
"638 147 LINE SMOOTH",
"638 125 OFFCURVE",
"646 99 OFFCURVE",
"654 81 CURVE SMOOTH",
"660 68 LINE",
"642 57 LINE",
"633 71 OFFCURVE",
"616 79 OFFCURVE",
"604 79 CURVE SMOOTH",
"587 79 OFFCURVE",
"574 68 OFFCURVE",
"565 60 CURVE SMOOTH",
"525 24 OFFCURVE",
"464 -15 OFFCURVE",
"383 -15 CURVE SMOOTH",
"174 -15 OFFCURVE",
"50 151 OFFCURVE",
"50 353 CURVE SMOOTH"
);
},
{
closed = 1;
nodes = (
"50 557 OFFCURVE",
"171 725 OFFCURVE",
"388 725 CURVE SMOOTH",
"444 725 OFFCURVE",
"512 698 OFFCURVE",
"537 683 CURVE SMOOTH",
"549 676 OFFCURVE",
"563 668 OFFCURVE",
"576 668 CURVE SMOOTH",
"593 668 OFFCURVE",
"599 697 OFFCURVE",
"602 710 CURVE",
"622 710 LINE",
"620 634 LINE",
"622 525 LINE",
"602 525 LINE",
"579 623 OFFCURVE",
"491 700 OFFCURVE",
"388 700 CURVE SMOOTH",
"210 700 OFFCURVE",
"128 519 OFFCURVE",
"128 353 CURVE SMOOTH",
"128 187 OFFCURVE",
"213 10 OFFCURVE",
"390 10 CURVE SMOOTH",
"501 10 OFFCURVE",
"606 123 OFFCURVE",
"618 247 CURVE",
"638 247 LINE",
"636 115 LINE",
"638 0 LINE",
"618 0 LINE",
"612 22 OFFCURVE",
"609 57 OFFCURVE",
"585 57 CURVE SMOOTH",
"573 57 OFFCURVE",
"563 48 OFFCURVE",
"555 42 CURVE SMOOTH",
"520 16 OFFCURVE",
"457 -15 OFFCURVE",
"390 -15 CURVE SMOOTH",
"174 -15 OFFCURVE",
"50 149 OFFCURVE",
"50 353 CURVE SMOOTH"
);
}
);
width = 761;
}
);
leftMetricsKey = O;
unicode = 0047;
},
{
glyphname = H;
lastChange = "2017-10-17 14:50:45 +0000";
layers = (
{
backgroundImage = {
crop = "{{1328.244, 1380.534}, {343.511, 377.863}}";
imagePath = "Workshop Baskerville/1878 Limprimerie Berger Levrault Notice historique/Romain/JACOB-notice-187537.jpg";
locked = "1";
transform = "{2.62, -0.046, 0.046, 2.62, -3594, -3827}";
};
hints = (
{
origin = "{0, 0}";
scale = "{-1.2, 1.1}";
type = Corner;
name = "_corner-bdc";
options = 1;
},
{
origin = "{0, 3}";
scale = "{1.2, 1.1}";
type = Corner;
name = "_corner-bdc";
},
{
origin = "{1, 0}";
scale = "{1.2, -1.1}";
type = Corner;
name = "_corner-bdc";
options = 1;
},
{
origin = "{1, 3}";
scale = "{1.2, 1.1}";
type = Corner;
name = "_corner-bdc";
},
{
origin = "{1, 1}";
scale = "{1.2, 1.1}";
type = Corner;
name = "_corner-bdc";
},
{
origin = "{1, 2}";
scale = "{-1.2, 1.1}";
type = Corner;
name = "_corner-bdc";
options = 1;
},
{
origin = "{0, 2}";
scale = "{1.2, -1.1}";
type = Corner;
name = "_corner-bdc";
options = 1;
},
{
origin = "{0, 1}";
scale = "{1.2, 1.1}";
type = Corner;
name = "_corner-bdc";
}
);
layerId = "9372F035-DA38-4B54-966C-CEBA9B53DD02";
paths = (
{
closed = 1;
nodes = (
"688 0 LINE",
"687 710 LINE",
"612 710 LINE",
"613 0 LINE"
);
},
{
closed = 1;
nodes = (
"212 0 LINE",
"211 710 LINE",
"136 710 LINE",
"137 0 LINE"
);
},
{
closed = 1;
nodes = (
"616 354 LINE",
"616 385 LINE",
"204 385 LINE",
"204 354 LINE"
);
}
);
width = 824;
},
{
associatedMasterId = "9372F035-DA38-4B54-966C-CEBA9B53DD02";
backgroundImage = {
crop = "{{1328.244, 1380.534}, {343.511, 377.863}}";
imagePath = "Workshop Baskerville/1878 Limprimerie Berger Levrault Notice historique/Romain/JACOB-notice-187537.jpg";
locked = "1";
transform = "{2.62, -0.046, 0.046, 2.62, -3550, -3827}";
};
hints = (
{
origin = "{1, 1}";
type = Corner;
name = "_corner-bdc";
},
{
origin = "{1, 2}";
scale = "{1, -1}";
type = Corner;
name = "_corner-bdc";
}
);
layerId = "D4414EA3-B7D5-445B-9354-C98751CD83C0";
name = bdc;
paths = (
{
closed = 1;
nodes = (
"656 354 LINE",
"656 384 LINE",
"244 384 LINE",
"244 354 LINE"
);
},
{
closed = 1;
nodes = (
"729 614 LINE",
"729 0 LINE",
"659 0 LINE",
"659 614 LINE"
);
}
);
width = 900;
},
{
associatedMasterId = "9372F035-DA38-4B54-966C-CEBA9B53DD02";
backgroundImage = {
crop = "{{1328.244, 1380.534}, {343.511, 377.863}}";
imagePath = "Workshop Baskerville/1878 Limprimerie Berger Levrault Notice historique/Romain/JACOB-notice-187537.jpg";
locked = "1";
transform = "{2.62, -0.046, 0.046, 2.62, -3550, -3827}";
};
hints = (
{
origin = "{1, 2}";
scale = "{0.9, -1}";
type = Corner;
name = "_corner-cap";
options = 1;
},
{
origin = "{1, 1}";
scale = "{0.9, 1}";
type = Corner;
name = "_corner-cap";
},
{
origin = "{0, 2}";
scale = "{0.9, -1}";
type = Corner;
name = "_corner-cap";
options = 1;
},
{
origin = "{0, 1}";
scale = "{0.9, 1}";
type = Corner;
name = "_corner-cap";
},
{
origin = "{1, 3}";
scale = "{0.9, 1}";
type = Corner;
name = "_corner-cap";
},
{
origin = "{1, 0}";
scale = "{-0.9, 1}";
type = Corner;
name = "_corner-cap";
options = 1;
},
{
origin = "{0, 3}";
scale = "{0.9, 1}";
type = Corner;
name = "_corner-cap";
},
{
origin = "{0, 0}";
scale = "{-0.9, 1}";
type = Corner;
name = "_corner-cap";
options = 1;
}
);
layerId = "BA4FE908-487B-4283-9277-3D1B1A7BDAC7";
name = "Oct 16 17, 13:57";
paths = (
{
closed = 1;
nodes = (
"732 0 LINE",
"731 710 LINE",
"656 710 LINE",
"657 0 LINE"
);
},
{
closed = 1;
nodes = (
"256 0 LINE",
"255 710 LINE",
"180 710 LINE",
"181 0 LINE"
);
},
{
closed = 1;
nodes = (
"660 354 LINE",
"660 384 LINE",
"248 384 LINE",
"248 354 LINE"
);
}
);
width = 900;
}
);
leftMetricsKey = I;
rightMetricsKey = I;
unicode = 0048;
},
{
glyphname = I;
lastChange = "2017-10-17 14:50:45 +0000";
layers = (
{
backgroundImage = {
crop = "{{1036.296, 1301.852}, {222.222, 366.667}}";
imagePath = "Workshop Baskerville/1878 Limprimerie Berger Levrault Notice historique/Romain/IMG_3190.JPG";
locked = "1";
transform = "{2.72, -0.029, 0.029, 2.72, -2967, -3787}";
};
hints = (
{
origin = "{0, 2}";
scale = "{1.2, 1.1}";
type = Corner;
name = "_corner-bdc";
},
{
origin = "{0, 3}";
scale = "{-1.2, 1.1}";
type = Corner;
name = "_corner-bdc";
options = 1;
},
{
origin = "{0, 1}";
scale = "{-1.2, 1.1}";
type = Corner;
name = "_corner-bdc";
options = 1;
},
{
origin = "{0, 0}";
scale = "{1.2, 1.1}";
type = Corner;
name = "_corner-bdc";
}
);
layerId = "9372F035-DA38-4B54-966C-CEBA9B53DD02";
paths = (
{
closed = 1;
nodes = (
"136 710 LINE",
"209 710 LINE",
"210 0 LINE",
"137 0 LINE"
);
}
);
width = 346;
}
);
unicode = 0049;
},
{
glyphname = J;
lastChange = "2017-10-17 14:50:45 +0000";
layers = (
{
layerId = "9372F035-DA38-4B54-966C-CEBA9B53DD02";
paths = (
{
closed = 1;
nodes = (
"123 107 OFFCURVE",
"106 130 OFFCURVE",
"73 130 CURVE SMOOTH",
"34 130 OFFCURVE",
"20 100 OFFCURVE",
"20 71 CURVE SMOOTH",
"20 21 OFFCURVE",
"77 -9 OFFCURVE",
"137 -9 CURVE SMOOTH",
"232 -9 OFFCURVE",
"298 41 OFFCURVE",
"298 137 CURVE SMOOTH",
"298 610 LINE SMOOTH",
"298 653 OFFCURVE",
"303 686 OFFCURVE",
"350 689 CURVE SMOOTH",
"423 693 LINE",
"423 713 LINE",
"255 710 LINE",
"73 713 LINE",
"73 693 LINE",
"156 689 LINE SMOOTH",
"203 687 OFFCURVE",
"223 653 OFFCURVE",
"223 610 CURVE SMOOTH",
"223 121 LINE SMOOTH",
"223 62 OFFCURVE",
"187 10 OFFCURVE",
"136 10 CURVE SMOOTH",
"98 10 OFFCURVE",
"123 56 OFFCURVE",
"123 86 CURVE SMOOTH"
);
}
);
width = 443;
}
);
unicode = 004A;
},
{
glyphname = K;
lastChange = "2017-10-17 14:50:45 +0000";
layers = (
{
hints = (
{
origin = "{0, 1}";
scale = "{1.2, 1.1}";
type = Corner;
name = "_corner-bdc";
},
{
origin = "{0, 2}";
scale = "{-1.2, 1.1}";
type = Corner;
name = "_corner-bdc";
options = 1;
},
{
origin = "{0, 0}";
scale = "{-1.2, 1.1}";
type = Corner;
name = "_corner-bdc";
options = 1;
},
{
origin = "{0, 3}";
scale = "{1.2, 1.1}";
type = Corner;
name = "_corner-bdc";
}
);
layerId = "9372F035-DA38-4B54-966C-CEBA9B53DD02";
paths = (
{
closed = 1;
nodes = (
"212 0 LINE",
"211 710 LINE",
"136 710 LINE",
"137 0 LINE"
);
},
{
closed = 1;
nodes = (
"504 585 LINE SMOOTH",
"530 619 OFFCURVE",
"587 688 OFFCURVE",
"645 690 CURVE SMOOTH",
"675 691 LINE",
"675 713 LINE",
"606 709 OFFCURVE",
"479 709 OFFCURVE",
"416 713 CURVE",
"416 691 LINE",
"467 688 LINE SMOOTH",
"526 685 OFFCURVE",
"506 633 OFFCURVE",
"454 565 CURVE SMOOTH",
"199 233 LINE",
"203 186 LINE"
);
},
{
closed = 1;
nodes = (
"515 55 OFFCURVE",
"487 22 OFFCURVE",
"424 22 CURVE SMOOTH",
"399 22 LINE",
"399 -3 LINE",
"557 0 LINE",
"729 -3 LINE",
"729 22 LINE",
"704 22 LINE SMOOTH",
"632 22 OFFCURVE",
"588 73 OFFCURVE",
"530 171 CURVE SMOOTH",
"373 438 LINE",
"326 382 LINE",
"485 107 LINE SMOOTH"
);
}
);
width = 674;
}
);
leftMetricsKey = I;
unicode = 004B;
},
{
glyphname = L;
lastChange = "2017-10-17 14:50:45 +0000";
layers = (
{
hints = (
{
origin = "{0, 1}";
scale = "{1.2, 1.1}";
type = Corner;
name = "_corner-bdc";
},
{
origin = "{0, 2}";
scale = "{-1.2, 1.1}";
type = Corner;
name = "_corner-bdc";
options = 1;
},
{
origin = "{0, 0}";
scale = "{-1.2, 1.1}";
type = Corner;
name = "_corner-bdc";
options = 1;
}
);
layerId = "9372F035-DA38-4B54-966C-CEBA9B53DD02";
paths = (
{
closed = 1;
nodes = (
"136 0 LINE",
"136 710 LINE",
"211 710 LINE",
"211 161 LINE SMOOTH",
"211 60 OFFCURVE",
"220 26 OFFCURVE",
"333 26 CURVE SMOOTH",
"408 26 LINE SMOOTH",
"524 25 OFFCURVE",
"574 90 OFFCURVE",
"584 210 CURVE",
"601 210 LINE",
"591 -3 LINE",
"193 0 LINE"
);
}
);
width = 636;
}
);
leftMetricsKey = I;
unicode = 004C;
},
{
glyphname = M;
lastChange = "2017-10-17 14:50:45 +0000";
layers = (
{
backgroundImage = {
crop = "{{1366.296, 968.148}, {333.333, 366.667}}";
imagePath = "../../../../1878 Limprimerie Berger Levrault Notice historique/Romain/JACOB-notice-187509.jpg";
locked = "1";
transform = "{2.726, 0, 0, 2.726, -3723, -2917}";
};
hints = (
{
origin = "{0, 13}";
scale = "{1.2, 1.1}";
type = Corner;
name = "_corner-bdc";
},
{
origin = "{0, 14}";
scale = "{-1.2, 1.1}";
type = Corner;
name = "_corner-bdc";
options = 1;
},
{
origin = "{0, 0}";
scale = "{-1.2, 1.1}";
type = Corner;
name = "_corner-bdc";
options = 1;
},
{
origin = "{0, 21}";
scale = "{1.2, 1.1}";
type = Corner;
name = "_corner-bdc";
},
{
origin = "{0, 2}";
scale = "{1.2, 1.1}";
type = Corner;
name = "_corner-bdc";
}
);
layerId = "9372F035-DA38-4B54-966C-CEBA9B53DD02";
paths = (
{
closed = 1;
nodes = (
"136 0 LINE",
"136 607 LINE",
"136 710 LINE",
"228 710 LINE",
"477 89 LINE",
"453 100 LINE",
"743 710 LINE",
"913 710 LINE",
"913 690 LINE",
"870 686 LINE SMOOTH",
"823 682 OFFCURVE",
"818 658 OFFCURVE",
"818 607 CURVE SMOOTH",
"818 1 LINE",
"743 1 LINE",
"743 669 LINE",
"758 666 LINE",
"441 7 LINE",
"431 7 LINE",
"150 690 LINE",
"166 673 LINE",
"166 0 LINE"
);
}
);
width = 954;
}
);
leftMetricsKey = I;
rightMetricsKey = I;
unicode = 004D;
},
{
glyphname = N;
lastChange = "2017-10-17 14:50:45 +0000";
layers = (
{
backgroundImage = {
crop = "{{1823, 1956.053}, {43.684, 52.105}}";
imagePath = "Workshop Baskerville/1878 Limprimerie Berger Levrault Notice historique/Images/B543956101_050370_0013.jpg";
locked = "1";
transform = "{19, 0, 0, 19, -37, 0}";
};
hints = (
{
origin = "{0, 0}";
scale = "{1.2, 1.1}";
type = Corner;
name = "_corner-bdc";
},
{
origin = "{0, 1}";
scale = "{-1.2, 1.1}";
type = Corner;
name = "_corner-bdc";
options = 1;
},
{
origin = "{1, 3}";
scale = "{-1.2, 1.1}";
type = Corner;
name = "_corner-bdc";
options = 1;
},
{
origin = "{1, 2}";
scale = "{1.2, 1.1}";
type = Corner;
name = "_corner-bdc";
}
);
layerId = "9372F035-DA38-4B54-966C-CEBA9B53DD02";
paths = (
{
closed = 1;
nodes = (
"171 0 LINE",
"141 0 LINE",
"141 705 LINE",
"171 705 LINE"
);
},
{
closed = 1;
nodes = (
"633 0 LINE",
"603 0 LINE",
"603 710 LINE",
"633 710 LINE"
);
},
{
closed = 1;
nodes = (
"199 711 LINE",
"603 134 LINE",
"603 0 LINE",
"141 655 LINE",
"141 676 OFFCURVE",
"137 682 OFFCURVE",
"65 684 CURVE SMOOTH",
"31 685 LINE",
"30 713 LINE"
);
}
);
width = 759;
}
);
leftMetricsKey = I;
unicode = 004E;
},
{
glyphname = O;
lastChange = "2017-10-17 15:18:11 +0000";
layers = (
{
backgroundImage = {
crop = "{{1156.582, 857.493}, {311.957, 386.047}}";
imagePath = "../../../../1878 Limprimerie Berger Levrault Notice historique/Romain/JACOB-notice-187521.jpg";
locked = "1";
transform = "{2.64, -0.046, 0.046, 2.64, -3096, -2500}";
};
layerId = "9372F035-DA38-4B54-966C-CEBA9B53DD02";
paths = (
{
closed = 1;
nodes = (
"50 557 OFFCURVE",
"186 725 OFFCURVE",
"405 725 CURVE SMOOTH",
"624 725 OFFCURVE",
"760 557 OFFCURVE",
"760 353 CURVE SMOOTH",
"760 149 OFFCURVE",
"624 -15 OFFCURVE",
"405 -15 CURVE SMOOTH",
"186 -15 OFFCURVE",
"50 149 OFFCURVE",
"50 353 CURVE SMOOTH"
);
},
{
closed = 1;
nodes = (
"134 187 OFFCURVE",
"228 10 OFFCURVE",
"405 10 CURVE SMOOTH",
"582 10 OFFCURVE",
"676 187 OFFCURVE",
"676 353 CURVE SMOOTH",
"676 519 OFFCURVE",
"582 700 OFFCURVE",
"405 700 CURVE SMOOTH",
"228 700 OFFCURVE",
"134 519 OFFCURVE",
"134 353 CURVE SMOOTH"
);
}
);
width = 810;
}
);
unicode = 004F;
},
{
glyphname = P;
lastChange = "2017-10-17 14:50:45 +0000";
layers = (
{
backgroundImage = {
crop = "{{1321.132, 1329.434}, {266.038, 373.585}}";
imagePath = "Workshop Baskerville/1878 Limprimerie Berger Levrault Notice historique/Romain/JACOB-notice-187519.jpg";
locked = "1";
transform = "{2.65, 0, 0, 2.65, -3549, -3803}";
};
hints = (
{
origin = "{0, 4}";
scale = "{1.2, 1.1}";
type = Corner;
name = "_corner-bdc";
},
{
origin = "{0, 0}";
scale = "{-1.2, 1.1}";
type = Corner;
name = "_corner-bdc";
options = 1;
},
{
origin = "{0, 1}";
scale = "{1.2, 1.1}";
type = Corner;
name = "_corner-bdc";
}
);
layerId = "9372F035-DA38-4B54-966C-CEBA9B53DD02";
paths = (
{
closed = 1;
nodes = (
"136 0 LINE",
"137 710 LINE",
"212 710 LINE",
"211 172 LINE",
"211 0 LINE"
);
},
{
closed = 1;
nodes = (
"159 341 LINE",
"315 341 LINE SMOOTH",
"429 341 OFFCURVE",
"506 400 OFFCURVE",
"506 516 CURVE SMOOTH",
"506 638 OFFCURVE",
"430 685 OFFCURVE",
"310 685 CURVE SMOOTH",
"190 685 LINE",
"190 711 LINE",
"312 710 LINE SMOOTH",
"480 710 OFFCURVE",
"590 663 OFFCURVE",
"590 513 CURVE SMOOTH",
"590 342 OFFCURVE",
"440 315 OFFCURVE",
"310 315 CURVE SMOOTH",
"159 315 LINE"
);
}
);
width = 590;
},
{
associatedMasterId = "9372F035-DA38-4B54-966C-CEBA9B53DD02";
backgroundImage = {
crop = "{{1321.132, 1329.434}, {266.038, 373.585}}";
imagePath = "Workshop Baskerville/1878 Limprimerie Berger Levrault Notice historique/Romain/JACOB-notice-187519.jpg";
locked = "1";
transform = "{2.65, 0, 0, 2.65, -3501, -3803}";
};
hints = (
{
origin = "{0, 4}";
scale = "{1.2, 1.1}";
type = Corner;
name = "_corner-bdc";
},
{
origin = "{0, 0}";
scale = "{-1.2, 1.1}";
type = Corner;
name = "_corner-bdc";
options = 1;
},
{
origin = "{0, 1}";
scale = "{1.2, 1.1}";
type = Corner;
name = "_corner-bdc";
},
{
origin = "{2, 0}";
scale = "{-1.2, 1.1}";
type = Corner;
name = "_corner-bdc";
options = 1;
},
{
origin = "{2, 1}";
scale = "{1.2, 1.1}";
type = Corner;
name = "_corner-bdc";
},
{
origin = "{2, 4}";
scale = "{1.2, 1.1}";
type = Corner;
name = "_corner-bdc";
}
);
layerId = "05C69439-2CAC-448C-857A-AB981370A93B";
name = "Oct 16 17, 14:56";
paths = (
{
closed = 1;
nodes = (
"184 0 LINE",
"185 710 LINE",
"260 710 LINE",
"259 172 LINE",
"259 0 LINE"
);
},
{
closed = 1;
nodes = (
"207 341 LINE",
"376 341 LINE SMOOTH",
"478 341 OFFCURVE",
"558 401 OFFCURVE",
"558 517 CURVE SMOOTH",
"558 639 OFFCURVE",
"452 690 OFFCURVE",
"358 685 CURVE SMOOTH",
"238 685 LINE",
"238 711 LINE",
"360 710 LINE SMOOTH",
"528 710 OFFCURVE",
"638 664 OFFCURVE",
"638 514 CURVE SMOOTH",
"638 337 OFFCURVE",
"477 315 OFFCURVE",
"388 315 CURVE",
"207 315 LINE"
);
},
{
closed = 1;
nodes = (
"184 0 LINE",
"185 710 LINE",
"260 710 LINE",
"259 172 LINE",
"259 0 LINE"
);
},
{
closed = 1;
nodes = (
"207 341 LINE",
"376 341 LINE SMOOTH",
"478 341 OFFCURVE",
"558 401 OFFCURVE",
"558 517 CURVE SMOOTH",
"558 639 OFFCURVE",
"452 690 OFFCURVE",
"358 685 CURVE SMOOTH",
"238 685 LINE",
"238 711 LINE",
"360 710 LINE SMOOTH",
"528 710 OFFCURVE",
"638 664 OFFCURVE",
"638 514 CURVE SMOOTH",
"638 337 OFFCURVE",
"477 315 OFFCURVE",
"388 315 CURVE",
"207 315 LINE"
);
}
);
width = 655;
}
);
leftMetricsKey = I;
unicode = 0050;
},
{
glyphname = Q;
lastChange = "2017-10-17 14:50:45 +0000";
layers = (
{
backgroundImage = {
crop = "{{115.076, 187.391}, {24.43, 30.195}}";
imagePath = "1788-89 Epreuves des caracteres de Rolland et Jacob/p19.jpg";
locked = "1";
transform = "{68, 0, 0, 68, -8353, -13271}";
};
layerId = "9372F035-DA38-4B54-966C-CEBA9B53DD02";
paths = (
{
closed = 1;
nodes = (
"377 -1 LINE",
"192 -87 LINE",
"220 -86 OFFCURVE",
"244 -85 OFFCURVE",
"272 -87 CURVE SMOOTH",
"346 -93 OFFCURVE",
"433 -151 OFFCURVE",
"479 -194 CURVE SMOOTH",
"535 -248 OFFCURVE",
"616 -277 OFFCURVE",
"650 -271 CURVE SMOOTH",
"708 -260 OFFCURVE",
"743 -225 OFFCURVE",
"743 -145 CURVE",
"765 -145 LINE",
"765 -289 OFFCURVE",
"713 -327 OFFCURVE",
"650 -336 CURVE SMOOTH",
"563 -348 OFFCURVE",
"474 -292 OFFCURVE",
"425 -243 CURVE SMOOTH",
"296 -113 OFFCURVE",
"235 -106 OFFCURVE",
"187 -106 CURVE SMOOTH",
"149 -106 OFFCURVE",
"121 -124 OFFCURVE",
"112 -146 CURVE SMOOTH",
"100 -174 OFFCURVE",
"72 -187 OFFCURVE",
"43 -187 CURVE SMOOTH",
"22 -187 OFFCURVE",
"7 -174 OFFCURVE",
"7 -155 CURVE SMOOTH",
"7 -113 OFFCURVE",
"57 -86 OFFCURVE",
"144 -86 CURVE",
"333 -3 LINE"
);
},
{
closed = 1;
nodes = (
"355 14 LINE",
"532 14 OFFCURVE",
"626 189 OFFCURVE",
"626 353 CURVE SMOOTH",
"626 517 OFFCURVE",
"532 696 OFFCURVE",
"355 696 CURVE",
"355 721 LINE",
"574 721 OFFCURVE",
"710 555 OFFCURVE",
"710 353 CURVE SMOOTH",
"710 151 OFFCURVE",
"574 -11 OFFCURVE",
"355 -11 CURVE"
);
},
{
closed = 1;
nodes = (
"136 -11 OFFCURVE",
"0 151 OFFCURVE",
"0 353 CURVE SMOOTH",
"0 555 OFFCURVE",
"136 721 OFFCURVE",
"355 721 CURVE",
"355 696 LINE",
"178 696 OFFCURVE",
"84 517 OFFCURVE",
"84 353 CURVE SMOOTH",
"84 189 OFFCURVE",
"178 14 OFFCURVE",
"355 14 CURVE",
"355 -11 LINE"
);
}
);
width = 735;
}
);
unicode = 0051;
},
{
glyphname = R;
lastChange = "2017-10-17 14:50:45 +0000";
layers = (
{
backgroundImage = {
crop = "{{1436.296, 1029.63}, {296.296, 366.667}}";
imagePath = "Workshop Baskerville/1878 Limprimerie Berger Levrault Notice historique/Romain/JACOB-notice-187518.jpg";
locked = "1";
transform = "{2.7, 0, 0, 2.7, -3923, -3060}";
};
hints = (
{
origin = "{0, 1}";
scale = "{1.2, 1.1}";
type = Corner;
name = "_corner-bdc";
},
{
origin = "{0, 0}";
scale = "{-1.2, 1.1}";
type = Corner;
name = "_corner-bdc";
options = 1;
},
{
origin = "{0, 4}";
scale = "{1.2, 1.1}";
type = Corner;
name = "_corner-bdc";
}
);
layerId = "9372F035-DA38-4B54-966C-CEBA9B53DD02";
paths = (
{
closed = 1;
nodes = (
"136 0 LINE",
"137 710 LINE",
"212 710 LINE",
"211 172 LINE",
"211 0 LINE"
);
},
{
closed = 1;
nodes = (
"421 347 OFFCURVE",
"538 333 OFFCURVE",
"556 169 CURVE SMOOTH",
"576 -15 OFFCURVE",
"662 19 OFFCURVE",
"693 47 CURVE",
"698 30 LINE",
"677 9 OFFCURVE",
"540 -70 OFFCURVE",
"490 74 CURVE SMOOTH",
"453 179 OFFCURVE",
"469 252 OFFCURVE",
"416 307 CURVE SMOOTH",
"374 351 OFFCURVE",
"307 347 OFFCURVE",
"268 347 CURVE",
"268 356 LINE",
"364 354 LINE"
);
},
{
closed = 1;
nodes = (
"159 373 LINE",
"318 373 LINE SMOOTH",
"415 372 OFFCURVE",
"482 412 OFFCURVE",
"482 539 CURVE SMOOTH",
"482 629 OFFCURVE",
"409 684 OFFCURVE",
"300 684 CURVE SMOOTH",
"190 684 LINE",
"190 710 LINE",
"310 710 LINE SMOOTH",
"422 710 OFFCURVE",
"566 656 OFFCURVE",
"566 539 CURVE SMOOTH",
"566 364 OFFCURVE",
"408 349 OFFCURVE",
"330 347 CURVE",
"159 347 LINE"
);
}
);
width = 718;
}
);
leftMetricsKey = I;
unicode = 0052;
},
{
glyphname = S;
lastChange = "2017-10-17 14:50:45 +0000";
layers = (
{
backgroundImage = {
crop = "{{897.433, 1349.501}, {201.068, 331.762}}";
imagePath = "../../../../1878 Limprimerie Berger Levrault Notice historique/Romain/JACOB-notice-187538.jpg";
locked = "1";
transform = "{2.984, 0, 0, 2.984, -2734, -4307}";
};
layerId = "9372F035-DA38-4B54-966C-CEBA9B53DD02";
paths = (
{
closed = 1;
nodes = (
"205 462 OFFCURVE",
"130 481 OFFCURVE",
"130 569 CURVE SMOOTH",
"130 637 OFFCURVE",
"185 697 OFFCURVE",
"276 697 CURVE SMOOTH",
"374 697 OFFCURVE",
"431 621 OFFCURVE",
"454 524 CURVE",
"474 524 LINE",
"472 633 LINE",
"474 710 LINE",
"454 710 LINE",
"454 697 OFFCURVE",
"452 667 OFFCURVE",
"428 667 CURVE SMOOTH",
"415 667 OFFCURVE",
"411 673 OFFCURVE",
"391 686 CURVE SMOOTH",
"368 701 OFFCURVE",
"332 725 OFFCURVE",
"278 725 CURVE SMOOTH",
"175 725 OFFCURVE",
"67 646 OFFCURVE",
"70 515 CURVE SMOOTH",
"72 426 OFFCURVE",
"130 383 OFFCURVE",
"229 342 CURVE SMOOTH",
"355 289 OFFCURVE",
"444 242 OFFCURVE",
"440 122 CURVE SMOOTH",
"438 38 OFFCURVE",
"345 14 OFFCURVE",
"291 14 CURVE SMOOTH",
"177 14 OFFCURVE",
"97 122 OFFCURVE",
"85 245 CURVE",
"65 245 LINE",
"67 112 LINE",
"65 0 LINE",
"85 0 LINE",
"91 22 OFFCURVE",
"88 54 OFFCURVE",
"118 54 CURVE SMOOTH",
"130 54 OFFCURVE",
"140 45 OFFCURVE",
"148 39 CURVE SMOOTH",
"177 18 OFFCURVE",
"221 -14 OFFCURVE",
"289 -14 CURVE SMOOTH",
"409 -14 OFFCURVE",
"498 86 OFFCURVE",
"498 185 CURVE SMOOTH",
"498 331 OFFCURVE",
"424 347 OFFCURVE",
"289 419 CURVE SMOOTH"
);
}
);
width = 563;
}
);
unicode = 0053;
},
{
glyphname = T;
lastChange = "2017-10-17 14:50:45 +0000";
layers = (
{
hints = (
{
origin = "{0, 1}";
scale = "{1.3, -1.1}";
type = Corner;
name = "_corner-bdc";
options = 1;
},
{
origin = "{0, 0}";
scale = "{-1.3, -1.1}";
type = Corner;
name = "_corner-bdc";
}
);
layerId = "9372F035-DA38-4B54-966C-CEBA9B53DD02";
paths = (
{
closed = 1;
nodes = (
"350 0 LINE",
"425 0 LINE",
"424 681 LINE",
"568 681 LINE SMOOTH",
"660 681 OFFCURVE",
"695 634 OFFCURVE",
"732 503 CURVE",
"753 510 LINE",
"728 633 LINE",
"717 713 LINE",
"387 710 LINE",
"56 713 LINE",
"45 633 LINE",
"20 510 LINE",
"41 503 LINE SMOOTH",
"78 634 OFFCURVE",
"113 681 OFFCURVE",
"205 681 CURVE",
"349 681 LINE"
);
}
);
width = 773;
}
);
unicode = 0054;
},
{
glyphname = U;
lastChange = "2017-10-17 14:50:45 +0000";
layers = (
{
backgroundImage = {
crop = "{{1243.093, 2255.185}, {79.054, 101.64}}";
imagePath = "1790 La Constitution Française de Jacob/JACOB-constitution-179001.jpg";
locked = "1";
transform = "{9.739, 0.17, -0.17, 9.739, -11714, 0}";
};
hints = (
{
origin = "{0, 5}";
scale = "{1.2, 1.1}";
type = Corner;
name = "_corner-bdc";
},
{
origin = "{0, 6}";
scale = "{-1.2, 1.1}";
type = Corner;
name = "_corner-bdc";
options = 1;
},
{
origin = "{0, 17}";
scale = "{-1.2, 1.1}";
type = Corner;
name = "_corner-bdc";
options = 1;
},
{
origin = "{0, 16}";
scale = "{1.2, 1.1}";
type = Corner;
name = "_corner-bdc";
}
);
layerId = "9372F035-DA38-4B54-966C-CEBA9B53DD02";
paths = (
{
closed = 1;
nodes = (
"188 -15 OFFCURVE",
"131 92 OFFCURVE",
"131 244 CURVE SMOOTH",
"131 449 OFFCURVE",
"131 603 OFFCURVE",
"131 710 CURVE",
"206 710 LINE",
"206 614 OFFCURVE",
"206 445 OFFCURVE",
"206 244 CURVE SMOOTH",
"206 91 OFFCURVE",
"273 22 OFFCURVE",
"393 22 CURVE SMOOTH",
"535 22 OFFCURVE",
"592 121 OFFCURVE",
"592 314 CURVE SMOOTH",
"592 710 LINE",
"627 710 LINE",
"627 316 LINE SMOOTH",
"627 114 OFFCURVE",
"575 -15 OFFCURVE",
"393 -15 CURVE SMOOTH"
);
}
);
width = 758;
}
);
unicode = 0055;
},
{
glyphname = V;
lastChange = "2017-10-17 14:50:45 +0000";
layers = (
{
backgroundImage = {
crop = "{{1421.943, 833.867}, {330.508, 376.095}}";
imagePath = "1878 Limprimerie Berger Levrault Notice historique/Romain/JACOB-notice-187505.jpg";
locked = "1";
transform = "{2.632, 0, 0, 2.632, -3770, -2475}";
};
layerId = "9372F035-DA38-4B54-966C-CEBA9B53DD02";
paths = (
{
closed = 1;
nodes = (
"336 710 LINE",
"336 692 LINE",
"294 688 LINE SMOOTH",
"229 682 OFFCURVE",
"201 672 OFFCURVE",
"235 594 CURVE SMOOTH",
"454 88 LINE",
"423 43 LINE",
"666 621 LINE SMOOTH",
"685 667 OFFCURVE",
"654 682 OFFCURVE",
"607 688 CURVE SMOOTH",
"574 692 LINE",
"574 710 LINE",
"706 708 LINE",
"831 710 LINE",
"831 692 LINE",
"788 688 LINE SMOOTH",
"744 684 OFFCURVE",
"715 665 OFFCURVE",
"700 628 CURVE SMOOTH",
"438 -16 LINE",
"418 -16 LINE",
"147 593 LINE SMOOTH",
"107 682 OFFCURVE",
"100 684 OFFCURVE",
"0 684 CURVE",
"0 711 LINE",
"241 710 LINE"
);
}
);
width = 781;
}
);
unicode = 0056;
},
{
glyphname = W;
lastChange = "2017-10-17 14:50:45 +0000";
layers = (
{
background = {
paths = (
{
closed = 1;
nodes = (
"334 -16 LINE",
"354 -16 LINE",
"586 628 LINE SMOOTH",
"599 665 OFFCURVE",
"630 684 OFFCURVE",
"674 688 CURVE SMOOTH",
"717 692 LINE",
"717 710 LINE",
"460 710 LINE",
"460 692 LINE",
"493 688 LINE SMOOTH",
"540 682 OFFCURVE",
"569 667 OFFCURVE",
"552 621 CURVE SMOOTH",
"357 82 LINE",
"386 89 LINE",
"224 594 LINE SMOOTH",
"210 638 OFFCURVE",
"226 683 OFFCURVE",
"283 688 CURVE SMOOTH",
"326 692 LINE",
"326 710 LINE",
"248 710 LINE SMOOTH",
"172 710 OFFCURVE",
"106 662 OFFCURVE",
"129 593 CURVE SMOOTH"
);
}
);
};
backgroundImage = {
crop = "{{1180, 1157.037}, {444.444, 366.667}}";
imagePath = "../../../../1878 Limprimerie Berger Levrault Notice historique/Romain/JACOB-notice-187514.jpg";
locked = "1";
transform = "{2.7, 0, 0, 2.7, -3252, -3404}";
};
layerId = "9372F035-DA38-4B54-966C-CEBA9B53DD02";
paths = (
{
closed = 1;
nodes = (
"775 -16 LINE",
"795 -16 LINE",
"1027 628 LINE SMOOTH",
"1040 665 OFFCURVE",
"1071 684 OFFCURVE",
"1115 688 CURVE SMOOTH",
"1158 692 LINE",
"1158 710 LINE",
"1033 708 LINE",
"901 710 LINE",
"901 692 LINE",
"934 688 LINE SMOOTH",
"981 682 OFFCURVE",
"1010 667 OFFCURVE",
"993 621 CURVE SMOOTH",
"798 82 LINE",
"820 95 LINE",
"665 594 LINE SMOOTH",
"651 638 OFFCURVE",
"667 683 OFFCURVE",
"724 688 CURVE SMOOTH",
"766 692 LINE",
"766 710 LINE",
"671 710 LINE SMOOTH",
"601 710 OFFCURVE",
"557 652 OFFCURVE",
"577 593 CURVE SMOOTH"
);
},
{
closed = 1;
nodes = (
"600 657 OFFCURVE",
"574 710 OFFCURVE",
"511 710 CURVE SMOOTH",
"455 710 LINE",
"455 692 LINE",
"483 690 LINE SMOOTH",
"548 685 OFFCURVE",
"567 652 OFFCURVE",
"548 597 CURVE SMOOTH",
"368 82 LINE",
"389 92 LINE",
"223 628 LINE SMOOTH",
"208 677 OFFCURVE",
"251 689 OFFCURVE",
"294 691 CURVE SMOOTH",
"320 692 LINE",
"320 710 LINE",
"155 708 LINE",
"0 710 LINE",
"0 692 LINE",
"43 688 LINE SMOOTH",
"86 684 OFFCURVE",
"122 669 OFFCURVE",
"134 632 CURVE SMOOTH",
"342 -16 LINE",
"362 -16 LINE",
"586 617 LINE SMOOTH"
);
}
);
width = 1108;
}
);
unicode = 0057;
},
{
glyphname = X;
lastChange = "2017-10-17 14:50:45 +0000";
layers = (
{
backgroundImage = {
crop = "{{1307.627, 1364.547}, {297.969, 378.192}}";
imagePath = "1878 Limprimerie Berger Levrault Notice historique/Romain/JACOB-notice-187513.jpg";
locked = "1";
transform = "{2.618, 0, 0, 2.618, -3423, -3852}";
};
layerId = "9372F035-DA38-4B54-966C-CEBA9B53DD02";
paths = (
{
closed = 1;
nodes = (
"387 423 LINE",
"544 636 LINE SMOOTH",
"564 663 OFFCURVE",
"555 684 OFFCURVE",
"508 690 CURVE SMOOTH",
"475 694 LINE",
"475 712 LINE",
"607 710 LINE",
"712 712 LINE",
"712 692 LINE",
"667 690 LINE SMOOTH",
"613 688 OFFCURVE",
"592 661 OFFCURVE",
"574 636 CURVE SMOOTH",
"402 403 LINE"
);
},
{
closed = 1;
nodes = (
"646 41 OFFCURVE",
"661 31 OFFCURVE",
"761 31 CURVE",
"761 4 LINE",
"520 5 LINE",
"425 5 LINE",
"425 23 LINE",
"467 27 LINE SMOOTH",
"524 32 OFFCURVE",
"545 60 OFFCURVE",
"506 121 CURVE SMOOTH",
"204 593 LINE SMOOTH",
"152 674 OFFCURVE",
"137 684 OFFCURVE",
"37 684 CURVE",
"37 711 LINE",
"278 710 LINE",
"373 710 LINE",
"373 692 LINE",
"331 688 LINE SMOOTH",
"274 683 OFFCURVE",
"253 655 OFFCURVE",
"292 594 CURVE SMOOTH",
"594 122 LINE SMOOTH"
);
},
{
closed = 1;
nodes = (
"381 345 LINE",
"189 74 LINE SMOOTH",
"171 48 OFFCURVE",
"178 23 OFFCURVE",
"225 20 CURVE SMOOTH",
"298 16 LINE",
"298 -2 LINE",
"126 0 LINE",
"21 -2 LINE",
"21 18 LINE",
"66 20 LINE SMOOTH",
"120 22 OFFCURVE",
"142 50 OFFCURVE",
"159 74 CURVE SMOOTH",
"366 365 LINE"
);
}
);
width = 780;
}
);
unicode = 0058;
},
{
glyphname = Y;
lastChange = "2017-10-17 14:50:45 +0000";
layers = (
{
backgroundImage = {
crop = "{{248.984, 192.024}, {12.151, 15.037}}";
imagePath = "1788-89 Epreuves des caracteres de Rolland et Jacob/p19.jpg";
locked = "1";
transform = "{65.836, 0, 0, 65.836, -16429, -12922}";
};
hints = (
{
origin = "{1, 1}";
scale = "{1.2, 1.1}";
type = Corner;
name = "_corner-bdc";
},
{
origin = "{1, 2}";
scale = "{1.2, -1.1}";
type = Corner;
name = "_corner-bdc";
options = 1;
}
);
layerId = "9372F035-DA38-4B54-966C-CEBA9B53DD02";
paths = (
{
closed = 1;
nodes = (
"336 710 LINE",
"336 686 LINE",
"294 686 LINE SMOOTH",
"242 686 OFFCURVE",
"179 684 OFFCURVE",
"202 644 CURVE SMOOTH",
"402 291 LINE",
"379 291 LINE",
"584 621 LINE SMOOTH",
"609 662 OFFCURVE",
"572 682 OFFCURVE",
"525 688 CURVE SMOOTH",
"492 692 LINE",
"492 710 LINE",
"624 708 LINE",
"749 710 LINE",
"749 692 LINE",
"706 688 LINE SMOOTH",
"662 684 OFFCURVE",
"640 665 OFFCURVE",
"618 628 CURVE SMOOTH",
"393 256 LINE",
"344 256 LINE",
"147 593 LINE SMOOTH",
"96 680 OFFCURVE",
"100 684 OFFCURVE",
"0 684 CURVE",
"0 711 LINE",
"241 710 LINE"
);
},
{
closed = 1;
nodes = (
"407 278 LINE",
"407 0 LINE",
"332 0 LINE",
"332 278 LINE"
);
}
);
width = 699;
}
);
unicode = 0059;
},
{
glyphname = Z;
lastChange = "2017-10-17 14:50:45 +0000";
layers = (
{
backgroundImage = {
crop = "{{267.352, 192.418}, {10.637, 14.626}}";
imagePath = "1788-89 Epreuves des caracteres de Rolland et Jacob/p19.jpg";
locked = "1";
transform = "{67.686, 0, 0, 67.686, -18078, -13304}";
};
layerId = "9372F035-DA38-4B54-966C-CEBA9B53DD02";
paths = (
{
closed = 1;
nodes = (
"666 -3 LINE",
"323 0 LINE",
"50 -3 LINE",
"50 26 LINE",
"559 680 LINE",
"309 680 LINE SMOOTH",
"83 680 OFFCURVE",
"93 679 OFFCURVE",
"73 526 CURVE",
"56 526 LINE",
"66 659 LINE",
"66 712 LINE",
"381 710 LINE",
"649 713 LINE",
"649 679 LINE",
"145 34 LINE",
"318 34 LINE SMOOTH",
"544 34 OFFCURVE",
"646 9 OFFCURVE",
"656 280 CURVE",
"673 280 LINE",
"663 100 LINE"
);
}
);
width = 738;
}
);
unicode = 005A;
},
{
glyphname = a;
lastChange = "2017-10-17 15:25:05 +0000";
layers = (
{
backgroundImage = {
crop = "{{1728.554, 843.606}, {223.472, 368.728}}";
imagePath = "../../../../Desktop/ANRT-Baskerwille/1878 Limprimerie Berger Levrault Notice historique/Romain/JACOB-notice-187505.jpg";
locked = "1";
transform = "{2.684, 0.07, -0.07, 2.684, -4622, -2676}";
};
guideLines = (
{
position = "{184, 19}";
}
);
layerId = "9372F035-DA38-4B54-966C-CEBA9B53DD02";
paths = (
{
closed = 1;
nodes = (
"380 332 LINE",
"380 118 LINE",
"310 118 LINE",
"310 332 LINE"
);
},
{
closed = 1;
nodes = (
"310 389 OFFCURVE",
"286 430 OFFCURVE",
"228 429 CURVE",
"228 454 LINE",
"337 454 OFFCURVE",
"380 404 OFFCURVE",
"380 331 CURVE",
"310 326 LINE"
);
},
{
closed = 1;
nodes = (
"179 429 OFFCURVE",
"140 415 OFFCURVE",
"136 401 CURVE SMOOTH",
"131 386 OFFCURVE",
"144 383 OFFCURVE",
"144 359 CURVE SMOOTH",
"144 334 OFFCURVE",
"125 310 OFFCURVE",
"100 310 CURVE SMOOTH",
"76 310 OFFCURVE",
"56 328 OFFCURVE",
"56 351 CURVE SMOOTH",
"56 425 OFFCURVE",
"155 454 OFFCURVE",
"230 454 CURVE",
"230 429 LINE"
);
},
{
closed = 1;
nodes = (
"321 -14 OFFCURVE",
"310 51 OFFCURVE",
"310 118 CURVE",
"380 118 LINE",
"380 82 OFFCURVE",
"386 21 OFFCURVE",
"416 21 CURVE SMOOTH",
"431 21 OFFCURVE",
"441 36 OFFCURVE",
"446 53 CURVE",
"465 48 LINE",
"460 9 OFFCURVE",
"423 -14 OFFCURVE",
"386 -14 CURVE SMOOTH"
);
},
{
closed = 1;
nodes = (
"324 135 LINE",
"324 53 OFFCURVE",
"234 -14 OFFCURVE",
"154 -14 CURVE SMOOTH",
"88 -14 OFFCURVE",
"40 16 OFFCURVE",
"40 83 CURVE SMOOTH",
"40 185 OFFCURVE",
"250 266 OFFCURVE",
"326 286 CURVE"
);
},
{
closed = 1;
nodes = (
"227 236 OFFCURVE",
"118 173 OFFCURVE",
"118 83 CURVE SMOOTH",
"118 43 OFFCURVE",
"147 19 OFFCURVE",
"184 19 CURVE SMOOTH",
"241 19 OFFCURVE",
"316 93 OFFCURVE",
"316 150 CURVE",
"315 256 LINE"
);
}
);
width = 470;
},
{
associatedMasterId = "9372F035-DA38-4B54-966C-CEBA9B53DD02";
backgroundImage = {
crop = "{{1728.554, 843.606}, {223.472, 368.728}}";
imagePath = "../../../../Desktop/ANRT-Baskerwille/1878 Limprimerie Berger Levrault Notice historique/Romain/JACOB-notice-187505.jpg";
locked = "1";
transform = "{2.684, 0.07, -0.07, 2.684, -4605, -2676}";
};
guideLines = (
{
position = "{201, 19}";
}
);
layerId = "132EB873-7EB1-4BE8-AD64-1EFB370283C1";
name = "Oct 16 17, 11:10";
paths = (
{
closed = 1;
nodes = (
"397 332 LINE",
"397 118 LINE",
"327 118 LINE",
"327 332 LINE"
);
},
{
closed = 1;
nodes = (
"327 387 OFFCURVE",
"303 426 OFFCURVE",
"245 425 CURVE",
"245 450 LINE",
"354 450 OFFCURVE",
"397 402 OFFCURVE",
"397 331 CURVE",
"327 326 LINE"
);
},
{
closed = 1;
nodes = (
"206 425 OFFCURVE",
"157 413 OFFCURVE",
"153 401 CURVE SMOOTH",
"148 386 OFFCURVE",
"161 383 OFFCURVE",
"161 359 CURVE SMOOTH",
"161 334 OFFCURVE",
"142 310 OFFCURVE",
"117 310 CURVE SMOOTH",
"90 310 OFFCURVE",
"68 328 OFFCURVE",
"68 359 CURVE SMOOTH",
"68 422 OFFCURVE",
"170 450 OFFCURVE",
"247 450 CURVE",
"247 425 LINE"
);
},
{
closed = 1;
nodes = (
"338 -11 OFFCURVE",
"327 53 OFFCURVE",
"327 118 CURVE",
"397 118 LINE",
"397 83 OFFCURVE",
"403 24 OFFCURVE",
"433 24 CURVE SMOOTH",
"448 24 OFFCURVE",
"458 38 OFFCURVE",
"463 53 CURVE",
"482 48 LINE",
"477 11 OFFCURVE",
"440 -11 OFFCURVE",
"403 -11 CURVE SMOOTH"
);
},
{
closed = 1;
nodes = (
"341 135 LINE",
"341 55 OFFCURVE",
"251 -10 OFFCURVE",
"171 -10 CURVE SMOOTH",
"107 -10 OFFCURVE",
"60 19 OFFCURVE",
"60 83 CURVE SMOOTH",
"60 185 OFFCURVE",
"268 266 OFFCURVE",
"343 286 CURVE"
);
},
{
closed = 1;
nodes = (
"242 236 OFFCURVE",
"130 173 OFFCURVE",
"130 83 CURVE SMOOTH",
"130 43 OFFCURVE",
"161 19 OFFCURVE",
"201 19 CURVE SMOOTH",
"258 19 OFFCURVE",
"333 93 OFFCURVE",
"333 150 CURVE",
"332 256 LINE"
);
}
);
width = 522;
},
{
associatedMasterId = "9372F035-DA38-4B54-966C-CEBA9B53DD02";
backgroundImage = {
crop = "{{1728.554, 843.606}, {223.472, 368.728}}";
imagePath = "../../../../Desktop/ANRT-Baskerwille/1878 Limprimerie Berger Levrault Notice historique/Romain/JACOB-notice-187505.jpg";
locked = "1";
transform = "{2.684, 0.07, -0.07, 2.684, -4605, -2676}";
};
guideLines = (
{
position = "{201, 19}";
}
);
layerId = "4B081716-8C65-4F88-A085-0FB86998B5EF";
name = "Oct 16 17, 13:35";
paths = (
{
closed = 1;
nodes = (
"397 332 LINE",
"397 118 LINE",
"327 118 LINE",
"327 332 LINE"
);
},
{
closed = 1;
nodes = (
"327 389 OFFCURVE",
"303 430 OFFCURVE",
"245 429 CURVE",
"245 454 LINE",
"354 454 OFFCURVE",
"397 404 OFFCURVE",
"397 331 CURVE",
"327 326 LINE"
);
},
{
closed = 1;
nodes = (
"206 429 OFFCURVE",
"157 415 OFFCURVE",
"153 401 CURVE SMOOTH",
"148 386 OFFCURVE",
"161 383 OFFCURVE",
"161 359 CURVE SMOOTH",
"161 334 OFFCURVE",
"142 310 OFFCURVE",
"117 310 CURVE SMOOTH",
"93 310 OFFCURVE",
"73 328 OFFCURVE",
"73 351 CURVE SMOOTH",
"73 425 OFFCURVE",
"172 454 OFFCURVE",
"247 454 CURVE",
"247 429 LINE"
);
},
{
closed = 1;
nodes = (
"338 -14 OFFCURVE",
"327 51 OFFCURVE",
"327 118 CURVE",
"397 118 LINE",
"397 82 OFFCURVE",
"403 21 OFFCURVE",
"433 21 CURVE SMOOTH",
"448 21 OFFCURVE",
"458 36 OFFCURVE",
"463 53 CURVE",
"482 48 LINE",
"477 9 OFFCURVE",
"440 -14 OFFCURVE",
"403 -14 CURVE SMOOTH"
);
},
{
closed = 1;
nodes = (
"341 135 LINE",
"341 53 OFFCURVE",
"251 -14 OFFCURVE",
"171 -14 CURVE SMOOTH",
"105 -14 OFFCURVE",
"57 16 OFFCURVE",
"57 83 CURVE SMOOTH",
"57 185 OFFCURVE",
"267 266 OFFCURVE",
"343 286 CURVE"
);
},
{
closed = 1;
nodes = (
"244 236 OFFCURVE",
"135 173 OFFCURVE",
"135 83 CURVE SMOOTH",
"135 41 OFFCURVE",
"164 15 OFFCURVE",
"201 15 CURVE SMOOTH",
"258 15 OFFCURVE",
"333 91 OFFCURVE",
"333 150 CURVE",
"332 256 LINE"
);
}
);
width = 522;
}
);
unicode = 0061;
},
{
glyphname = b;
lastChange = "2017-10-17 13:19:53 +0000";
layers = (
{
background = {
hints = (
{
origin = "{0, 0}";
type = Corner;
name = "_corner-bdc";
options = 1;
},
{
origin = "{0, 1}";
scale = "{-1, 1}";
type = Corner;
name = "_corner-bdc";
options = 1;
}
);
paths = (
{
closed = 1;
nodes = (
"93 720 LINE",
"163 720 LINE",
"163 50 LINE",
"93 -14 LINE"
);
}
);
};
backgroundImage = {
crop = "{{1332.067, 1211.626}, {227.964, 376.14}}";
imagePath = "../../../../Desktop/ANRT-Baskerwille/1878 Limprimerie Berger Levrault Notice historique/Romain/JACOB-notice-187508.jpg";
locked = "1";
transform = "{2.632, 0, 0, 2.632, -3512, -3469}";
};
components = (
{
name = "_part-bdc";
transform = "{1, 0, 0, 1, -25, 270}";
}
);
layerId = "9372F035-DA38-4B54-966C-CEBA9B53DD02";
paths = (
{
closed = 1;
nodes = (
"163 644 LINE",
"163 50 LINE",
"93 -14 LINE",
"93 644 LINE"
);
},
{
closed = 1;
nodes = (
"425 220 LINE",
"425 339 OFFCURVE",
"381 429 OFFCURVE",
"295 429 CURVE SMOOTH",
"188 429 OFFCURVE",
"125 329 OFFCURVE",
"125 220 CURVE",
"105 220 LINE",
"105 351 OFFCURVE",
"178 454 OFFCURVE",
"295 454 CURVE SMOOTH",
"417 454 OFFCURVE",
"505 351 OFFCURVE",
"505 220 CURVE"
);
},
{
closed = 1;
nodes = (
"505 89 OFFCURVE",
"417 -14 OFFCURVE",
"295 -14 CURVE SMOOTH",
"178 -14 OFFCURVE",
"105 89 OFFCURVE",
"105 220 CURVE",
"125 220 LINE",
"125 114 OFFCURVE",
"188 16 OFFCURVE",
"295 16 CURVE SMOOTH",
"381 16 OFFCURVE",
"425 104 OFFCURVE",
"425 220 CURVE",
"505 220 LINE"
);
}
);
width = 545;
},
{
associatedMasterId = "9372F035-DA38-4B54-966C-CEBA9B53DD02";
backgroundImage = {
crop = "{{1332.067, 1211.626}, {227.964, 376.14}}";
imagePath = "../../../../alexisfaudot/Desktop/ANRT-Baskerwille/1878 Limprimerie Berger Levrault Notice historique/Romain/JACOB-notice-187508.jpg";
locked = "1";
transform = "{2.632, 0, 0, 2.632, -3506, -3469}";
};
components = (
{
name = "_part-bdc";
transform = "{1, 0, 0, 1, -19, 270}";
}
);
layerId = "F6DF5954-FAB0-4A22-888F-81F7B36FE339";
name = "Oct 13 17, 17:11";
paths = (
{
closed = 1;
nodes = (
"169 614 LINE",
"169 70 LINE",
"99 0 LINE",
"99 614 LINE"
);
},
{
closed = 1;
nodes = (
"190 -10 OFFCURVE",
"111 92 OFFCURVE",
"111 220 CURVE SMOOTH",
"111 349 OFFCURVE",
"194 450 OFFCURVE",
"301 450 CURVE SMOOTH",
"423 450 OFFCURVE",
"511 349 OFFCURVE",
"511 220 CURVE SMOOTH",
"511 92 OFFCURVE",
"409 -10 OFFCURVE",
"291 -10 CURVE SMOOTH"
);
},
{
closed = 1;
nodes = (
"385 15 OFFCURVE",
"431 104 OFFCURVE",
"431 220 CURVE SMOOTH",
"431 337 OFFCURVE",
"387 425 OFFCURVE",
"301 425 CURVE SMOOTH",
"194 425 OFFCURVE",
"131 337 OFFCURVE",
"131 220 CURVE SMOOTH",
"131 104 OFFCURVE",
"190 15 OFFCURVE",
"291 15 CURVE SMOOTH"
);
}
);
width = 530;
}
);
rightMetricsKey = o;
unicode = 0062;
},
{
glyphname = c;
lastChange = "2017-10-17 15:33:47 +0000";
layers = (
{
background = {
paths = (
{
closed = 0;
nodes = (
"343 429 LINE SMOOTH",
"401 429 OFFCURVE",
"416 394 OFFCURVE",
"416 369 CURVE SMOOTH",
"416 338 OFFCURVE",
"396 316 OFFCURVE",
"369 316 CURVE SMOOTH",
"337 316 OFFCURVE",
"320 343 OFFCURVE",
"320 360 CURVE SMOOTH",
"320 376 OFFCURVE",
"325 384 OFFCURVE",
"323 391 CURVE SMOOTH",
"321 399 OFFCURVE",
"308 398 OFFCURVE",
"302 397 CURVE SMOOTH"
);
}
);
};
backgroundImage = {
crop = "{{1215.805, 1401.216}, {227.964, 376.14}}";
imagePath = "../../../../Desktop/ANRT-Baskerwille/1878 Limprimerie Berger Levrault Notice historique/Romain/JACOB-notice-187516.jpg";
locked = "1";
transform = "{2.632, 0, 0, 2.632, -3281, -3968}";
};
layerId = "9372F035-DA38-4B54-966C-CEBA9B53DD02";
paths = (
{
closed = 1;
nodes = (
"35 80 OFFCURVE",
"125 -14 OFFCURVE",
"265 -14 CURVE SMOOTH",
"345 -14 OFFCURVE",
"420 40 OFFCURVE",
"420 114 CURVE",
"395 119 LINE",
"395 49 OFFCURVE",
"335 16 OFFCURVE",
"265 16 CURVE SMOOTH",
"158 16 OFFCURVE",
"115 105 OFFCURVE",
"115 220 CURVE SMOOTH",
"115 339 OFFCURVE",
"152 429 OFFCURVE",
"275 429 CURVE SMOOTH",
"300 429 OFFCURVE",
"340 425 OFFCURVE",
"340 405 CURVE SMOOTH",
"340 394 OFFCURVE",
"331 386 OFFCURVE",
"331 366 CURVE SMOOTH",
"331 341 OFFCURVE",
"350 320 OFFCURVE",
"375 320 CURVE SMOOTH",
"402 320 OFFCURVE",
"424 338 OFFCURVE",
"424 369 CURVE SMOOTH",
"424 422 OFFCURVE",
"338 454 OFFCURVE",
"275 454 CURVE SMOOTH",
"134 454 OFFCURVE",
"35 351 OFFCURVE",
"35 220 CURVE SMOOTH"
);
}
);
width = 444;
},
{
associatedMasterId = "9372F035-DA38-4B54-966C-CEBA9B53DD02";
background = {
paths = (
{
closed = 0;
nodes = (
"324 429 LINE SMOOTH",
"382 429 OFFCURVE",
"397 394 OFFCURVE",
"397 369 CURVE SMOOTH",
"397 338 OFFCURVE",
"377 316 OFFCURVE",
"350 316 CURVE SMOOTH",
"318 316 OFFCURVE",
"301 343 OFFCURVE",
"301 360 CURVE SMOOTH",
"301 376 OFFCURVE",
"306 384 OFFCURVE",
"304 391 CURVE SMOOTH",
"302 399 OFFCURVE",
"289 398 OFFCURVE",
"283 397 CURVE SMOOTH"
);
}
);
};
backgroundImage = {
crop = "{{1215.805, 1401.216}, {227.964, 376.14}}";
imagePath = "../../../../alexisfaudot/Desktop/ANRT-Baskerwille/1878 Limprimerie Berger Levrault Notice historique/Romain/JACOB-notice-187516.jpg";
locked = "1";
transform = "{2.632, 0, 0, 2.632, -3300, -3968}";
};
layerId = "BDC9814F-CB60-465B-9AF9-21221BF16C30";
name = "Oct 13 17, 17:13";
paths = (
{
closed = 1;
nodes = (
"36 92 OFFCURVE",
"132 -10 OFFCURVE",
"256 -10 CURVE SMOOTH",
"346 -10 OFFCURVE",
"421 43 OFFCURVE",
"421 133 CURVE",
"396 133 LINE",
"396 53 OFFCURVE",
"336 15 OFFCURVE",
"256 15 CURVE SMOOTH",
"156 15 OFFCURVE",
"116 104 OFFCURVE",
"116 220 CURVE SMOOTH",
"116 337 OFFCURVE",
"155 425 OFFCURVE",
"256 425 CURVE SMOOTH",
"284 425 OFFCURVE",
"306 419 OFFCURVE",
"310 407 CURVE SMOOTH",
"315 392 OFFCURVE",
"302 389 OFFCURVE",
"302 365 CURVE SMOOTH",
"302 340 OFFCURVE",
"321 316 OFFCURVE",
"346 316 CURVE SMOOTH",
"373 316 OFFCURVE",
"395 334 OFFCURVE",
"395 365 CURVE SMOOTH",
"395 418 OFFCURVE",
"319 450 OFFCURVE",
"256 450 CURVE SMOOTH",
"132 450 OFFCURVE",
"36 349 OFFCURVE",
"36 220 CURVE SMOOTH"
);
}
);
width = 425;
},
{
associatedMasterId = "9372F035-DA38-4B54-966C-CEBA9B53DD02";
background = {
paths = (
{
closed = 0;
nodes = (
"324 429 LINE SMOOTH",
"382 429 OFFCURVE",
"397 394 OFFCURVE",
"397 369 CURVE SMOOTH",
"397 338 OFFCURVE",
"377 316 OFFCURVE",
"350 316 CURVE SMOOTH",
"318 316 OFFCURVE",
"301 343 OFFCURVE",
"301 360 CURVE SMOOTH",
"301 376 OFFCURVE",
"306 384 OFFCURVE",
"304 391 CURVE SMOOTH",
"302 399 OFFCURVE",
"289 398 OFFCURVE",
"283 397 CURVE SMOOTH"
);
}
);
};
backgroundImage = {
crop = "{{1215.805, 1401.216}, {227.964, 376.14}}";
imagePath = "../../../../alexisfaudot/Desktop/ANRT-Baskerwille/1878 Limprimerie Berger Levrault Notice historique/Romain/JACOB-notice-187516.jpg";
locked = "1";
transform = "{2.632, 0, 0, 2.632, -3300, -3968}";
};
layerId = "2DEB8ACD-82B8-4582-940C-CE874F0AA4A4";
name = "Oct 16 17, 09:14";
paths = (
{
closed = 1;
nodes = (
"26 82 OFFCURVE",
"108 -10 OFFCURVE",
"236 -10 CURVE SMOOTH",
"326 -10 OFFCURVE",
"401 44 OFFCURVE",
"401 118 CURVE",
"376 123 LINE",
"376 50 OFFCURVE",
"316 15 OFFCURVE",
"236 15 CURVE SMOOTH",
"143 15 OFFCURVE",
"106 104 OFFCURVE",
"106 220 CURVE SMOOTH",
"106 337 OFFCURVE",
"148 425 OFFCURVE",
"256 425 CURVE SMOOTH",
"284 425 OFFCURVE",
"306 419 OFFCURVE",
"310 407 CURVE SMOOTH",
"315 392 OFFCURVE",
"302 389 OFFCURVE",
"302 365 CURVE SMOOTH",
"302 340 OFFCURVE",
"321 316 OFFCURVE",
"346 316 CURVE SMOOTH",
"373 316 OFFCURVE",
"395 334 OFFCURVE",
"395 365 CURVE SMOOTH",
"395 418 OFFCURVE",
"319 450 OFFCURVE",
"256 450 CURVE SMOOTH",
"126 450 OFFCURVE",
"26 349 OFFCURVE",
"26 220 CURVE SMOOTH"
);
}
);
width = 425;
}
);
leftMetricsKey = o;
unicode = 0063;
},
{
glyphname = ccedilla;
lastChange = "2017-10-17 16:01:47 +0000";
layers = (
{
backgroundImage = {
crop = "{{1405.864, 782.226}, {225.706, 372.416}}";
imagePath = "/Users/alexisfaudot/Desktop/ANRT-Baskerwille/1878 Limprimerie Berger Levrault Notice historique/Romain/JACOB-notice-187543.jpg";
locked = "1";
transform = "{2.57, 0.225, -0.225, 2.57, -3425, -2620}";
};
layerId = "9372F035-DA38-4B54-966C-CEBA9B53DD02";
paths = (
{
closed = 1;
nodes = (
"35 80 OFFCURVE",
"125 -14 OFFCURVE",
"265 -14 CURVE SMOOTH",
"345 -14 OFFCURVE",
"420 40 OFFCURVE",
"420 114 CURVE",
"395 119 LINE",
"395 49 OFFCURVE",
"335 16 OFFCURVE",
"265 16 CURVE SMOOTH",
"158 16 OFFCURVE",
"115 105 OFFCURVE",
"115 220 CURVE SMOOTH",
"115 339 OFFCURVE",
"152 429 OFFCURVE",
"275 429 CURVE SMOOTH",
"300 429 OFFCURVE",
"340 425 OFFCURVE",
"340 405 CURVE SMOOTH",
"340 394 OFFCURVE",
"331 386 OFFCURVE",
"331 366 CURVE SMOOTH",
"331 341 OFFCURVE",
"350 320 OFFCURVE",
"375 320 CURVE SMOOTH",
"402 320 OFFCURVE",
"424 338 OFFCURVE",
"424 369 CURVE SMOOTH",
"424 422 OFFCURVE",
"338 454 OFFCURVE",
"275 454 CURVE SMOOTH",
"134 454 OFFCURVE",
"35 351 OFFCURVE",
"35 220 CURVE SMOOTH"
);
},
{
closed = 1;
nodes = (
"250 -55 LINE",
"280 -55 LINE",
"280 -4 LINE",
"250 -4 LINE"
);
},
{
closed = 1;
nodes = (
"170 -196 OFFCURVE",
"204 -227 OFFCURVE",
"259 -227 CURVE SMOOTH",
"311 -227 OFFCURVE",
"355 -192 OFFCURVE",
"355 -133 CURVE SMOOTH",
"355 -83 OFFCURVE",
"324 -35 OFFCURVE",
"259 -35 CURVE SMOOTH",
"222 -35 OFFCURVE",
"192 -58 OFFCURVE",
"177 -86 CURVE",
"201 -96 LINE",
"212 -71 OFFCURVE",
"233 -59 OFFCURVE",
"259 -59 CURVE SMOOTH",
"307 -59 OFFCURVE",
"325 -91 OFFCURVE",
"325 -134 CURVE SMOOTH",
"325 -171 OFFCURVE",
"302 -202 OFFCURVE",
"259 -202 CURVE SMOOTH",
"222 -202 OFFCURVE",
"200 -183 OFFCURVE",
"195 -151 CURVE",
"165 -151 LINE"
);
}
);
width = 444;
},
{
associatedMasterId = "9372F035-DA38-4B54-966C-CEBA9B53DD02";
backgroundImage = {
crop = "{{1405.864, 782.226}, {225.706, 372.416}}";
imagePath = "/Users/alexisfaudot/Desktop/ANRT-Baskerwille/1878 Limprimerie Berger Levrault Notice historique/Romain/JACOB-notice-187543.jpg";
locked = "1";
transform = "{2.57, 0.225, -0.225, 2.57, -3355, -2620}";
};
layerId = "7C44487E-1DAA-4451-985B-85D3C0E82622";
name = "Oct 17 17, 14:53";
paths = (
{
closed = 1;
nodes = (
"105 80 OFFCURVE",
"195 -14 OFFCURVE",
"335 -14 CURVE SMOOTH",
"415 -14 OFFCURVE",
"490 40 OFFCURVE",
"490 114 CURVE",
"465 119 LINE",
"465 49 OFFCURVE",
"405 16 OFFCURVE",
"335 16 CURVE SMOOTH",
"228 16 OFFCURVE",
"185 105 OFFCURVE",
"185 220 CURVE SMOOTH",
"185 339 OFFCURVE",
"222 429 OFFCURVE",
"345 429 CURVE SMOOTH",
"370 429 OFFCURVE",
"410 425 OFFCURVE",
"410 405 CURVE SMOOTH",
"410 394 OFFCURVE",
"401 386 OFFCURVE",
"401 366 CURVE SMOOTH",
"401 341 OFFCURVE",
"420 320 OFFCURVE",
"445 320 CURVE SMOOTH",
"472 320 OFFCURVE",
"494 338 OFFCURVE",
"494 369 CURVE SMOOTH",
"494 422 OFFCURVE",
"408 454 OFFCURVE",
"345 454 CURVE SMOOTH",
"204 454 OFFCURVE",
"105 351 OFFCURVE",
"105 220 CURVE SMOOTH"
);
},
{
closed = 1;
nodes = (
"298 -43 LINE",
"328 -43 LINE",
"328 0 LINE",
"298 0 LINE"
);
},
{
closed = 1;
nodes = (
"214 -146 LINE",
"214 -185 OFFCURVE",
"241 -223 OFFCURVE",
"300 -223 CURVE SMOOTH",
"350 -223 OFFCURVE",
"387 -180 OFFCURVE",
"387 -126 CURVE SMOOTH",
"387 -72 OFFCURVE",
"350 -29 OFFCURVE",
"300 -29 CURVE SMOOTH",
"262 -29 OFFCURVE",
"215 -50 OFFCURVE",
"215 -87 CURVE",
"235 -95 LINE",
"235 -62 OFFCURVE",
"264 -49 OFFCURVE",
"298 -49 CURVE SMOOTH",
"338 -49 OFFCURVE",
"360 -83 OFFCURVE",
"360 -124 CURVE SMOOTH",
"360 -165 OFFCURVE",
"348 -203 OFFCURVE",
"298 -203 CURVE SMOOTH",
"263 -203 OFFCURVE",
"237 -177 OFFCURVE",
"237 -142 CURVE"
);
}
);
width = 600;
},
{
associatedMasterId = "9372F035-DA38-4B54-966C-CEBA9B53DD02";
backgroundImage = {
crop = "{{1405.864, 782.226}, {225.706, 372.416}}";
imagePath = "/Users/alexisfaudot/Desktop/ANRT-Baskerwille/1878 Limprimerie Berger Levrault Notice historique/Romain/JACOB-notice-187543.jpg";
locked = "1";
transform = "{2.57, 0.225, -0.225, 2.57, -3355, -2620}";
};
layerId = "205719C4-8824-4712-B899-B70CB0F392A4";
name = "Oct 17 17, 15:10";
paths = (
{
closed = 1;
nodes = (
"105 80 OFFCURVE",
"195 -14 OFFCURVE",
"335 -14 CURVE SMOOTH",
"415 -14 OFFCURVE",
"490 40 OFFCURVE",
"490 114 CURVE",
"465 119 LINE",
"465 49 OFFCURVE",
"405 16 OFFCURVE",
"335 16 CURVE SMOOTH",
"228 16 OFFCURVE",
"185 105 OFFCURVE",
"185 220 CURVE SMOOTH",
"185 339 OFFCURVE",
"222 429 OFFCURVE",
"345 429 CURVE SMOOTH",
"370 429 OFFCURVE",
"410 425 OFFCURVE",
"410 405 CURVE SMOOTH",
"410 394 OFFCURVE",
"401 386 OFFCURVE",
"401 366 CURVE SMOOTH",
"401 341 OFFCURVE",
"420 320 OFFCURVE",
"445 320 CURVE SMOOTH",
"472 320 OFFCURVE",
"494 338 OFFCURVE",
"494 369 CURVE SMOOTH",
"494 422 OFFCURVE",
"408 454 OFFCURVE",
"345 454 CURVE SMOOTH",
"204 454 OFFCURVE",
"105 351 OFFCURVE",
"105 220 CURVE SMOOTH"
);
},
{
closed = 1;
nodes = (
"295 -57 LINE",
"325 -57 LINE",
"325 -4 LINE",
"295 -4 LINE"
);
},
{
closed = 1;
nodes = (
"211 -147 LINE",
"211 -186 OFFCURVE",
"243 -225 OFFCURVE",
"301 -225 CURVE SMOOTH",
"353 -225 OFFCURVE",
"394 -187 OFFCURVE",
"394 -128 CURVE SMOOTH",
"394 -76 OFFCURVE",
"356 -39 OFFCURVE",
"301 -39 CURVE SMOOTH",
"254 -39 OFFCURVE",
"224 -60 OFFCURVE",
"216 -84 CURVE",
"239 -89 LINE",
"247 -68 OFFCURVE",
"268 -59 OFFCURVE",
"301 -59 CURVE SMOOTH",
"341 -59 OFFCURVE",
"367 -90 OFFCURVE",
"367 -126 CURVE SMOOTH",
"367 -166 OFFCURVE",
"341 -197 OFFCURVE",
"301 -197 CURVE SMOOTH",
"261 -197 OFFCURVE",
"234 -180 OFFCURVE",
"234 -143 CURVE"
);
}
);
width = 600;
},
{
associatedMasterId = "9372F035-DA38-4B54-966C-CEBA9B53DD02";
backgroundImage = {
crop = "{{1405.864, 782.226}, {225.706, 372.416}}";
imagePath = "/Users/alexisfaudot/Desktop/ANRT-Baskerwille/1878 Limprimerie Berger Levrault Notice historique/Romain/JACOB-notice-187543.jpg";
locked = "1";
transform = "{2.57, 0.225, -0.225, 2.57, -3425, -2620}";
};
layerId = "CC65C902-495A-41CF-9A29-A6E2EF51C0AC";
name = "Oct 17 17, 17:57";
paths = (
{
closed = 1;
nodes = (
"35 80 OFFCURVE",
"125 -14 OFFCURVE",
"265 -14 CURVE SMOOTH",
"345 -14 OFFCURVE",
"420 40 OFFCURVE",
"420 114 CURVE",
"395 119 LINE",
"395 49 OFFCURVE",
"335 16 OFFCURVE",
"265 16 CURVE SMOOTH",
"158 16 OFFCURVE",
"115 105 OFFCURVE",
"115 220 CURVE SMOOTH",
"115 339 OFFCURVE",
"152 429 OFFCURVE",
"275 429 CURVE SMOOTH",
"300 429 OFFCURVE",
"340 425 OFFCURVE",
"340 405 CURVE SMOOTH",
"340 394 OFFCURVE",
"331 386 OFFCURVE",
"331 366 CURVE SMOOTH",
"331 341 OFFCURVE",
"350 320 OFFCURVE",
"375 320 CURVE SMOOTH",
"402 320 OFFCURVE",
"424 338 OFFCURVE",
"424 369 CURVE SMOOTH",
"424 422 OFFCURVE",
"338 454 OFFCURVE",
"275 454 CURVE SMOOTH",
"134 454 OFFCURVE",
"35 351 OFFCURVE",
"35 220 CURVE SMOOTH"
);
},
{
closed = 1;
nodes = (
"225 -57 LINE",
"255 -57 LINE",
"255 -4 LINE",
"225 -4 LINE"
);
},
{
closed = 1;
nodes = (
"151 -196 OFFCURVE",
"186 -220 OFFCURVE",
"231 -220 CURVE SMOOTH",
"283 -220 OFFCURVE",
"323 -187 OFFCURVE",
"323 -128 CURVE SMOOTH",
"323 -78 OFFCURVE",
"296 -40 OFFCURVE",
"231 -39 CURVE SMOOTH",
"200 -39 OFFCURVE",
"168 -54 OFFCURVE",
"152 -79 CURVE",
"171 -89 LINE",
"182 -70 OFFCURVE",
"205 -59 OFFCURVE",
"231 -59 CURVE SMOOTH",
"279 -59 OFFCURVE",
"298 -86 OFFCURVE",
"298 -129 CURVE SMOOTH",
"298 -168 OFFCURVE",
"271 -190 OFFCURVE",
"231 -190 CURVE SMOOTH",
"194 -190 OFFCURVE",
"178 -168 OFFCURVE",
"173 -144 CURVE",
"140 -144 LINE"
);
}
);
width = 444;
}
);
leftMetricsKey = c;
rightMetricsKey = c;
unicode = 00E7;
},
{
glyphname = d;
lastChange = "2017-10-17 15:46:38 +0000";
layers = (
{
backgroundImage = {
crop = "{{1402.736, 1777.356}, {227.964, 376.14}}";
imagePath = "../../../../Desktop/ANRT-Baskerwille/1878 Limprimerie Berger Levrault Notice historique/Romain/IMG_3190.JPG";
locked = "1";
transform = "{2.632, 0, 0, 2.632, -3681, -4958}";
};
components = (
{
name = "_part-bdc";
transform = "{1, 0, 0, 1, 264, 269}";
}
);
layerId = "9372F035-DA38-4B54-966C-CEBA9B53DD02";
paths = (
{
closed = 1;
nodes = (
"452 634 LINE",
"452 70 LINE",
"382 70 LINE",
"382 634 LINE"
);
},
{
closed = 1;
nodes = (
"40 351 OFFCURVE",
"128 454 OFFCURVE",
"250 454 CURVE SMOOTH",
"367 454 OFFCURVE",
"440 351 OFFCURVE",
"440 220 CURVE",
"420 220 LINE",
"420 329 OFFCURVE",
"357 429 OFFCURVE",
"250 429 CURVE SMOOTH",
"164 429 OFFCURVE",
"120 339 OFFCURVE",
"120 220 CURVE",
"40 220 LINE"
);
},
{
closed = 1;
nodes = (
"120 220 LINE",
"120 104 OFFCURVE",
"164 16 OFFCURVE",
"250 16 CURVE SMOOTH",
"357 16 OFFCURVE",
"420 114 OFFCURVE",
"420 220 CURVE",
"440 220 LINE",
"440 89 OFFCURVE",
"367 -14 OFFCURVE",
"250 -14 CURVE SMOOTH",
"128 -14 OFFCURVE",
"40 89 OFFCURVE",
"40 220 CURVE"
);
},
{
closed = 1;
nodes = (
"452 112 LINE",
"452 50 OFFCURVE",
"476 44 OFFCURVE",
"540 44 CURVE",
"540 21 LINE",
"485 21 OFFCURVE",
"437 10 OFFCURVE",
"382 -4 CURVE",
"382 97 LINE"
);
}
);
width = 550;
}
);
leftMetricsKey = o;
rightMetricsKey = n;
unicode = 0064;
},
{
glyphname = e;
lastChange = "2017-10-17 15:46:19 +0000";
layers = (
{
background = {
paths = (
{
closed = 1;
nodes = (
"383 248 LINE",
"462 248 LINE"
);
},
{
closed = 1;
nodes = (
"462 248 LINE",
"462 363 OFFCURVE",
"363 450 OFFCURVE",
"254 450 CURVE SMOOTH",
"136 450 OFFCURVE",
"44 349 OFFCURVE",
"44 220 CURVE SMOOTH",
"44 92 OFFCURVE",
"136 -10 OFFCURVE",
"254 -10 CURVE SMOOTH",
"352 -10 OFFCURVE",
"435 63 OFFCURVE",
"457 163 CURVE",
"421 163 LINE",
"407 76 OFFCURVE",
"355 15 OFFCURVE",
"254 15 CURVE SMOOTH",
"161 15 OFFCURVE",
"124 104 OFFCURVE",
"124 220 CURVE SMOOTH",
"124 337 OFFCURVE",
"160 425 OFFCURVE",
"254 425 CURVE SMOOTH",
"340 425 OFFCURVE",
"383 351 OFFCURVE",
"383 248 CURVE"
);
}
);
};
backgroundImage = {
crop = "{{1705.927, 839.286}, {189.97, 376.14}}";
imagePath = "../../../../Desktop/ANRT-Baskerwille/1878 Limprimerie Berger Levrault Notice historique/Romain/JACOB-notice-187519.jpg";
locked = "1";
transform = "{2.632, 0, 0, 2.632, -4466, -2489}";
};
guideLines = (
{
angle = 90;
position = "{264, 425}";
}
);
layerId = "9372F035-DA38-4B54-966C-CEBA9B53DD02";
paths = (
{
closed = 1;
nodes = (
"270 429 LINE",
"317 429 OFFCURVE",
"366 400 OFFCURVE",
"366 343 CURVE SMOOTH",
"366 305 OFFCURVE",
"349 268 OFFCURVE",
"251 268 CURVE SMOOTH",
"108 268 LINE",
"108 248 LINE",
"432 248 LINE",
"432 373 OFFCURVE",
"377 454 OFFCURVE",
"270 454 CURVE"
);
},
{
closed = 1;
nodes = (
"270 454 LINE",
"141 454 OFFCURVE",
"40 351 OFFCURVE",
"40 220 CURVE SMOOTH",
"40 80 OFFCURVE",
"126 -14 OFFCURVE",
"260 -14 CURVE SMOOTH",
"350 -14 OFFCURVE",
"415 42 OFFCURVE",
"425 118 CURVE",
"400 123 LINE",
"390 52 OFFCURVE",
"340 19 OFFCURVE",
"260 19 CURVE SMOOTH",
"160 19 OFFCURVE",
"120 107 OFFCURVE",
"120 220 CURVE SMOOTH",
"120 339 OFFCURVE",
"162 429 OFFCURVE",
"270 429 CURVE"
);
}
);
width = 472;
},
{
associatedMasterId = "9372F035-DA38-4B54-966C-CEBA9B53DD02";
backgroundImage = {
crop = "{{1674.772, 839.286}, {227.964, 376.14}}";
imagePath = "../../../../alexisfaudot/Desktop/ANRT-Baskerwille/1878 Limprimerie Berger Levrault Notice historique/Romain/JACOB-notice-187519.jpg";
locked = "1";
transform = "{2.632, 0, 0, 2.632, -4408, -2489}";
};
layerId = "F0F75787-A321-4835-A93A-BC1638C5FE3A";
name = "Oct 13 17, 11:51";
width = 600;
},
{
associatedMasterId = "9372F035-DA38-4B54-966C-CEBA9B53DD02";
background = {
paths = (
{
closed = 1;
nodes = (
"359 248 LINE",
"438 248 LINE"
);
},
{
closed = 1;
nodes = (
"438 248 LINE",
"438 363 OFFCURVE",
"339 450 OFFCURVE",
"230 450 CURVE SMOOTH",
"112 450 OFFCURVE",
"20 349 OFFCURVE",
"20 220 CURVE SMOOTH",
"20 92 OFFCURVE",
"112 -10 OFFCURVE",
"230 -10 CURVE SMOOTH",
"328 -10 OFFCURVE",
"411 63 OFFCURVE",
"433 163 CURVE",
"397 163 LINE",
"383 76 OFFCURVE",
"331 15 OFFCURVE",
"230 15 CURVE SMOOTH",
"137 15 OFFCURVE",
"100 104 OFFCURVE",
"100 220 CURVE SMOOTH",
"100 337 OFFCURVE",
"136 425 OFFCURVE",
"230 425 CURVE SMOOTH",
"316 425 OFFCURVE",
"359 351 OFFCURVE",
"359 248 CURVE"
);
}
);
};
backgroundImage = {
crop = "{{1705.927, 839.286}, {189.97, 376.14}}";
imagePath = "../../../../alexisfaudot/Desktop/ANRT-Baskerwille/1878 Limprimerie Berger Levrault Notice historique/Romain/JACOB-notice-187519.jpg";
locked = "1";
transform = "{2.632, 0, 0, 2.632, -4490, -2489}";
};
guideLines = (
{
angle = 90;
position = "{240, 425}";
}
);
layerId = "DA30BAEC-FD5A-4992-B4B1-1450C9C34AD5";
name = "Oct 13 17, 14:08";
paths = (
{
closed = 1;
nodes = (
"408 248 LINE",
"408 371 OFFCURVE",
"356 450 OFFCURVE",
"240 450 CURVE SMOOTH",
"116 450 OFFCURVE",
"20 349 OFFCURVE",
"20 220 CURVE SMOOTH",
"20 92 OFFCURVE",
"116 -10 OFFCURVE",
"240 -10 CURVE SMOOTH",
"320 -10 OFFCURVE",
"405 53 OFFCURVE",
"405 133 CURVE",
"380 133 LINE",
"380 63 OFFCURVE",
"310 15 OFFCURVE",
"240 15 CURVE SMOOTH",
"140 15 OFFCURVE",
"100 104 OFFCURVE",
"100 220 CURVE SMOOTH",
"100 337 OFFCURVE",
"139 425 OFFCURVE",
"240 425 CURVE SMOOTH",
"299 425 OFFCURVE",
"346 401 OFFCURVE",
"346 336 CURVE SMOOTH",
"346 267 OFFCURVE",
"297 273 OFFCURVE",
"258 273 CURVE",
"258 248 LINE"
);
},
{
closed = 1;
nodes = (
"86 248 LINE",
"259 248 LINE",
"259 273 LINE",
"86 273 LINE"
);
}
);
width = 428;
},
{
associatedMasterId = "9372F035-DA38-4B54-966C-CEBA9B53DD02";
background = {
paths = (
{
closed = 1;
nodes = (
"359 248 LINE",
"438 248 LINE"
);
},
{
closed = 1;
nodes = (
"438 248 LINE",
"438 363 OFFCURVE",
"339 450 OFFCURVE",
"230 450 CURVE SMOOTH",
"112 450 OFFCURVE",
"20 349 OFFCURVE",
"20 220 CURVE SMOOTH",
"20 92 OFFCURVE",
"112 -10 OFFCURVE",
"230 -10 CURVE SMOOTH",
"328 -10 OFFCURVE",
"411 63 OFFCURVE",
"433 163 CURVE",
"397 163 LINE",
"383 76 OFFCURVE",
"331 15 OFFCURVE",
"230 15 CURVE SMOOTH",
"137 15 OFFCURVE",
"100 104 OFFCURVE",
"100 220 CURVE SMOOTH",
"100 337 OFFCURVE",
"136 425 OFFCURVE",
"230 425 CURVE SMOOTH",
"316 425 OFFCURVE",
"359 351 OFFCURVE",
"359 248 CURVE"
);
}
);
};
backgroundImage = {
crop = "{{1705.927, 839.286}, {189.97, 376.14}}";
imagePath = "../../../../alexisfaudot/Desktop/ANRT-Baskerwille/1878 Limprimerie Berger Levrault Notice historique/Romain/JACOB-notice-187519.jpg";
locked = "1";
transform = "{2.632, 0, 0, 2.632, -4490, -2489}";
};
guideLines = (
{
angle = 90;
position = "{240, 425}";
}
);
layerId = "8C3E5E0D-6E2E-416D-8D51-9DAB277665D3";
name = "Oct 13 17, 17:15";
paths = (
{
closed = 1;
nodes = (
"20 92 OFFCURVE",
"116 -10 OFFCURVE",
"240 -10 CURVE SMOOTH",
"320 -10 OFFCURVE",
"405 53 OFFCURVE",
"405 133 CURVE",
"380 133 LINE",
"380 63 OFFCURVE",
"310 15 OFFCURVE",
"240 15 CURVE SMOOTH",
"140 15 OFFCURVE",
"100 104 OFFCURVE",
"100 220 CURVE SMOOTH",
"100 337 OFFCURVE",
"139 425 OFFCURVE",
"240 425 CURVE SMOOTH",
"290 425 OFFCURVE",
"342 397 OFFCURVE",
"342 343 CURVE SMOOTH",
"342 305 OFFCURVE",
"325 268 OFFCURVE",
"227 268 CURVE SMOOTH",
"84 268 LINE",
"84 248 LINE",
"408 248 LINE",
"408 371 OFFCURVE",
"356 450 OFFCURVE",
"240 450 CURVE SMOOTH",
"116 450 OFFCURVE",
"20 349 OFFCURVE",
"20 220 CURVE SMOOTH"
);
}
);
width = 428;
},
{
associatedMasterId = "9372F035-DA38-4B54-966C-CEBA9B53DD02";
background = {
paths = (
{
closed = 1;
nodes = (
"359 248 LINE",
"438 248 LINE"
);
},
{
closed = 1;
nodes = (
"438 248 LINE",
"438 363 OFFCURVE",
"339 450 OFFCURVE",
"230 450 CURVE SMOOTH",
"112 450 OFFCURVE",
"20 349 OFFCURVE",
"20 220 CURVE SMOOTH",
"20 92 OFFCURVE",
"112 -10 OFFCURVE",
"230 -10 CURVE SMOOTH",
"328 -10 OFFCURVE",
"411 63 OFFCURVE",
"433 163 CURVE",
"397 163 LINE",
"383 76 OFFCURVE",
"331 15 OFFCURVE",
"230 15 CURVE SMOOTH",
"137 15 OFFCURVE",
"100 104 OFFCURVE",
"100 220 CURVE SMOOTH",
"100 337 OFFCURVE",
"136 425 OFFCURVE",
"230 425 CURVE SMOOTH",
"316 425 OFFCURVE",
"359 351 OFFCURVE",
"359 248 CURVE"
);
}
);
};
backgroundImage = {
crop = "{{1705.927, 839.286}, {189.97, 376.14}}";
imagePath = "../../../../alexisfaudot/Desktop/ANRT-Baskerwille/1878 Limprimerie Berger Levrault Notice historique/Romain/JACOB-notice-187519.jpg";
locked = "1";
transform = "{2.632, 0, 0, 2.632, -4490, -2489}";
};
guideLines = (
{
angle = 90;
position = "{240, 425}";
}
);
layerId = "67628836-69DC-4410-AD37-566BC9C1CAAE";
name = "Oct 13 17, 17:49";
paths = (
{
closed = 1;
nodes = (
"246 425 LINE",
"293 425 OFFCURVE",
"342 397 OFFCURVE",
"342 343 CURVE SMOOTH",
"342 305 OFFCURVE",
"325 268 OFFCURVE",
"227 268 CURVE SMOOTH",
"84 268 LINE",
"84 248 LINE",
"408 248 LINE",
"408 371 OFFCURVE",
"353 450 OFFCURVE",
"246 450 CURVE"
);
},
{
closed = 1;
nodes = (
"246 450 LINE",
"116 450 OFFCURVE",
"16 349 OFFCURVE",
"16 220 CURVE SMOOTH",
"16 82 OFFCURVE",
"98 -10 OFFCURVE",
"226 -10 CURVE SMOOTH",
"316 -10 OFFCURVE",
"391 44 OFFCURVE",
"401 118 CURVE",
"376 123 LINE",
"366 50 OFFCURVE",
"306 15 OFFCURVE",
"226 15 CURVE SMOOTH",
"133 15 OFFCURVE",
"96 114 OFFCURVE",
"96 220 CURVE SMOOTH",
"96 337 OFFCURVE",
"138 425 OFFCURVE",
"246 425 CURVE"
);
}
);
width = 428;
}
);
leftMetricsKey = o;
rightMetricsKey = o;
unicode = 0065;
},
{
glyphname = f;
lastChange = "2017-10-17 15:34:37 +0000";
layers = (
{
backgroundImage = {
crop = "{{1566.027, 1447.155}, {225.706, 372.416}}";
imagePath = "../../../../alexisfaudot/Desktop/ANRT-Baskerwille/1878 Limprimerie Berger Levrault Notice historique/Romain/JACOB-notice-187509.jpg";
locked = "1";
transform = "{2.712, 0, 0, 2.712, -4285, -4214}";
};
hints = (
{
origin = "{0, 1}";
type = Corner;
name = "_corner-bdc";
},
{
origin = "{0, 2}";
scale = "{-1, 1}";
type = Corner;
name = "_corner-bdc";
options = 1;
}
);
layerId = "9372F035-DA38-4B54-966C-CEBA9B53DD02";
paths = (
{
closed = 1;
nodes = (
"196 550 LINE",
"196 0 LINE",
"126 0 LINE",
"126 550 LINE"
);
},
{
closed = 1;
nodes = (
"196 550 LINE",
"196 630 OFFCURVE",
"210 699 OFFCURVE",
"286 699 CURVE SMOOTH",
"303 699 OFFCURVE",
"321 692 OFFCURVE",
"321 675 CURVE SMOOTH",
"321 664 OFFCURVE",
"312 656 OFFCURVE",
"312 636 CURVE SMOOTH",
"312 611 OFFCURVE",
"331 590 OFFCURVE",
"356 590 CURVE SMOOTH",
"383 590 OFFCURVE",
"405 608 OFFCURVE",
"405 639 CURVE SMOOTH",
"405 702 OFFCURVE",
"349 724 OFFCURVE",
"286 724 CURVE SMOOTH",
"176 724 OFFCURVE",
"126 661 OFFCURVE",
"126 550 CURVE"
);
},
{
closed = 1;
nodes = (
"299 436 LINE",
"299 416 LINE",
"30 416 LINE",
"30 436 LINE"
);
}
);
width = 345;
}
);
leftMetricsKey = n;
unicode = 0066;
},
{
glyphname = g;
lastChange = "2017-10-17 15:48:11 +0000";
layers = (
{
backgroundImage = {
crop = "{{1035.24, 777.183}, {225.706, 372.416}}";
imagePath = "../../../../alexisfaudot/Desktop/ANRT-Baskerwille/1878 Limprimerie Berger Levrault Notice historique/Romain/JACOB-notice-187501.jpg";
locked = "1";
transform = "{2.658, 0, 0, 2.658, -2765, -2346}";
};
guideLines = (
{
angle = 90;
position = "{257, 323}";
}
);
layerId = "9372F035-DA38-4B54-966C-CEBA9B53DD02";
paths = (
{
closed = 1;
nodes = (
"358 142 OFFCURVE",
"437 211 OFFCURVE",
"437 298 CURVE SMOOTH",
"437 386 OFFCURVE",
"358 454 OFFCURVE",
"257 454 CURVE SMOOTH",
"156 454 OFFCURVE",
"77 386 OFFCURVE",
"77 298 CURVE SMOOTH",
"77 211 OFFCURVE",
"156 142 OFFCURVE",
"257 142 CURVE SMOOTH"
);
},
{
closed = 1;
nodes = (
"185 167 OFFCURVE",
"157 224 OFFCURVE",
"157 298 CURVE SMOOTH",
"157 372 OFFCURVE",
"185 429 OFFCURVE",
"257 429 CURVE SMOOTH",
"329 429 OFFCURVE",
"357 372 OFFCURVE",
"357 298 CURVE SMOOTH",
"357 224 OFFCURVE",
"329 167 OFFCURVE",
"257 167 CURVE SMOOTH"
);
},
{
closed = 1;
nodes = (
"214 38 OFFCURVE",
"117 46 OFFCURVE",
"117 86 CURVE SMOOTH",
"117 126 OFFCURVE",
"187 146 OFFCURVE",
"227 146 CURVE",
"204 160 LINE",
"139 160 OFFCURVE",
"57 121 OFFCURVE",
"57 56 CURVE SMOOTH",
"57 -14 OFFCURVE",
"185 -32 OFFCURVE",
"258 -32 CURVE SMOOTH",
"348 -32 OFFCURVE",
"447 -40 OFFCURVE",
"447 -130 CURVE SMOOTH",
"447 -232 OFFCURVE",
"315 -262 OFFCURVE",
"257 -262 CURVE SMOOTH",
"177 -262 OFFCURVE",
"90 -230 OFFCURVE",
"90 -156 CURVE SMOOTH",
"90 -136 OFFCURVE",
"102 -127 OFFCURVE",
"102 -107 CURVE SMOOTH",
"102 -82 OFFCURVE",
"85 -61 OFFCURVE",
"60 -61 CURVE SMOOTH",
"33 -61 OFFCURVE",
"15 -99 OFFCURVE",
"15 -130 CURVE SMOOTH",
"15 -240 OFFCURVE",
"147 -295 OFFCURVE",
"257 -295 CURVE SMOOTH",
"377 -295 OFFCURVE",
"493 -223 OFFCURVE",
"493 -103 CURVE SMOOTH",
"493 22 OFFCURVE",
"382 38 OFFCURVE",
"257 38 CURVE SMOOTH"
);
},
{
closed = 1;
nodes = (
"370 413 OFFCURVE",
"387 429 OFFCURVE",
"412 429 CURVE SMOOTH",
"432 429 OFFCURVE",
"445 411 OFFCURVE",
"445 398 CURVE SMOOTH",
"445 382 OFFCURVE",
"458 363 OFFCURVE",
"483 363 CURVE SMOOTH",
"503 363 OFFCURVE",
"519 371 OFFCURVE",
"519 391 CURVE SMOOTH",
"519 431 OFFCURVE",
"469 454 OFFCURVE",
"429 454 CURVE SMOOTH",
"398 454 OFFCURVE",
"347 442 OFFCURVE",
"347 412 CURVE",
"370 378 LINE"
);
}
);
width = 524;
},
{
associatedMasterId = "9372F035-DA38-4B54-966C-CEBA9B53DD02";
backgroundImage = {
crop = "{{1035.24, 777.183}, {225.706, 372.416}}";
imagePath = "../../../../alexisfaudot/Desktop/ANRT-Baskerwille/1878 Limprimerie Berger Levrault Notice historique/Romain/JACOB-notice-187501.jpg";
locked = "1";
transform = "{2.658, 0, 0, 2.658, -2752, -2346}";
};
guideLines = (
{
angle = 90;
position = "{270, 323}";
}
);
layerId = "5EE76D3D-35CC-42CE-B8A0-5D86E5DCBB2B";
name = "Oct 17 17, 10:40";
paths = (
{
closed = 1;
nodes = (
"371 142 OFFCURVE",
"450 211 OFFCURVE",
"450 298 CURVE SMOOTH",
"450 386 OFFCURVE",
"371 454 OFFCURVE",
"270 454 CURVE SMOOTH",
"169 454 OFFCURVE",
"90 386 OFFCURVE",
"90 298 CURVE SMOOTH",
"90 211 OFFCURVE",
"169 142 OFFCURVE",
"270 142 CURVE SMOOTH"
);
},
{
closed = 1;
nodes = (
"198 167 OFFCURVE",
"170 224 OFFCURVE",
"170 298 CURVE SMOOTH",
"170 372 OFFCURVE",
"198 429 OFFCURVE",
"270 429 CURVE SMOOTH",
"342 429 OFFCURVE",
"370 372 OFFCURVE",
"370 298 CURVE SMOOTH",
"370 224 OFFCURVE",
"342 167 OFFCURVE",
"270 167 CURVE SMOOTH"
);
},
{
closed = 1;
nodes = (
"227 38 OFFCURVE",
"130 46 OFFCURVE",
"130 86 CURVE SMOOTH",
"130 126 OFFCURVE",
"200 146 OFFCURVE",
"240 146 CURVE",
"217 160 LINE",
"152 160 OFFCURVE",
"70 121 OFFCURVE",
"70 56 CURVE SMOOTH",
"70 -14 OFFCURVE",
"198 -32 OFFCURVE",
"271 -32 CURVE SMOOTH",
"361 -32 OFFCURVE",
"460 -40 OFFCURVE",
"460 -130 CURVE SMOOTH",
"460 -238 OFFCURVE",
"328 -270 OFFCURVE",
"270 -270 CURVE SMOOTH",
"190 -270 OFFCURVE",
"103 -236 OFFCURVE",
"103 -156 CURVE SMOOTH",
"103 -136 OFFCURVE",
"115 -127 OFFCURVE",
"115 -107 CURVE SMOOTH",
"115 -82 OFFCURVE",
"98 -61 OFFCURVE",
"73 -61 CURVE SMOOTH",
"46 -61 OFFCURVE",
"28 -99 OFFCURVE",
"28 -130 CURVE SMOOTH",
"28 -240 OFFCURVE",
"160 -295 OFFCURVE",
"270 -295 CURVE SMOOTH",
"390 -295 OFFCURVE",
"506 -223 OFFCURVE",
"506 -103 CURVE SMOOTH",
"506 22 OFFCURVE",
"395 38 OFFCURVE",
"270 38 CURVE SMOOTH"
);
},
{
closed = 1;
nodes = (
"383 413 OFFCURVE",
"400 429 OFFCURVE",
"425 429 CURVE SMOOTH",
"445 429 OFFCURVE",
"458 411 OFFCURVE",
"458 398 CURVE SMOOTH",
"458 382 OFFCURVE",
"471 363 OFFCURVE",
"496 363 CURVE SMOOTH",
"516 363 OFFCURVE",
"532 371 OFFCURVE",
"532 391 CURVE SMOOTH",
"532 431 OFFCURVE",
"482 454 OFFCURVE",
"442 454 CURVE SMOOTH",
"411 454 OFFCURVE",
"360 442 OFFCURVE",
"360 412 CURVE",
"383 378 LINE"
);
}
);
width = 600;
}
);
unicode = 0067;
},
{
glyphname = h;
lastChange = "2017-10-17 15:26:44 +0000";
layers = (
{
background = {
hints = (
{
origin = "{0, 6}";
type = Corner;
name = "_corner-bd";
},
{
origin = "{0, 7}";
type = Corner;
name = "_corner-bg";
},
{
origin = "{1, 13}";
type = Corner;
name = "_corner-bd";
},
{
origin = "{1, 14}";
type = Corner;
name = "_corner-bg";
}
);
paths = (
{
closed = 1;
nodes = (
"85 700 OFFCURVE",
"153 710 OFFCURVE",
"164 710 CURVE SMOOTH",
"176 710 OFFCURVE",
"178 698 OFFCURVE",
"178 691 CURVE",
"178 0 LINE",
"108 0 LINE",
"108 602 LINE",
"108 674 OFFCURVE",
"80 680 OFFCURVE",
"36 680 CURVE",
"36 700 LINE"
);
},
{
closed = 1;
nodes = (
"405 370 OFFCURVE",
"394 427 OFFCURVE",
"323 426 CURVE SMOOTH",
"204 424 OFFCURVE",
"164 301 OFFCURVE",
"162 258 CURVE",
"152 301 LINE",
"153 314 OFFCURVE",
"194 450 OFFCURVE",
"333 450 CURVE SMOOTH",
"435 450 OFFCURVE",
"475 402 OFFCURVE",
"475 331 CURVE SMOOTH",
"475 0 LINE",
"405 0 LINE",
"405 331 LINE SMOOTH"
);
}
);
};
backgroundImage = {
crop = "{{1463.998, 887.618}, {221.259, 365.078}}";
imagePath = "../../../../Desktop/ANRT-Baskerwille/1878 Limprimerie Berger Levrault Notice historique/Romain/JACOB-notice-187513.jpg";
locked = "1";
transform = "{2.712, 0, 0, 2.712, -3970, -2687}";
};
components = (
{
name = "_part-bdc-n";
},
{
name = "_part-bdc";
transform = "{1, 0, 0, 1, -10, 270}";
}
);
hints = (
{
origin = "{0, 2}";
scale = "{-1, 1}";
type = Corner;
name = "_corner-bdc";
options = 1;
},
{
origin = "{0, 1}";
type = Corner;
name = "_corner-bdc";
}
);
layerId = "9372F035-DA38-4B54-966C-CEBA9B53DD02";
paths = (
{
closed = 1;
nodes = (
"178 620 LINE",
"178 0 LINE",
"108 0 LINE",
"108 620 LINE"
);
}
);
width = 583;
}
);
unicode = 0068;
},
{
glyphname = i;
lastChange = "2017-10-17 15:45:09 +0000";
layers = (
{
backgroundImage = {
crop = "{{1767.123, 1057.619}, {112.842, 365.078}}";
imagePath = "../../../../Desktop/ANRT-Baskerwille/1878 Limprimerie Berger Levrault Notice historique/Romain/JACOB-notice-187510.jpg";
locked = "1";
transform = "{2.712, 0, 0, 2.712, -4792, -3148}";
};
components = (
{
name = "_part-bdc";
}
);
hints = (
{
origin = "{0, 2}";
scale = "{-1, 1}";
type = Corner;
name = "_corner-bdc";
options = 1;
},
{
origin = "{0, 1}";
type = Corner;
name = "_corner-bdc";
}
);
layerId = "9372F035-DA38-4B54-966C-CEBA9B53DD02";
paths = (
{
closed = 1;
nodes = (
"188 365 LINE",
"188 0 LINE",
"118 0 LINE",
"118 365 LINE"
);
},
{
closed = 1;
nodes = (
"176 578 OFFCURVE",
"202 604 OFFCURVE",
"202 637 CURVE SMOOTH",
"202 670 OFFCURVE",
"176 696 OFFCURVE",
"143 696 CURVE SMOOTH",
"110 696 OFFCURVE",
"84 670 OFFCURVE",
"84 637 CURVE SMOOTH",
"84 604 OFFCURVE",
"110 578 OFFCURVE",
"143 578 CURVE SMOOTH"
);
}
);
width = 301;
}
);
leftMetricsKey = n;
unicode = 0069;
},
{
glyphname = j;
lastChange = "2017-10-17 13:18:51 +0000";
layers = (
{
backgroundImage = {
crop = "{{1301.901, 1362.824}, {221.537, 365.537}}";
imagePath = "../../ANRT-Baskerwille/1878 Limprimerie Berger Levrault Notice historique/Romain/JACOB-notice-187520.jpg";
locked = "1";
transform = "{2.748, 0.048, -0.048, 2.748, -3730, -4102}";
};
components = (
{
name = _part;
transform = "{1, 0, 0, 1, -15, 6}";
}
);
layerId = "9372F035-DA38-4B54-966C-CEBA9B53DD02";
paths = (
{
closed = 1;
nodes = (
"173 365 LINE",
"173 -147 LINE SMOOTH",
"173 -234 OFFCURVE",
"106 -294 OFFCURVE",
"8 -294 CURVE SMOOTH",
"-40 -294 OFFCURVE",
"-70 -273 OFFCURVE",
"-70 -227 CURVE SMOOTH",
"-70 -192 OFFCURVE",
"-49 -167 OFFCURVE",
"-15 -167 CURVE SMOOTH",
"15 -167 OFFCURVE",
"33 -194 OFFCURVE",
"33 -217 CURVE SMOOTH",
"33 -245 OFFCURVE",
"19 -273 OFFCURVE",
"35 -273 CURVE SMOOTH",
"86 -273 OFFCURVE",
"103 -205 OFFCURVE",
"103 -152 CURVE SMOOTH",
"103 365 LINE"
);
},
{
closed = 1;
nodes = (
"165 577 OFFCURVE",
"191 603 OFFCURVE",
"191 637 CURVE SMOOTH",
"191 671 OFFCURVE",
"165 697 OFFCURVE",
"131 697 CURVE SMOOTH",
"99 697 OFFCURVE",
"71 671 OFFCURVE",
"71 637 CURVE SMOOTH",
"71 603 OFFCURVE",
"97 577 OFFCURVE",
"131 577 CURVE SMOOTH"
);
}
);
width = 251;
}
);
unicode = 006A;
},
{
glyphname = k;
lastChange = "2017-10-17 15:49:51 +0000";
layers = (
{
backgroundImage = {
crop = "{{1067.831, 1156.441}, {193.331, 318.996}}";
imagePath = "../../ANRT-Baskerwille/1878 Limprimerie Berger Levrault Notice historique/Romain/JACOB-notice-187536.jpg";
locked = "1";
transform = "{3.103, 0, 0, 3.103, -3367, -3869}";
};
components = (
{
name = "_part-bdc";
transform = "{1, 0, 0, 1, -10, 270}";
}
);
hints = (
{
origin = "{0, 1}";
type = Corner;
name = "_corner-bdc";
},
{
origin = "{0, 2}";
scale = "{-1, 1}";
type = Corner;
name = "_corner-bdc";
options = 1;
}
);
layerId = "9372F035-DA38-4B54-966C-CEBA9B53DD02";
paths = (
{
closed = 1;
nodes = (
"178 644 LINE",
"178 0 LINE",
"108 0 LINE",
"108 644 LINE"
);
},
{
closed = 1;
nodes = (
"157 111 LINE",
"130 111 LINE",
"336 416 LINE",
"367 416 LINE"
);
},
{
closed = 1;
nodes = (
"307 378 OFFCURVE",
"336 407 OFFCURVE",
"285 413 CURVE SMOOTH",
"269 415 LINE",
"269 438 LINE",
"365 436 LINE",
"449 438 LINE",
"449 415 LINE",
"433 413 LINE SMOOTH",
"369 405 OFFCURVE",
"343 384 OFFCURVE",
"312 335 CURVE",
"282 335 LINE"
);
},
{
closed = 1;
nodes = (
"418 76 LINE SMOOTH",
"443 48 OFFCURVE",
"466 23 OFFCURVE",
"487 20 CURVE",
"487 -1 LINE",
"393 0 LINE",
"207 217 LINE",
"245 270 LINE"
);
}
);
width = 487;
},
{
associatedMasterId = "9372F035-DA38-4B54-966C-CEBA9B53DD02";
backgroundImage = {
crop = "{{1067.831, 1156.441}, {193.331, 318.996}}";
imagePath = "../../ANRT-Baskerwille/1878 Limprimerie Berger Levrault Notice historique/Romain/JACOB-notice-187536.jpg";
locked = "1";
transform = "{3.103, 0, 0, 3.103, -3314, -3869}";
};
components = (
{
name = "_part-bdc";
transform = "{1, 0, 0, 1, 43, 270}";
}
);
hints = (
{
origin = "{0, 1}";
type = Corner;
name = "_corner-bdc";
},
{
origin = "{0, 2}";
scale = "{-1, 1}";
type = Corner;
name = "_corner-bdc";
options = 1;
}
);
layerId = "0C2424D4-A884-4445-A209-289C054924B8";
name = "Oct 17 17, 10:41";
paths = (
{
closed = 1;
nodes = (
"231 644 LINE",
"231 0 LINE",
"161 0 LINE",
"161 644 LINE"
);
},
{
closed = 1;
nodes = (
"210 111 LINE",
"183 111 LINE",
"389 416 LINE",
"420 416 LINE"
);
},
{
closed = 1;
nodes = (
"360 378 OFFCURVE",
"389 407 OFFCURVE",
"338 413 CURVE SMOOTH",
"322 415 LINE",
"322 438 LINE",
"418 436 LINE",
"502 438 LINE",
"502 415 LINE",
"486 413 LINE SMOOTH",
"422 405 OFFCURVE",
"396 384 OFFCURVE",
"365 335 CURVE",
"335 335 LINE"
);
},
{
closed = 1;
nodes = (
"481 76 LINE SMOOTH",
"506 48 OFFCURVE",
"529 23 OFFCURVE",
"550 20 CURVE",
"550 -1 LINE",
"436 0 LINE",
"264 200 LINE",
"308 270 LINE"
);
}
);
width = 600;
}
);
leftMetricsKey = h;
unicode = 006B;
},
{
glyphname = l;
lastChange = "2017-10-17 15:29:57 +0000";
layers = (
{
components = (
{
name = "_part-bdc";
transform = "{1, 0, 0, 1, -10, 270}";
}
);
hints = (
{
origin = "{0, 2}";
scale = "{-1, 1}";
type = Corner;
name = "_corner-bdc";
options = 1;
},
{
origin = "{0, 1}";
type = Corner;
name = "_corner-bdc";
}
);
layerId = "9372F035-DA38-4B54-966C-CEBA9B53DD02";
paths = (
{
closed = 1;
nodes = (
"178 644 LINE",
"178 0 LINE",
"108 0 LINE",
"108 644 LINE"
);
}
);
width = 281;
}
);
leftMetricsKey = h;
unicode = 006C;
},
{
glyphname = n;
lastChange = "2017-10-17 15:34:28 +0000";
layers = (
{
backgroundImage = {
crop = "{{1242.208, 781.652}, {227.998, 376.196}}";
imagePath = "../../../../Desktop/ANRT-Baskerwille/1878 Limprimerie Berger Levrault Notice historique/Romain/JACOB-notice-187501.jpg";
locked = "1";
transform = "{2.632, 0, 0, 2.632, -3239, -2337}";
};
components = (
{
name = "_part-jambage";
}
);
guideLines = (
{
angle = 90;
position = "{50, 17}";
}
);
layerId = "9372F035-DA38-4B54-966C-CEBA9B53DD02";
width = 593;
},
{
associatedMasterId = "9372F035-DA38-4B54-966C-CEBA9B53DD02";
backgroundImage = {
crop = "{{1242.208, 781.652}, {227.998, 376.196}}";
imagePath = "../../../../Desktop/ANRT-Baskerwille/1878 Limprimerie Berger Levrault Notice historique/Romain/JACOB-notice-187501.jpg";
locked = "1";
transform = "{2.632, 0, 0, 2.632, -3239, -2337}";
};
components = (
{
name = "_part-bdc";
transform = "{1, 0, 0, 1, 0, 6}";
}
);
guideLines = (
{
angle = 90;
position = "{50, 17}";
}
);
hints = (
{
origin = "{0, 2}";
type = Corner;
name = "_corner-bdc-bg";
},
{
origin = "{0, 1}";
type = Corner;
name = "_corner-bdc-bd";
},
{
origin = "{1, 14}";
type = Corner;
name = "_corner-bdc-bg";
},
{
origin = "{1, 13}";
type = Corner;
name = "_corner-bdc-bd";
}
);
layerId = "CDE66193-031C-45BF-BA38-BBC22F34EC96";
name = "Oct 16 17, 13:56";
paths = (
{
closed = 1;
nodes = (
"188 355 LINE",
"188 0 LINE",
"118 0 LINE",
"118 355 LINE"
);
},
{
closed = 1;
nodes = (
"415 388 OFFCURVE",
"391 425 OFFCURVE",
"333 424 CURVE SMOOTH",
"214 422 OFFCURVE",
"174 300 OFFCURVE",
"172 257 CURVE",
"162 306 LINE",
"163 319 OFFCURVE",
"203 454 OFFCURVE",
"343 454 CURVE SMOOTH",
"445 454 OFFCURVE",
"485 406 OFFCURVE",
"485 335 CURVE SMOOTH",
"485 0 LINE",
"415 0 LINE",
"415 330 LINE SMOOTH"
);
}
);
width = 583;
}
);
unicode = 006E;
},
{
glyphname = o;
lastChange = "2017-10-17 15:44:44 +0000";
layers = (
{
backgroundImage = {
crop = "{{1741.261, 1317.249}, {227.964, 376.14}}";
imagePath = "../../../../Desktop/ANRT-Baskerwille/1878 Limprimerie Berger Levrault Notice historique/Romain/JACOB-notice-187519.jpg";
locked = "1";
transform = "{2.632, 0, 0, 2.632, -4603, -3747}";
};
guideLines = (
{
position = "{270, 221}";
},
{
angle = 90;
position = "{270, 221}";
}
);
layerId = "9372F035-DA38-4B54-966C-CEBA9B53DD02";
paths = (
{
closed = 1;
nodes = (
"399 -14 OFFCURVE",
"500 90 OFFCURVE",
"500 220 CURVE SMOOTH",
"500 351 OFFCURVE",
"399 454 OFFCURVE",
"270 454 CURVE SMOOTH",
"141 454 OFFCURVE",
"40 351 OFFCURVE",
"40 220 CURVE SMOOTH",
"40 90 OFFCURVE",
"141 -14 OFFCURVE",
"270 -14 CURVE SMOOTH"
);
},
{
closed = 1;
nodes = (
"162 11 OFFCURVE",
"120 102 OFFCURVE",
"120 220 CURVE SMOOTH",
"120 339 OFFCURVE",
"162 429 OFFCURVE",
"270 429 CURVE SMOOTH",
"378 429 OFFCURVE",
"420 339 OFFCURVE",
"420 220 CURVE SMOOTH",
"420 102 OFFCURVE",
"378 11 OFFCURVE",
"270 11 CURVE SMOOTH"
);
}
);
width = 540;
}
);
unicode = 006F;
},
{
glyphname = oe;
lastChange = "2017-10-17 15:04:18 +0000";
layers = (
{
backgroundImage = {
crop = "{{1454.137, 1357.575}, {261.097, 314.459}}";
imagePath = "/Users/alexisfaudot/Desktop/ANRT-Baskerwille/1878 Limprimerie Berger Levrault Notice historique/Romain/JACOB-notice-187538.jpg";
locked = "1";
transform = "{3.148, 0, 0, 3.148, -4591, -4554}";
};
layerId = "9372F035-DA38-4B54-966C-CEBA9B53DD02";
paths = (
{
closed = 1;
nodes = (
"334 -14 OFFCURVE",
"399 31 OFFCURVE",
"434 99 CURVE",
"442 322 LINE",
"410 401 OFFCURVE",
"341 454 OFFCURVE",
"260 454 CURVE SMOOTH",
"137 454 OFFCURVE",
"40 351 OFFCURVE",
"40 220 CURVE SMOOTH",
"40 90 OFFCURVE",
"137 -14 OFFCURVE",
"260 -14 CURVE SMOOTH"
);
},
{
closed = 1;
nodes = (
"159 11 OFFCURVE",
"120 102 OFFCURVE",
"120 220 CURVE SMOOTH",
"120 339 OFFCURVE",
"159 429 OFFCURVE",
"260 429 CURVE SMOOTH",
"357 429 OFFCURVE",
"395 339 OFFCURVE",
"395 220 CURVE SMOOTH",
"395 102 OFFCURVE",
"357 11 OFFCURVE",
"260 11 CURVE SMOOTH"
);
},
{
closed = 1;
nodes = (
"615 429 LINE",
"662 429 OFFCURVE",
"711 400 OFFCURVE",
"711 343 CURVE SMOOTH",
"711 305 OFFCURVE",
"694 268 OFFCURVE",
"596 268 CURVE SMOOTH",
"453 268 LINE",
"453 248 LINE",
"777 248 LINE",
"777 373 OFFCURVE",
"722 454 OFFCURVE",
"615 454 CURVE"
);
},
{
closed = 1;
nodes = (
"615 454 LINE",
"529 454 OFFCURVE",
"455 408 OFFCURVE",
"415 338 CURVE",
"421 81 LINE",
"458 22 OFFCURVE",
"523 -14 OFFCURVE",
"605 -14 CURVE SMOOTH",
"695 -14 OFFCURVE",
"760 42 OFFCURVE",
"770 118 CURVE",
"745 123 LINE",
"735 52 OFFCURVE",
"685 16 OFFCURVE",
"605 16 CURVE SMOOTH",
"505 16 OFFCURVE",
"465 107 OFFCURVE",
"465 220 CURVE SMOOTH",
"465 339 OFFCURVE",
"507 429 OFFCURVE",
"615 429 CURVE"
);
}
);
width = 807;
}
);
leftMetricsKey = o;
rightMetricsKey = e;
unicode = 0153;
},
{
glyphname = p;
lastChange = "2017-10-17 15:46:43 +0000";
layers = (
{
backgroundImage = {
crop = "{{1289.894, 575.608}, {227.964, 376.14}}";
imagePath = "../../../../Desktop/ANRT-Baskerwille/1878 Limprimerie Berger Levrault Notice historique/Romain/JACOB-notice-187510.jpg";
locked = "1";
transform = "{2.632, 0, 0, 2.632, -3452, -1795}";
};
components = (
{
name = "_part-bdc";
transform = "{1, 0, 0, 1, -20, 0}";
}
);
hints = (
{
origin = "{0, 2}";
scale = "{-1, 1}";
type = Corner;
name = "_corner-bdc";
options = 1;
},
{
origin = "{0, 1}";
type = Corner;
name = "_corner-bdc";
}
);
layerId = "9372F035-DA38-4B54-966C-CEBA9B53DD02";
paths = (
{
closed = 1;
nodes = (
"168 357 LINE",
"168 -280 LINE",
"98 -280 LINE",
"98 357 LINE"
);
},
{
closed = 1;
nodes = (
"430 220 LINE",
"430 339 OFFCURVE",
"386 429 OFFCURVE",
"300 429 CURVE SMOOTH",
"193 429 OFFCURVE",
"130 329 OFFCURVE",
"130 220 CURVE",
"110 220 LINE",
"110 351 OFFCURVE",
"183 454 OFFCURVE",
"300 454 CURVE SMOOTH",
"422 454 OFFCURVE",
"510 351 OFFCURVE",
"510 220 CURVE"
);
},
{
closed = 1;
nodes = (
"510 89 OFFCURVE",
"422 -14 OFFCURVE",
"300 -14 CURVE SMOOTH",
"183 -14 OFFCURVE",
"110 89 OFFCURVE",
"110 220 CURVE",
"130 220 LINE",
"130 114 OFFCURVE",
"193 16 OFFCURVE",
"300 16 CURVE SMOOTH",
"386 16 OFFCURVE",
"430 104 OFFCURVE",
"430 220 CURVE",
"510 220 LINE"
);
}
);
width = 550;
}
);
rightMetricsKey = o;
unicode = 0070;
},
{
glyphname = q;
lastChange = "2017-10-17 15:45:39 +0000";
layers = (
{
backgroundImage = {
crop = "{{2046.353, 1450.608}, {227.964, 376.14}}";
imagePath = "../../1878 Limprimerie Berger Levrault Notice historique/Romain/JACOB-notice-187509.jpg";
transform = "{2.632, 0, 0, 2.632, -5380, -4098}";
};
hints = (
{
origin = "{0, 1}";
scale = "{-1, 1}";
type = Corner;
name = "_corner-bdc";
options = 1;
},
{
origin = "{0, 0}";
type = Corner;
name = "_corner-bdc";
options = 1;
}
);
layerId = "9372F035-DA38-4B54-966C-CEBA9B53DD02";
paths = (
{
closed = 1;
nodes = (
"457 -280 LINE",
"387 -280 LINE",
"387 390 LINE",
"457 454 LINE"
);
},
{
closed = 1;
nodes = (
"45 351 OFFCURVE",
"133 454 OFFCURVE",
"255 454 CURVE SMOOTH",
"372 454 OFFCURVE",
"445 351 OFFCURVE",
"445 220 CURVE",
"425 220 LINE",
"425 329 OFFCURVE",
"362 429 OFFCURVE",
"255 429 CURVE SMOOTH",
"169 429 OFFCURVE",
"125 339 OFFCURVE",
"125 220 CURVE",
"45 220 LINE"
);
},
{
closed = 1;
nodes = (
"125 220 LINE",
"125 101 OFFCURVE",
"169 11 OFFCURVE",
"255 11 CURVE SMOOTH",
"362 11 OFFCURVE",
"425 111 OFFCURVE",
"425 220 CURVE",
"445 220 LINE",
"445 89 OFFCURVE",
"372 -14 OFFCURVE",
"255 -14 CURVE SMOOTH",
"133 -14 OFFCURVE",
"45 89 OFFCURVE",
"45 220 CURVE"
);
}
);
width = 555;
}
);
unicode = 0071;
},
{
glyphname = r;
lastChange = "2017-10-17 13:18:51 +0000";
layers = (
{
background = {
hints = (
{
origin = "{0, 1}";
type = Corner;
name = "_corner-bd";
},
{
origin = "{0, 2}";
type = Corner;
name = "_corner-bg";
}
);
paths = (
{
closed = 1;
nodes = (
"188 381 LINE",
"188 0 LINE",
"118 0 LINE",
"118 382 LINE"
);
},
{
closed = 1;
nodes = (
"364 449 OFFCURVE",
"379 414 OFFCURVE",
"379 389 CURVE SMOOTH",
"379 362 OFFCURVE",
"357 336 OFFCURVE",
"330 336 CURVE SMOOTH",
"297 336 OFFCURVE",
"279 363 OFFCURVE",
"279 386 CURVE SMOOTH",
"279 400 OFFCURVE",
"282 411 OFFCURVE",
"290 422 CURVE",
"223 422 OFFCURVE",
"164 319 OFFCURVE",
"162 252 CURVE",
"157 274 LINE",
"158 364 OFFCURVE",
"223 450 OFFCURVE",
"313 450 CURVE"
);
}
);
};
backgroundImage = {
crop = "{{1873.86, 838.526}, {170.593, 376.14}}";
imagePath = "../../../../Desktop/ANRT-Baskerwille/1878 Limprimerie Berger Levrault Notice historique/Romain/JACOB-notice-187519.jpg";
locked = "1";
transform = "{2.632, 0, 0, 2.632, -4952, -2487}";
};
components = (
{
name = "_part-bdc";
}
);
hints = (
{
origin = "{0, 2}";
scale = "{-1, 1}";
type = Corner;
name = "_corner-bdc";
options = 1;
},
{
origin = "{0, 1}";
type = Corner;
name = "_corner-bdc";
}
);
layerId = "9372F035-DA38-4B54-966C-CEBA9B53DD02";
paths = (
{
closed = 1;
nodes = (
"188 381 LINE",
"188 0 LINE",
"118 0 LINE",
"118 382 LINE"
);
},
{
closed = 1;
nodes = (
"362 454 OFFCURVE",
"377 419 OFFCURVE",
"377 394 CURVE SMOOTH",
"377 363 OFFCURVE",
"357 341 OFFCURVE",
"330 341 CURVE SMOOTH",
"298 341 OFFCURVE",
"281 368 OFFCURVE",
"281 385 CURVE SMOOTH",
"281 401 OFFCURVE",
"286 409 OFFCURVE",
"284 416 CURVE SMOOTH",
"281 424 OFFCURVE",
"269 423 OFFCURVE",
"263 422 CURVE SMOOTH",
"203 408 OFFCURVE",
"164 312 OFFCURVE",
"162 252 CURVE",
"157 274 LINE",
"158 367 OFFCURVE",
"223 454 OFFCURVE",
"304 454 CURVE SMOOTH"
);
}
);
width = 382;
},
{
associatedMasterId = "9372F035-DA38-4B54-966C-CEBA9B53DD02";
backgroundImage = {
crop = "{{1873.86, 838.526}, {227.964, 376.14}}";
imagePath = "../../../../alexisfaudot/Desktop/ANRT-Baskerwille/1878 Limprimerie Berger Levrault Notice historique/Romain/JACOB-notice-187519.jpg";
locked = "1";
transform = "{2.632, 0, 0, 2.632, -4932, -2487}";
};
components = (
{
name = "_part-bdc";
transform = "{1, 0, 0, 1, 30, 0}";
}
);
layerId = "BA52FC5E-3A3E-4B99-B5CA-3BD2F93D4D1F";
name = "Oct 13 17, 11:24";
width = 600;
}
);
leftMetricsKey = n;
unicode = 0072;
},
{
glyphname = s;
lastChange = "2017-10-17 15:44:56 +0000";
layers = (
{
guideLines = (
{
angle = 90;
position = "{190, 80}";
}
);
layerId = "9372F035-DA38-4B54-966C-CEBA9B53DD02";
paths = (
{
closed = 1;
nodes = (
"116 454 OFFCURVE",
"50 397 OFFCURVE",
"50 328 CURVE SMOOTH",
"50 269 OFFCURVE",
"82 220 OFFCURVE",
"178 189 CURVE SMOOTH",
"254 165 OFFCURVE",
"289 143 OFFCURVE",
"289 97 CURVE SMOOTH",
"289 55 OFFCURVE",
"253 16 OFFCURVE",
"190 16 CURVE SMOOTH",
"123 16 OFFCURVE",
"67 55 OFFCURVE",
"67 129 CURVE",
"45 129 LINE",
"45 0 LINE",
"62 0 LINE",
"63 8 OFFCURVE",
"64 28 OFFCURVE",
"73 28 CURVE SMOOTH",
"84 28 OFFCURVE",
"119 -14 OFFCURVE",
"190 -14 CURVE SMOOTH",
"289 -14 OFFCURVE",
"340 47 OFFCURVE",
"340 128 CURVE SMOOTH",
"340 199 OFFCURVE",
"299 234 OFFCURVE",
"204 267 CURVE SMOOTH",
"142 288 OFFCURVE",
"101 305 OFFCURVE",
"101 359 CURVE SMOOTH",
"101 399 OFFCURVE",
"134 429 OFFCURVE",
"190 429 CURVE SMOOTH",
"251 429 OFFCURVE",
"280 397 OFFCURVE",
"283 338 CURVE",
"303 338 LINE",
"303 454 LINE",
"289 454 LINE",
"287 442 OFFCURVE",
"283 429 OFFCURVE",
"275 429 CURVE SMOOTH",
"261 429 OFFCURVE",
"248 454 OFFCURVE",
"190 454 CURVE SMOOTH"
);
}
);
width = 385;
},
{
associatedMasterId = "9372F035-DA38-4B54-966C-CEBA9B53DD02";
guideLines = (
{
angle = 90;
position = "{150, 80}";
}
);
layerId = "6ABC4078-2289-433E-A70F-89F4859049E4";
name = "Oct 17 17, 10:36";
paths = (
{
closed = 1;
nodes = (
"86 454 OFFCURVE",
"21 414 OFFCURVE",
"21 328 CURVE SMOOTH",
"21 259 OFFCURVE",
"50 220 OFFCURVE",
"138 189 CURVE SMOOTH",
"207 165 OFFCURVE",
"239 143 OFFCURVE",
"239 97 CURVE SMOOTH",
"239 53 OFFCURVE",
"207 11 OFFCURVE",
"150 11 CURVE SMOOTH",
"88 11 OFFCURVE",
"37 52 OFFCURVE",
"37 129 CURVE",
"15 129 LINE",
"15 0 LINE",
"32 0 LINE",
"33 8 OFFCURVE",
"34 28 OFFCURVE",
"43 28 CURVE SMOOTH",
"54 28 OFFCURVE",
"85 -14 OFFCURVE",
"150 -14 CURVE SMOOTH",
"242 -14 OFFCURVE",
"290 52 OFFCURVE",
"290 133 CURVE SMOOTH",
"290 204 OFFCURVE",
"252 234 OFFCURVE",
"164 267 CURVE SMOOTH",
"108 288 OFFCURVE",
"71 305 OFFCURVE",
"71 359 CURVE SMOOTH",
"71 399 OFFCURVE",
"100 429 OFFCURVE",
"150 429 CURVE SMOOTH",
"201 429 OFFCURVE",
"230 397 OFFCURVE",
"233 338 CURVE",
"253 338 LINE",
"253 453 LINE",
"239 453 LINE",
"237 441 OFFCURVE",
"233 429 OFFCURVE",
"225 429 CURVE SMOOTH",
"211 429 OFFCURVE",
"198 454 OFFCURVE",
"150 454 CURVE SMOOTH"
);
}
);
width = 305;
}
);
unicode = 0073;
},
{
glyphname = t;
lastChange = "2017-10-17 15:50:51 +0000";
layers = (
{
backgroundImage = {
crop = "{{1897.416, 795.213}, {129.179, 376.14}}";
imagePath = "../../../../alexisfaudot/Desktop/ANRT-Baskerwille/1878 Limprimerie Berger Levrault Notice historique/Romain/JACOB-notice-187501.jpg";
locked = "1";
transform = "{2.632, 0.023, -0.023, 2.632, -4994, -2373}";
};
layerId = "9372F035-DA38-4B54-966C-CEBA9B53DD02";
paths = (
{
closed = 1;
nodes = (
"129 53 OFFCURVE",
"152 15 OFFCURVE",
"197 16 CURVE SMOOTH",
"238 17 OFFCURVE",
"277 52 OFFCURVE",
"297 83 CURVE",
"310 62 LINE",
"287 28 OFFCURVE",
"242 -14 OFFCURVE",
"187 -14 CURVE SMOOTH",
"98 -14 OFFCURVE",
"59 35 OFFCURVE",
"59 106 CURVE SMOOTH",
"59 528 LINE",
"129 591 LINE",
"129 111 LINE SMOOTH"
);
},
{
closed = 1;
nodes = (
"269 436 LINE",
"269 416 LINE",
"0 416 LINE",
"0 436 LINE"
);
}
);
width = 300;
}
);
unicode = 0074;
},
{
glyphname = u;
lastChange = "2017-10-17 15:47:41 +0000";
layers = (
{
guideLines = (
{
position = "{255, 439}";
}
);
hints = (
{
origin = "{0, 1}";
type = Corner;
name = "_corner-bdc";
options = 2;
},
{
origin = "{1, 13}";
scale = "{0.75, 1}";
type = Corner;
name = "_corner-bdc";
options = 1;
}
);
layerId = "9372F035-DA38-4B54-966C-CEBA9B53DD02";
paths = (
{
closed = 1;
nodes = (
"383 90 LINE",
"382 435 LINE",
"405 436 OFFCURVE",
"425 437 OFFCURVE",
"449 438 CURVE",
"449 66 LINE"
);
},
{
closed = 1;
nodes = (
"151 50 OFFCURVE",
"175 11 OFFCURVE",
"233 12 CURVE SMOOTH",
"352 14 OFFCURVE",
"392 140 OFFCURVE",
"394 184 CURVE",
"404 135 LINE",
"403 122 OFFCURVE",
"363 -18 OFFCURVE",
"223 -18 CURVE SMOOTH",
"121 -18 OFFCURVE",
"81 32 OFFCURVE",
"81 106 CURVE SMOOTH",
"81 436 LINE",
"150 439 LINE",
"151 111 LINE SMOOTH"
);
},
{
closed = 1;
nodes = (
"449 106 LINE",
"449 34 OFFCURVE",
"478 23 OFFCURVE",
"532 23 CURVE",
"532 0 LINE",
"477 0 OFFCURVE",
"440 0 OFFCURVE",
"385 -10 CURVE",
"383 91 LINE"
);
}
);
width = 557;
}
);
unicode = 0075;
},
{
glyphname = v;
lastChange = "2017-10-17 13:19:01 +0000";
layers = (
{
backgroundImage = {
crop = "{{1145.897, 430.471}, {227.964, 376.14}}";
imagePath = "../../../../Desktop/ANRT-Baskerwille/1878 Limprimerie Berger Levrault Notice historique/Romain/JACOB-notice-187516.jpg";
locked = "1";
transform = "{2.632, 0, 0, 2.632, -3032, -1413}";
};
guideLines = (
{
angle = 90;
position = "{103, 461}";
}
);
layerId = "9372F035-DA38-4B54-966C-CEBA9B53DD02";
paths = (
{
closed = 1;
nodes = (
"323 54 LINE",
"307 -13 LINE",
"282 -13 LINE",
"62 436 LINE",
"137 436 LINE"
);
},
{
closed = 1;
nodes = (
"308 -13 LINE",
"282 -13 LINE",
"501 436 LINE",
"528 436 LINE"
);
},
{
closed = 1;
nodes = (
"114 436 LINE",
"261 439 LINE",
"261 416 LINE",
"245 414 LINE SMOOTH",
"167 404 OFFCURVE",
"162 393 OFFCURVE",
"184 338 CURVE"
);
},
{
closed = 1;
nodes = (
"93 375 OFFCURVE",
"80 405 OFFCURVE",
"6 414 CURVE SMOOTH",
"-10 416 LINE",
"-10 439 LINE",
"127 436 LINE",
"125 306 LINE"
);
},
{
closed = 1;
nodes = (
"475 392 OFFCURVE",
"462 406 OFFCURVE",
"394 414 CURVE SMOOTH",
"378 416 LINE",
"378 439 LINE",
"502 436 LINE",
"453 337 LINE"
);
},
{
closed = 1;
nodes = (
"502 436 LINE",
"600 439 LINE",
"600 416 LINE",
"584 414 LINE SMOOTH",
"520 406 OFFCURVE",
"491 365 OFFCURVE",
"464 306 CURVE"
);
}
);
width = 590;
}
);
unicode = 0076;
},
{
glyphname = w;
lastChange = "2017-10-17 13:19:01 +0000";
layers = (
{
backgroundImage = {
crop = "{{1501.402, 953.175}, {284.424, 351.974}}";
imagePath = "../../ANRT-Baskerwille/1878 Limprimerie Berger Levrault Notice historique/Romain/JACOB-notice-187539.jpg";
locked = "1";
transform = "{2.849, 0, 0, 2.849, -4346, -3011}";
};
layerId = "9372F035-DA38-4B54-966C-CEBA9B53DD02";
paths = (
{
closed = 1;
nodes = (
"66 379 OFFCURVE",
"47 407 OFFCURVE",
"11 414 CURVE SMOOTH",
"0 416 LINE",
"0 439 LINE",
"87 438 LINE",
"212 439 LINE",
"212 416 LINE",
"202 414 LINE SMOOTH",
"159 405 OFFCURVE",
"139 396 OFFCURVE",
"160 341 CURVE",
"124 322 LINE",
"87 325 LINE"
);
},
{
closed = 1;
nodes = (
"541 -13 LINE",
"514 -13 LINE",
"697 435 LINE",
"723 435 LINE"
);
},
{
closed = 1;
nodes = (
"679 391 OFFCURVE",
"667 407 OFFCURVE",
"619 413 CURVE SMOOTH",
"603 415 LINE",
"603 438 LINE",
"697 435 LINE",
"657 336 LINE"
);
},
{
closed = 1;
nodes = (
"697 435 LINE",
"776 438 LINE",
"776 415 LINE",
"760 413 LINE SMOOTH",
"702 406 OFFCURVE",
"701 374 OFFCURVE",
"674 315 CURVE"
);
},
{
closed = 1;
nodes = (
"541 -13 LINE",
"513 -13 LINE",
"383 335 LINE SMOOTH",
"358 413 OFFCURVE",
"407 438 OFFCURVE",
"446 437 CURVE SMOOTH",
"498 436 LINE",
"498 413 LINE",
"479 413 LINE SMOOTH",
"447 413 OFFCURVE",
"443 385 OFFCURVE",
"457 347 CURVE SMOOTH",
"560 74 LINE"
);
},
{
closed = 1;
nodes = (
"401 436 OFFCURVE",
"399 388 OFFCURVE",
"385 330 CURVE SMOOTH",
"240 -13 LINE",
"213 -13 LINE",
"359 331 LINE SMOOTH",
"381 383 OFFCURVE",
"366 413 OFFCURVE",
"328 413 CURVE SMOOTH",
"297 413 LINE",
"297 436 LINE",
"328 436 LINE SMOOTH"
);
},
{
closed = 1;
nodes = (
"265 59 LINE",
"238 -13 LINE",
"213 -13 LINE",
"45 436 LINE",
"125 436 LINE"
);
}
);
width = 756;
},
{
associatedMasterId = "9372F035-DA38-4B54-966C-CEBA9B53DD02";
backgroundImage = {
crop = "{{1501.402, 953.175}, {284.424, 351.974}}";
imagePath = "../../ANRT-Baskerwille/1878 Limprimerie Berger Levrault Notice historique/Romain/JACOB-notice-187539.jpg";
locked = "1";
transform = "{2.849, 0, 0, 2.849, -4346, -3011}";
};
layerId = "829D6ACB-0664-46D7-A9F6-402CE296A367";
name = "Oct 17 17, 10:21";
paths = (
{
closed = 1;
nodes = (
"274 73 LINE",
"240 -13 LINE",
"212 -13 LINE",
"46 436 LINE",
"134 436 LINE"
);
},
{
closed = 1;
nodes = (
"66 379 OFFCURVE",
"47 407 OFFCURVE",
"11 414 CURVE SMOOTH",
"0 416 LINE",
"0 439 LINE",
"87 438 LINE",
"222 439 LINE",
"222 416 LINE",
"212 414 LINE SMOOTH",
"169 405 OFFCURVE",
"149 396 OFFCURVE",
"171 341 CURVE",
"120 322 LINE",
"87 325 LINE"
);
},
{
closed = 1;
nodes = (
"561 -13 LINE",
"534 -13 LINE",
"697 435 LINE",
"723 435 LINE"
);
},
{
closed = 1;
nodes = (
"697 435 LINE",
"603 438 LINE",
"603 415 LINE",
"619 413 LINE SMOOTH",
"667 407 OFFCURVE",
"683 391 OFFCURVE",
"661 336 CURVE"
);
},
{
closed = 1;
nodes = (
"697 435 LINE",
"776 438 LINE",
"776 415 LINE",
"760 413 LINE SMOOTH",
"702 406 OFFCURVE",
"706 374 OFFCURVE",
"679 315 CURVE"
);
},
{
closed = 1;
nodes = (
"561 -13 LINE",
"533 -13 LINE",
"383 335 LINE SMOOTH",
"350 411 OFFCURVE",
"417 438 OFFCURVE",
"456 437 CURVE SMOOTH",
"508 436 LINE",
"508 413 LINE",
"489 413 LINE SMOOTH",
"457 413 OFFCURVE",
"451 383 OFFCURVE",
"467 347 CURVE SMOOTH",
"585 77 LINE"
);
},
{
closed = 1;
nodes = (
"386 436 OFFCURVE",
"409 389 OFFCURVE",
"385 331 CURVE SMOOTH",
"240 -13 LINE",
"213 -13 LINE",
"359 332 LINE SMOOTH",
"380 383 OFFCURVE",
"347 413 OFFCURVE",
"319 413 CURVE SMOOTH",
"297 413 LINE",
"297 436 LINE",
"325 436 LINE SMOOTH"
);
}
);
width = 776;
},
{
associatedMasterId = "9372F035-DA38-4B54-966C-CEBA9B53DD02";
backgroundImage = {
crop = "{{1501.402, 953.175}, {284.424, 351.974}}";
imagePath = "../../ANRT-Baskerwille/1878 Limprimerie Berger Levrault Notice historique/Romain/JACOB-notice-187539.jpg";
locked = "1";
transform = "{2.849, 0, 0, 2.849, -4346, -3011}";
};
layerId = "7A5A5329-119F-4EB0-8DC7-188C41B95BA8";
name = "Oct 17 17, 10:26";
paths = (
{
closed = 1;
nodes = (
"66 379 OFFCURVE",
"47 407 OFFCURVE",
"11 414 CURVE SMOOTH",
"0 416 LINE",
"0 439 LINE",
"87 438 LINE",
"212 439 LINE",
"212 416 LINE",
"202 414 LINE SMOOTH",
"159 405 OFFCURVE",
"139 396 OFFCURVE",
"160 341 CURVE",
"124 322 LINE",
"87 325 LINE"
);
},
{
closed = 1;
nodes = (
"697 435 LINE",
"603 438 LINE",
"603 415 LINE",
"619 413 LINE SMOOTH",
"667 407 OFFCURVE",
"683 391 OFFCURVE",
"661 336 CURVE"
);
},
{
closed = 1;
nodes = (
"697 435 LINE",
"776 438 LINE",
"776 415 LINE",
"760 413 LINE SMOOTH",
"702 406 OFFCURVE",
"706 374 OFFCURVE",
"679 315 CURVE"
);
},
{
closed = 1;
nodes = (
"386 435 OFFCURVE",
"409 388 OFFCURVE",
"385 330 CURVE SMOOTH",
"240 -13 LINE",
"213 -13 LINE",
"359 331 LINE SMOOTH",
"381 382 OFFCURVE",
"347 412 OFFCURVE",
"319 412 CURVE SMOOTH",
"297 412 LINE",
"297 435 LINE",
"325 435 LINE SMOOTH"
);
},
{
closed = 1;
nodes = (
"265 59 LINE",
"238 -13 LINE",
"213 -13 LINE",
"45 436 LINE",
"125 436 LINE"
);
},
{
closed = 1;
nodes = (
"585 59 LINE",
"558 -13 LINE",
"533 -13 LINE",
"365 436 LINE",
"445 436 LINE"
);
}
);
width = 776;
}
);
unicode = 0077;
},
{
glyphname = x;
lastChange = "2017-10-17 15:38:35 +0000";
layers = (
{
backgroundImage = {
crop = "{{1294.332, 1411.731}, {225.051, 371.334}}";
imagePath = "../../ANRT-Baskerwille/1878 Limprimerie Berger Levrault Notice historique/Romain/JACOB-notice-187512.jpg";
locked = "1";
transform = "{2.666, -0.047, 0.047, 2.666, -3501, -4044}";
};
layerId = "9372F035-DA38-4B54-966C-CEBA9B53DD02";
paths = (
{
closed = 1;
nodes = (
"485 31 OFFCURVE",
"448 49 OFFCURVE",
"417 87 CURVE SMOOTH",
"203 350 LINE SMOOTH",
"157 406 OFFCURVE",
"213 413 OFFCURVE",
"226 414 CURVE SMOOTH",
"249 416 LINE",
"249 439 LINE",
"120 436 LINE",
"3 439 LINE",
"3 416 LINE",
"23 413 LINE SMOOTH",
"64 407 OFFCURVE",
"86 402 OFFCURVE",
"122 359 CURVE",
"354 58 LINE SMOOTH",
"371 36 OFFCURVE",
"343 24 OFFCURVE",
"316 22 CURVE",
"300 20 LINE",
"300 -3 LINE",
"429 0 LINE",
"546 -3 LINE",
"546 20 LINE",
"530 23 LINE SMOOTH"
);
},
{
closed = 1;
nodes = (
"298 439 LINE",
"298 416 LINE",
"315 414 LINE SMOOTH",
"367 408 OFFCURVE",
"362 381 OFFCURVE",
"343 353 CURVE SMOOTH",
"235 229 LINE",
"249 210 LINE",
"353 332 LINE SMOOTH",
"392 373 OFFCURVE",
"432 406 OFFCURVE",
"499 414 CURVE SMOOTH",
"515 416 LINE",
"515 439 LINE",
"417 436 LINE"
);
},
{
closed = 1;
nodes = (
"187 -2 LINE",
"187 21 LINE",
"171 23 LINE SMOOTH",
"122 29 OFFCURVE",
"120 58 OFFCURVE",
"142 84 CURVE SMOOTH",
"250 208 LINE",
"236 227 LINE",
"132 105 LINE SMOOTH",
"95 62 OFFCURVE",
"49 31 OFFCURVE",
"-14 23 CURVE SMOOTH",
"-30 21 LINE",
"-30 -2 LINE",
"68 1 LINE"
);
}
);
width = 516;
}
);
unicode = 0078;
},
{
glyphname = y;
lastChange = "2017-10-17 15:39:12 +0000";
layers = (
{
backgroundImage = {
crop = "{{1363.869, 1158.434}, {193.502, 319.279}}";
imagePath = "../../ANRT-Baskerwille/1878 Limprimerie Berger Levrault Notice historique/Romain/JACOB-notice-187536.jpg";
locked = "1";
transform = "{3.101, 0, 0, 3.101, -4270, -3872}";
};
layerId = "9372F035-DA38-4B54-966C-CEBA9B53DD02";
paths = (
{
closed = 1;
nodes = (
"190 -163 LINE SMOOTH",
"158 -231 OFFCURVE",
"111 -294 OFFCURVE",
"28 -294 CURVE SMOOTH",
"-18 -294 OFFCURVE",
"-40 -275 OFFCURVE",
"-40 -241 CURVE SMOOTH",
"-40 -215 OFFCURVE",
"-18 -194 OFFCURVE",
"14 -194 CURVE SMOOTH",
"50 -194 OFFCURVE",
"56 -224 OFFCURVE",
"81 -224 CURVE SMOOTH",
"109 -224 OFFCURVE",
"134 -211 OFFCURVE",
"151 -177 CURVE SMOOTH",
"241 2 LINE",
"268 3 LINE"
);
},
{
closed = 1;
nodes = (
"275 54 LINE",
"259 -13 LINE",
"234 -13 LINE",
"44 436 LINE",
"119 436 LINE"
);
},
{
closed = 1;
nodes = (
"260 -13 LINE",
"234 -13 LINE",
"453 436 LINE",
"480 436 LINE"
);
},
{
closed = 1;
nodes = (
"96 436 LINE",
"221 439 LINE",
"221 416 LINE",
"205 414 LINE SMOOTH",
"127 404 OFFCURVE",
"137 393 OFFCURVE",
"159 338 CURVE"
);
},
{
closed = 1;
nodes = (
"70 375 OFFCURVE",
"56 408 OFFCURVE",
"12 414 CURVE SMOOTH",
"-4 416 LINE",
"-4 439 LINE",
"109 436 LINE",
"99 306 LINE"
);
},
{
closed = 1;
nodes = (
"427 392 OFFCURVE",
"424 407 OFFCURVE",
"366 414 CURVE SMOOTH",
"350 416 LINE",
"350 439 LINE",
"454 436 LINE",
"405 337 LINE"
);
},
{
closed = 1;
nodes = (
"454 436 LINE",
"536 439 LINE",
"536 416 LINE",
"520 414 LINE SMOOTH",
"466 407 OFFCURVE",
"443 365 OFFCURVE",
"416 306 CURVE"
);
}
);
width = 516;
},
{
associatedMasterId = "9372F035-DA38-4B54-966C-CEBA9B53DD02";
backgroundImage = {
crop = "{{1363.869, 1158.434}, {193.502, 319.279}}";
imagePath = "../../ANRT-Baskerwille/1878 Limprimerie Berger Levrault Notice historique/Romain/JACOB-notice-187536.jpg";
locked = "1";
transform = "{3.101, 0, 0, 3.101, -4229, -3872}";
};
layerId = "3B5C7B47-9700-436E-98CD-05FBAE624F73";
name = "Oct 17 17, 10:32";
paths = (
{
closed = 1;
nodes = (
"329 59 LINE",
"303 -10 LINE",
"275 -10 LINE",
"85 436 LINE",
"173 436 LINE"
);
},
{
closed = 1;
nodes = (
"303 -10 LINE",
"276 -10 LINE",
"496 436 LINE",
"523 436 LINE"
);
},
{
closed = 1;
nodes = (
"111 379 OFFCURVE",
"92 406 OFFCURVE",
"46 414 CURVE SMOOTH",
"35 416 LINE",
"35 439 LINE",
"132 438 LINE",
"268 439 LINE",
"268 416 LINE",
"258 414 LINE SMOOTH",
"214 407 OFFCURVE",
"190 394 OFFCURVE",
"212 339 CURVE",
"165 322 LINE",
"132 325 LINE"
);
},
{
closed = 1;
nodes = (
"471 394 OFFCURVE",
"457 406 OFFCURVE",
"409 414 CURVE SMOOTH",
"393 416 LINE",
"393 439 LINE",
"497 436 LINE",
"449 339 LINE"
);
},
{
closed = 1;
nodes = (
"497 436 LINE",
"576 439 LINE",
"576 416 LINE",
"560 414 LINE SMOOTH",
"502 407 OFFCURVE",
"486 365 OFFCURVE",
"459 306 CURVE"
);
},
{
closed = 1;
nodes = (
"231 -163 LINE SMOOTH",
"199 -231 OFFCURVE",
"152 -294 OFFCURVE",
"69 -294 CURVE SMOOTH",
"23 -294 OFFCURVE",
"-1 -275 OFFCURVE",
"-1 -241 CURVE SMOOTH",
"-1 -215 OFFCURVE",
"23 -194 OFFCURVE",
"55 -194 CURVE SMOOTH",
"91 -194 OFFCURVE",
"97 -224 OFFCURVE",
"122 -224 CURVE SMOOTH",
"150 -224 OFFCURVE",
"175 -211 OFFCURVE",
"192 -177 CURVE SMOOTH",
"282 2 LINE",
"309 3 LINE"
);
}
);
width = 600;
}
);
unicode = 0079;
},
{
glyphname = z;
lastChange = "2017-10-17 15:50:19 +0000";
layers = (
{
backgroundImage = {
crop = "{{1314.97, 1297.492}, {227.964, 376.14}}";
imagePath = "../../../../alexisfaudot/Desktop/ANRT-Baskerwille/1878 Limprimerie Berger Levrault Notice historique/Romain/JACOB-notice-187533.jpg";
locked = "1";
transform = "{2.631, -0.069, 0.069, 2.631, -3547, -3695}";
};
layerId = "9372F035-DA38-4B54-966C-CEBA9B53DD02";
paths = (
{
closed = 1;
nodes = (
"31 0 LINE",
"93 0 LINE",
"421 409 LINE",
"415 436 LINE",
"350 436 LINE",
"25 27 LINE"
);
},
{
closed = 1;
nodes = (
"88 0 LINE",
"431 0 LINE",
"444 158 LINE",
"421 158 LINE",
"406 43 OFFCURVE",
"359 31 OFFCURVE",
"250 26 CURVE",
"88 22 LINE"
);
},
{
closed = 1;
nodes = (
"404 436 LINE",
"71 436 LINE",
"38 278 LINE",
"61 278 LINE",
"74 368 OFFCURVE",
"95 403 OFFCURVE",
"242 410 CURVE",
"404 414 LINE"
);
}
);
width = 469;
}
);
unicode = 007A;
},
{
glyphname = r.ss01;
lastChange = "2017-10-16 12:00:11 +0000";
layers = (
{
background = {
paths = (
{
closed = 1;
nodes = (
"198 381 LINE",
"198 0 LINE",
"128 0 LINE",
"128 382 LINE"
);
},
{
closed = 1;
nodes = (
"374 449 OFFCURVE",
"389 414 OFFCURVE",
"389 389 CURVE SMOOTH",
"389 362 OFFCURVE",
"367 336 OFFCURVE",
"340 336 CURVE SMOOTH",
"307 336 OFFCURVE",
"289 363 OFFCURVE",
"289 386 CURVE SMOOTH",
"289 400 OFFCURVE",
"292 411 OFFCURVE",
"300 422 CURVE",
"233 422 OFFCURVE",
"174 319 OFFCURVE",
"172 252 CURVE",
"167 274 LINE",
"168 364 OFFCURVE",
"233 450 OFFCURVE",
"323 450 CURVE"
);
}
);
};
backgroundImage = {
crop = "{{1873.86, 838.526}, {170.593, 376.14}}";
imagePath = "../../../../alexisfaudot/Desktop/ANRT-Baskerwille/1878 Limprimerie Berger Levrault Notice historique/Romain/JACOB-notice-187519.jpg";
locked = "1";
transform = "{2.632, 0, 0, 2.632, -4942, -2487}";
};
components = (
{
name = _part;
transform = "{1, 0, 0, 1, 10, 0}";
}
);
hints = (
{
origin = "{0, 2}";
scale = "{-1, 1}";
type = Corner;
name = "_corner-bdc";
options = 1;
},
{
origin = "{0, 1}";
type = Corner;
name = "_corner-bdc";
}
);
layerId = "9372F035-DA38-4B54-966C-CEBA9B53DD02";
paths = (
{
closed = 1;
nodes = (
"198 381 LINE",
"198 0 LINE",
"128 0 LINE",
"128 382 LINE"
);
},
{
closed = 1;
nodes = (
"374 449 OFFCURVE",
"389 414 OFFCURVE",
"389 389 CURVE SMOOTH",
"389 362 OFFCURVE",
"367 336 OFFCURVE",
"340 336 CURVE SMOOTH",
"307 336 OFFCURVE",
"289 363 OFFCURVE",
"289 386 CURVE SMOOTH",
"289 400 OFFCURVE",
"292 411 OFFCURVE",
"300 422 CURVE",
"233 422 OFFCURVE",
"174 319 OFFCURVE",
"172 252 CURVE",
"167 274 LINE",
"168 364 OFFCURVE",
"233 450 OFFCURVE",
"323 450 CURVE"
);
}
);
width = 399;
},
{
associatedMasterId = "9372F035-DA38-4B54-966C-CEBA9B53DD02";
backgroundImage = {
crop = "{{1873.86, 838.526}, {227.964, 376.14}}";
imagePath = "../../../../alexisfaudot/Desktop/ANRT-Baskerwille/1878 Limprimerie Berger Levrault Notice historique/Romain/JACOB-notice-187519.jpg";
locked = "1";
transform = "{2.632, 0, 0, 2.632, -4932, -2487}";
};
components = (
{
name = _part;
transform = "{1, 0, 0, 1, 30, 0}";
}
);
layerId = "BA52FC5E-3A3E-4B99-B5CA-3BD2F93D4D1F";
name = "Oct 13 17, 11:24";
width = 600;
}
);
},
{
glyphname = fi;
lastChange = "2017-10-17 13:20:22 +0000";
layers = (
{
backgroundImage = {
crop = "{{953.479, 1271.182}, {236.88, 368.728}}";
imagePath = "/Users/alexisfaudot/Desktop/ANRT-Baskerwille/1878 Limprimerie Berger Levrault Notice historique/Romain/JACOB-notice-187501.jpg";
locked = "1";
transform = "{2.685, 0, 0, 2.685, -2560, -3693}";
};
components = (
{
name = "_part-bdc";
transform = "{1, 0, 0, 1, 295, 0}";
}
);
hints = (
{
origin = "{0, 2}";
scale = "{-1, 1}";
type = Corner;
name = "_corner-bdc";
options = 1;
},
{
origin = "{0, 1}";
type = Corner;
name = "_corner-bdc";
},
{
origin = "{1, 1}";
type = Corner;
name = "_corner-bdc";
},
{
origin = "{1, 2}";
scale = "{-1, 1}";
type = Corner;
name = "_corner-bdc";
options = 1;
}
);
layerId = "9372F035-DA38-4B54-966C-CEBA9B53DD02";
paths = (
{
closed = 1;
nodes = (
"483 365 LINE",
"483 0 LINE",
"413 0 LINE",
"413 365 LINE"
);
},
{
closed = 1;
nodes = (
"196 550 LINE",
"196 0 LINE",
"126 0 LINE",
"126 550 LINE"
);
},
{
closed = 1;
nodes = (
"196 550 LINE",
"196 630 OFFCURVE",
"213 699 OFFCURVE",
"306 699 CURVE SMOOTH",
"336 699 OFFCURVE",
"351 692 OFFCURVE",
"351 675 CURVE SMOOTH",
"351 664 OFFCURVE",
"342 656 OFFCURVE",
"342 636 CURVE SMOOTH",
"342 611 OFFCURVE",
"361 590 OFFCURVE",
"386 590 CURVE SMOOTH",
"413 590 OFFCURVE",
"435 608 OFFCURVE",
"435 639 CURVE SMOOTH",
"435 702 OFFCURVE",
"383 724 OFFCURVE",
"306 724 CURVE SMOOTH",
"182 724 OFFCURVE",
"126 661 OFFCURVE",
"126 550 CURVE"
);
},
{
closed = 1;
nodes = (
"349 436 LINE",
"349 413 LINE",
"30 413 LINE",
"30 436 LINE"
);
}
);
width = 586;
}
);
leftMetricsKey = f;
rightMetricsKey = i;
unicode = FB01;
},
{
glyphname = zero;
lastChange = "2017-10-17 13:36:05 +0000";
layers = (
{
layerId = "9372F035-DA38-4B54-966C-CEBA9B53DD02";
paths = (
{
closed = 1;
nodes = (
"371 -14 OFFCURVE",
"450 82 OFFCURVE",
"450 220 CURVE SMOOTH",
"450 358 OFFCURVE",
"371 454 OFFCURVE",
"245 454 CURVE SMOOTH",
"119 454 OFFCURVE",
"40 358 OFFCURVE",
"40 220 CURVE SMOOTH",
"40 82 OFFCURVE",
"119 -14 OFFCURVE",
"245 -14 CURVE SMOOTH"
);
},
{
closed = 1;
nodes = (
"167 11 OFFCURVE",
"120 97 OFFCURVE",
"120 220 CURVE SMOOTH",
"120 343 OFFCURVE",
"167 429 OFFCURVE",
"245 429 CURVE SMOOTH",
"323 429 OFFCURVE",
"370 343 OFFCURVE",
"370 220 CURVE SMOOTH",
"370 97 OFFCURVE",
"323 11 OFFCURVE",
"245 11 CURVE SMOOTH"
);
}
);
width = 490;
},
{
associatedMasterId = "9372F035-DA38-4B54-966C-CEBA9B53DD02";
layerId = "E6B8952F-D64A-490A-9CF5-6DF985D88222";
name = "new Layer";
paths = (
{
closed = 1;
nodes = (
"287 -14 OFFCURVE",
"401 82 OFFCURVE",
"451 220 CURVE SMOOTH",
"501 358 OFFCURVE",
"457 454 OFFCURVE",
"331 454 CURVE SMOOTH",
"205 454 OFFCURVE",
"91 358 OFFCURVE",
"41 220 CURVE SMOOTH",
"-9 82 OFFCURVE",
"35 -14 OFFCURVE",
"161 -14 CURVE SMOOTH"
);
},
{
closed = 1;
nodes = (
"92 11 OFFCURVE",
"76 97 OFFCURVE",
"121 220 CURVE SMOOTH",
"166 343 OFFCURVE",
"244 429 OFFCURVE",
"322 429 CURVE SMOOTH",
"400 429 OFFCURVE",
"416 343 OFFCURVE",
"371 220 CURVE SMOOTH",
"326 97 OFFCURVE",
"248 11 OFFCURVE",
"170 11 CURVE SMOOTH"
);
}
);
width = 490;
}
);
unicode = 0030;
},
{
glyphname = one;
lastChange = "2017-10-17 13:36:05 +0000";
layers = (
{
hints = (
{
origin = "{0, 4}";
type = Corner;
name = "_corner-bdc";
},
{
origin = "{0, 5}";
scale = "{-1, 1}";
type = Corner;
name = "_corner-bdc";
options = 1;
}
);
layerId = "9372F035-DA38-4B54-966C-CEBA9B53DD02";
paths = (
{
closed = 1;
nodes = (
"30 389 LINE",
"84 389 OFFCURVE",
"118 403 OFFCURVE",
"118 331 CURVE SMOOTH",
"118 0 LINE",
"188 0 LINE",
"188 454 LINE",
"133 444 OFFCURVE",
"85 419 OFFCURVE",
"30 419 CURVE"
);
}
);
width = 301;
},
{
associatedMasterId = "9372F035-DA38-4B54-966C-CEBA9B53DD02";
hints = (
{
origin = "{0, 4}";
type = Corner;
name = "_corner-bdc";
},
{
origin = "{0, 5}";
scale = "{-1, 1}";
type = Corner;
name = "_corner-bdc";
options = 1;
}
);
layerId = "3A6012CA-9A48-4B0F-B9D9-7B29ED02AA58";
name = "Oct 17 17, 11:54";
paths = (
{
closed = 1;
nodes = (
"30 408 LINE",
"84 408 OFFCURVE",
"118 402 OFFCURVE",
"118 330 CURVE SMOOTH",
"118 0 LINE",
"188 0 LINE",
"188 446 LINE",
"133 436 OFFCURVE",
"85 431 OFFCURVE",
"30 431 CURVE"
);
}
);
width = 301;
},
{
associatedMasterId = "9372F035-DA38-4B54-966C-CEBA9B53DD02";
layerId = "E6B8952F-D64A-490A-9CF5-6DF985D88222";
name = "new Layer";
paths = (
{
closed = 1;
nodes = (
"174 331 LINE SMOOTH",
"201 404 OFFCURVE",
"161 389 OFFCURVE",
"107 389 CURVE",
"118 419 LINE",
"173 419 OFFCURVE",
"230 444 OFFCURVE",
"289 454 CURVE",
"167 121 LINE SMOOTH",
"134 31 OFFCURVE",
"147 29 OFFCURVE",
"203 22 CURVE SMOOTH",
"218 20 LINE",
"209 -3 LINE",
"88 0 LINE",
"-35 -3 LINE",
"-27 20 LINE",
"-11 22 LINE SMOOTH",
"50 30 OFFCURVE",
"65 31 OFFCURVE",
"97 121 CURVE SMOOTH"
);
}
);
width = 335;
}
);
unicode = 0031;
},
{
glyphname = two;
lastChange = "2017-10-17 13:36:05 +0000";
layers = (
{
layerId = "9372F035-DA38-4B54-966C-CEBA9B53DD02";
paths = (
{
closed = 1;
nodes = (
"141 215 LINE",
"102 221 OFFCURVE",
"72 254 OFFCURVE",
"72 310 CURVE SMOOTH",
"72 368 OFFCURVE",
"111 423 OFFCURVE",
"176 423 CURVE SMOOTH",
"245 423 OFFCURVE",
"280 367 OFFCURVE",
"280 303 CURVE SMOOTH",
"280 234 OFFCURVE",
"206 175 OFFCURVE",
"52 15 CURVE",
"52 -5 LINE",
"380 0 LINE",
"380 82 LINE",
"133 65 LINE",
"225 177 OFFCURVE",
"360 213 OFFCURVE",
"360 313 CURVE SMOOTH",
"360 392 OFFCURVE",
"290 453 OFFCURVE",
"191 453 CURVE SMOOTH",
"106 453 OFFCURVE",
"46 383 OFFCURVE",
"46 313 CURVE SMOOTH",
"46 252 OFFCURVE",
"89 202 OFFCURVE",
"141 194 CURVE"
);
},
{
closed = 1;
nodes = (
"380 82 LINE",
"362 72 LINE",
"362 -40 LINE",
"380 -40 LINE"
);
}
);
width = 420;
},
{
associatedMasterId = "9372F035-DA38-4B54-966C-CEBA9B53DD02";
layerId = "C92A1EF9-EF50-410D-BB22-3A00B08A48D5";
name = "Oct 16 17, 11:21";
paths = (
{
closed = 1;
nodes = (
"125 204 LINE",
"125 220 LINE"
);
},
{
closed = 1;
nodes = (
"125 220 LINE",
"86 232 OFFCURVE",
"50 264 OFFCURVE",
"50 320 CURVE SMOOTH",
"50 378 OFFCURVE",
"96 430 OFFCURVE",
"157 430 CURVE SMOOTH",
"210 430 OFFCURVE",
"250 377 OFFCURVE",
"250 313 CURVE SMOOTH",
"250 244 OFFCURVE",
"206 177 OFFCURVE",
"52 17 CURVE",
"52 -5 LINE",
"280 0 LINE",
"287 -56 LINE",
"302 -56 LINE",
"307 -1 OFFCURVE",
"313 36 OFFCURVE",
"330 82 CURVE",
"113 65 LINE",
"110 44 LINE",
"202 156 OFFCURVE",
"330 222 OFFCURVE",
"330 323 CURVE SMOOTH",
"330 392 OFFCURVE",
"265 450 OFFCURVE",
"176 450 CURVE SMOOTH",
"91 450 OFFCURVE",
"30 390 OFFCURVE",
"30 320 CURVE SMOOTH",
"30 259 OFFCURVE",
"73 218 OFFCURVE",
"125 204 CURVE"
);
}
);
width = 360;
},
{
associatedMasterId = "9372F035-DA38-4B54-966C-CEBA9B53DD02";
layerId = "A8E1C4B8-A7E6-4BB3-B48F-EF476E345814";
name = "Oct 16 17, 12:22";
paths = (
{
closed = 1;
nodes = (
"125 225 LINE",
"86 231 OFFCURVE",
"62 264 OFFCURVE",
"62 320 CURVE SMOOTH",
"62 378 OFFCURVE",
"96 420 OFFCURVE",
"157 420 CURVE SMOOTH",
"210 420 OFFCURVE",
"250 377 OFFCURVE",
"250 313 CURVE SMOOTH",
"250 244 OFFCURVE",
"206 175 OFFCURVE",
"52 15 CURVE",
"52 -5 LINE",
"330 0 LINE",
"330 82 LINE",
"113 65 LINE",
"110 44 LINE",
"202 156 OFFCURVE",
"330 222 OFFCURVE",
"330 323 CURVE SMOOTH",
"330 392 OFFCURVE",
"265 450 OFFCURVE",
"176 450 CURVE SMOOTH",
"91 450 OFFCURVE",
"30 390 OFFCURVE",
"30 320 CURVE SMOOTH",
"30 259 OFFCURVE",
"73 212 OFFCURVE",
"125 204 CURVE"
);
},
{
closed = 1;
nodes = (
"330 82 LINE",
"312 72 LINE",
"312 -40 LINE",
"330 -40 LINE"
);
}
);
width = 360;
},
{
associatedMasterId = "9372F035-DA38-4B54-966C-CEBA9B53DD02";
layerId = "8E453B26-DA04-4356-9938-960E9DAA0B0A";
name = "Oct 17 17, 11:57";
paths = (
{
closed = 1;
nodes = (
"125 215 LINE",
"86 221 OFFCURVE",
"62 254 OFFCURVE",
"62 310 CURVE SMOOTH",
"62 368 OFFCURVE",
"96 420 OFFCURVE",
"157 420 CURVE SMOOTH",
"210 420 OFFCURVE",
"260 367 OFFCURVE",
"260 303 CURVE SMOOTH",
"260 234 OFFCURVE",
"206 175 OFFCURVE",
"52 15 CURVE",
"52 -5 LINE",
"330 0 LINE",
"330 82 LINE",
"128 65 LINE",
"220 177 OFFCURVE",
"340 213 OFFCURVE",
"340 313 CURVE SMOOTH",
"340 382 OFFCURVE",
"265 450 OFFCURVE",
"176 450 CURVE SMOOTH",
"91 450 OFFCURVE",
"30 380 OFFCURVE",
"30 310 CURVE SMOOTH",
"30 249 OFFCURVE",
"73 202 OFFCURVE",
"125 194 CURVE"
);
},
{
closed = 1;
nodes = (
"330 82 LINE",
"312 72 LINE",
"312 -40 LINE",
"330 -40 LINE"
);
}
);
width = 360;
},
{
associatedMasterId = "9372F035-DA38-4B54-966C-CEBA9B53DD02";
layerId = "E6B8952F-D64A-490A-9CF5-6DF985D88222";
name = "new Layer";
paths = (
{
closed = 1;
nodes = (
"144 215 LINE",
"107 221 OFFCURVE",
"89 254 OFFCURVE",
"110 310 CURVE SMOOTH",
"131 368 OFFCURVE",
"190 423 OFFCURVE",
"255 423 CURVE SMOOTH",
"324 423 OFFCURVE",
"338 367 OFFCURVE",
"315 303 CURVE SMOOTH",
"290 234 OFFCURVE",
"195 175 OFFCURVE",
"-18 15 CURVE",
"-25 -5 LINE",
"305 0 LINE",
"335 82 LINE",
"81 65 LINE",
"214 177 OFFCURVE",
"362 213 OFFCURVE",
"399 313 CURVE SMOOTH",
"428 392 OFFCURVE",
"380 453 OFFCURVE",
"281 453 CURVE SMOOTH",
"196 453 OFFCURVE",
"110 383 OFFCURVE",
"85 313 CURVE SMOOTH",
"63 252 OFFCURVE",
"87 202 OFFCURVE",
"136 194 CURVE"
);
},
{
closed = 1;
nodes = (
"335 82 LINE",
"313 72 LINE",
"272 -40 LINE",
"290 -40 LINE"
);
}
);
width = 434;
}
);
unicode = 0032;
},
{
glyphname = three;
lastChange = "2017-10-17 13:36:05 +0000";
layers = (
{
backgroundImage = {
crop = "{{1627.778, 919.259}, {222.222, 366.667}}";
imagePath = "../../1878 Limprimerie Berger Levrault Notice historique/Romain/JACOB-notice-187523.jpg";
transform = "{2.7, 0, 0, 2.7, -4549, -2762}";
};
layerId = "9372F035-DA38-4B54-966C-CEBA9B53DD02";
paths = (
{
closed = 1;
nodes = (
"188 125 OFFCURVE",
"178 125 OFFCURVE",
"167 123 CURVE",
"224 171 OFFCURVE",
"350 216 OFFCURVE",
"350 313 CURVE SMOOTH",
"350 392 OFFCURVE",
"280 453 OFFCURVE",
"181 453 CURVE SMOOTH",
"96 453 OFFCURVE",
"36 383 OFFCURVE",
"36 313 CURVE SMOOTH",
"36 252 OFFCURVE",
"79 202 OFFCURVE",
"131 194 CURVE",
"131 215 LINE",
"92 221 OFFCURVE",
"62 254 OFFCURVE",
"62 310 CURVE SMOOTH",
"62 368 OFFCURVE",
"101 423 OFFCURVE",
"166 423 CURVE SMOOTH",
"235 423 OFFCURVE",
"270 367 OFFCURVE",
"270 303 CURVE SMOOTH",
"270 234 OFFCURVE",
"215 190 OFFCURVE",
"132 112 CURVE",
"132 79 LINE",
"148 90 OFFCURVE",
"167 99 OFFCURVE",
"199 99 CURVE SMOOTH",
"249 99 OFFCURVE",
"295 47 OFFCURVE",
"287 -72 CURVE SMOOTH",
"278 -212 OFFCURVE",
"198 -265 OFFCURVE",
"120 -265 CURVE SMOOTH",
"13 -265 OFFCURVE",
"65 -164 OFFCURVE",
"18 -164 CURVE SMOOTH",
"-7 -164 OFFCURVE",
"-20 -177 OFFCURVE",
"-20 -200 CURVE SMOOTH",
"-20 -243 OFFCURVE",
"22 -291 OFFCURVE",
"118 -290 CURVE SMOOTH",
"197 -289 OFFCURVE",
"361 -226 OFFCURVE",
"371 -72 CURVE SMOOTH",
"379 47 OFFCURVE",
"326 125 OFFCURVE",
"198 125 CURVE SMOOTH"
);
}
);
width = 422;
},
{
associatedMasterId = "9372F035-DA38-4B54-966C-CEBA9B53DD02";
backgroundImage = {
crop = "{{1627.778, 919.259}, {222.222, 366.667}}";
imagePath = "../../1878 Limprimerie Berger Levrault Notice historique/Romain/JACOB-notice-187523.jpg";
transform = "{2.7, 0, 0, 2.7, -4569, -2762}";
};
layerId = "0EB56064-589C-4CA1-B490-F29978E73C5E";
name = "Oct 17 17, 12:03";
paths = (
{
closed = 1;
nodes = (
"178 125 LINE",
"253 193 OFFCURVE",
"324 240 OFFCURVE",
"324 320 CURVE SMOOTH",
"324 389 OFFCURVE",
"259 454 OFFCURVE",
"170 454 CURVE SMOOTH",
"85 454 OFFCURVE",
"14 392 OFFCURVE",
"14 322 CURVE SMOOTH",
"14 261 OFFCURVE",
"52 229 OFFCURVE",
"104 221 CURVE",
"104 242 LINE",
"65 248 OFFCURVE",
"41 279 OFFCURVE",
"41 322 CURVE SMOOTH",
"41 384 OFFCURVE",
"109 424 OFFCURVE",
"151 424 CURVE SMOOTH",
"219 424 OFFCURVE",
"268 374 OFFCURVE",
"268 310 CURVE SMOOTH",
"268 241 OFFCURVE",
"213 187 OFFCURVE",
"112 112 CURVE",
"165 116 LINE"
);
},
{
closed = 1;
nodes = (
"177 -289 OFFCURVE",
"321 -226 OFFCURVE",
"331 -72 CURVE SMOOTH",
"339 47 OFFCURVE",
"306 125 OFFCURVE",
"178 125 CURVE SMOOTH",
"157 125 OFFCURVE",
"135 123 OFFCURVE",
"112 112 CURVE",
"112 79 LINE",
"128 90 OFFCURVE",
"147 99 OFFCURVE",
"179 99 CURVE SMOOTH",
"229 99 OFFCURVE",
"255 47 OFFCURVE",
"247 -72 CURVE SMOOTH",
"238 -212 OFFCURVE",
"178 -265 OFFCURVE",
"100 -265 CURVE SMOOTH",
"-7 -265 OFFCURVE",
"45 -164 OFFCURVE",
"-2 -164 CURVE SMOOTH",
"-27 -164 OFFCURVE",
"-40 -177 OFFCURVE",
"-40 -200 CURVE SMOOTH",
"-40 -243 OFFCURVE",
"2 -291 OFFCURVE",
"98 -290 CURVE SMOOTH"
);
}
);
width = 405;
},
{
associatedMasterId = "9372F035-DA38-4B54-966C-CEBA9B53DD02";
layerId = "E6B8952F-D64A-490A-9CF5-6DF985D88222";
name = "new Layer";
paths = (
{
closed = 1;
nodes = (
"174 125 OFFCURVE",
"164 125 OFFCURVE",
"152 123 CURVE",
"227 171 OFFCURVE",
"369 216 OFFCURVE",
"404 313 CURVE SMOOTH",
"433 392 OFFCURVE",
"385 453 OFFCURVE",
"286 453 CURVE SMOOTH",
"201 453 OFFCURVE",
"116 383 OFFCURVE",
"90 313 CURVE SMOOTH",
"68 252 OFFCURVE",
"93 202 OFFCURVE",
"142 194 CURVE",
"150 215 LINE",
"113 221 OFFCURVE",
"95 254 OFFCURVE",
"115 310 CURVE SMOOTH",
"136 368 OFFCURVE",
"195 423 OFFCURVE",
"260 423 CURVE SMOOTH",
"329 423 OFFCURVE",
"344 367 OFFCURVE",
"321 303 CURVE SMOOTH",
"296 234 OFFCURVE",
"224 190 OFFCURVE",
"113 112 CURVE",
"101 79 LINE",
"121 90 OFFCURVE",
"143 99 OFFCURVE",
"175 99 CURVE SMOOTH",
"225 99 OFFCURVE",
"252 47 OFFCURVE",
"201 -72 CURVE SMOOTH",
"141 -212 OFFCURVE",
"42 -265 OFFCURVE",
"-36 -265 CURVE SMOOTH",
"-143 -265 OFFCURVE",
"-54 -164 OFFCURVE",
"-101 -164 CURVE SMOOTH",
"-126 -164 OFFCURVE",
"-144 -177 OFFCURVE",
"-152 -200 CURVE SMOOTH",
"-168 -243 OFFCURVE",
"-144 -291 OFFCURVE",
"-47 -290 CURVE SMOOTH",
"32 -289 OFFCURVE",
"219 -226 OFFCURVE",
"285 -72 CURVE SMOOTH",
"336 47 OFFCURVE",
"312 125 OFFCURVE",
"184 125 CURVE SMOOTH"
);
}
);
width = 441;
}
);
unicode = 0033;
},
{
glyphname = four;
lastChange = "2017-10-17 13:36:05 +0000";
layers = (
{
background = {
hints = (
{
place = "{0, 0}";
type = Corner;
name = "_corner-bdc";
},
{
place = "{0, 0}";
scale = "{1, -1}";
type = Corner;
name = "_corner-bdc";
options = 1;
},
{
origin = "{0, 4}";
type = Corner;
name = "_corner-bdc";
},
{
origin = "{0, 5}";
scale = "{1, -1}";
type = Corner;
name = "_corner-bdc";
options = 1;
}
);
paths = (
{
closed = 1;
nodes = (
"354 710 LINE",
"40 242 LINE",
"40 222 LINE",
"276 222 LINE",
"276 0 LINE",
"366 0 LINE",
"366 222 LINE",
"500 222 LINE",
"500 242 LINE",
"366 242 LINE",
"366 710 LINE"
);
},
{
closed = 1;
nodes = (
"276 242 LINE",
"57 242 LINE",
"54 226 LINE",
"300 588 LINE",
"276 580 LINE"
);
}
);
};
backgroundImage = {
crop = "{{1548.519, 1244.074}, {222.222, 366.667}}";
imagePath = "../../1878 Limprimerie Berger Levrault Notice historique/Romain/JACOB-notice-187522.jpg";
locked = "1";
transform = "{2.7, 0, 0, 2.7, -4221, -3622}";
};
hints = (
{
origin = "{0, 5}";
scale = "{1, -1}";
type = Corner;
name = "_corner-bdc";
options = 1;
},
{
origin = "{0, 4}";
type = Corner;
name = "_corner-bdc";
}
);
layerId = "9372F035-DA38-4B54-966C-CEBA9B53DD02";
paths = (
{
closed = 1;
nodes = (
"334 710 LINE",
"40 242 LINE",
"40 222 LINE",
"276 222 LINE",
"276 0 LINE",
"346 0 LINE",
"346 222 LINE",
"480 222 LINE",
"480 247 LINE",
"346 247 LINE",
"346 710 LINE"
);
},
{
closed = 1;
nodes = (
"276 247 LINE",
"72 247 LINE",
"276 573 LINE"
);
}
);
width = 540;
},
{
associatedMasterId = "9372F035-DA38-4B54-966C-CEBA9B53DD02";
background = {
paths = (
{
closed = 1;
nodes = (
"356 710 OFFCURVE",
"347 713 OFFCURVE",
"339 703 CURVE",
"30 242 LINE",
"30 222 LINE",
"266 222 LINE",
"266 0 LINE",
"356 0 LINE",
"356 222 LINE",
"490 222 LINE",
"490 242 LINE",
"356 242 LINE",
"356 700 LINE"
);
}
);
};
backgroundImage = {
crop = "{{1548.519, 1244.074}, {222.222, 366.667}}";
imagePath = "../../1878 Limprimerie Berger Levrault Notice historique/Romain/JACOB-notice-187522.jpg";
locked = "1";
transform = "{2.7, 0, 0, 2.7, -4231, -3622}";
};
hints = (
{
origin = "{0, 5}";
scale = "{1, -1}";
type = Corner;
name = "_corner-bdc";
options = 1;
},
{
origin = "{0, 4}";
type = Corner;
name = "_corner-bdc";
}
);
layerId = "96C70FD4-32BB-44A7-BFFB-954A20F34F86";
name = "Oct 17 17, 11:54";
paths = (
{
closed = 1;
nodes = (
"344 710 LINE",
"30 242 LINE",
"30 222 LINE",
"266 222 LINE",
"266 0 LINE",
"356 0 LINE",
"356 222 LINE",
"490 222 LINE",
"490 242 LINE",
"356 242 LINE",
"356 710 LINE"
);
},
{
closed = 1;
nodes = (
"266 242 LINE",
"47 242 LINE",
"44 226 LINE",
"290 588 LINE",
"266 580 LINE"
);
}
);
width = 550;
},
{
associatedMasterId = "9372F035-DA38-4B54-966C-CEBA9B53DD02";
layerId = "E6B8952F-D64A-490A-9CF5-6DF985D88222";
name = "new Layer";
paths = (
{
closed = 1;
nodes = (
"48 242 LINE",
"260 242 LINE",
"383 580 LINE"
);
},
{
closed = 1;
nodes = (
"253 222 LINE",
"17 222 LINE",
"24 242 LINE",
"488 710 LINE",
"500 710 LINE",
"330 242 LINE",
"464 242 LINE",
"457 222 LINE",
"323 222 LINE",
"286 121 LINE SMOOTH",
"253 31 OFFCURVE",
"266 29 OFFCURVE",
"322 22 CURVE SMOOTH",
"337 20 LINE",
"328 -3 LINE",
"207 0 LINE",
"84 -3 LINE",
"92 20 LINE",
"108 22 LINE SMOOTH",
"169 30 OFFCURVE",
"184 31 OFFCURVE",
"216 121 CURVE SMOOTH"
);
}
);
width = 496;
},
{
associatedMasterId = "9372F035-DA38-4B54-966C-CEBA9B53DD02";
background = {
paths = (
{
closed = 1;
nodes = (
"354 710 LINE",
"40 242 LINE",
"40 222 LINE",
"276 222 LINE",
"276 0 LINE",
"366 0 LINE",
"366 222 LINE",
"500 222 LINE",
"500 242 LINE",
"366 242 LINE",
"366 710 LINE"
);
},
{
closed = 1;
nodes = (
"276 242 LINE",
"57 242 LINE",
"54 226 LINE",
"300 588 LINE",
"276 580 LINE"
);
}
);
};
backgroundImage = {
crop = "{{1548.519, 1244.074}, {222.222, 366.667}}";
imagePath = "../../1878 Limprimerie Berger Levrault Notice historique/Romain/JACOB-notice-187522.jpg";
locked = "1";
transform = "{2.7, 0, 0, 2.7, -4221, -3622}";
};
hints = (
{
origin = "{0, 5}";
scale = "{1, -1}";
type = Corner;
name = "_corner-bdc";
options = 1;
},
{
origin = "{0, 4}";
type = Corner;
name = "_corner-bdc";
}
);
layerId = "508C3F73-4C6D-439B-BA11-C64FDCFAA8BE";
name = "Oct 17 17, 14:15";
paths = (
{
closed = 1;
nodes = (
"334 710 LINE",
"40 242 LINE",
"40 222 LINE",
"276 222 LINE",
"276 0 LINE",
"346 0 LINE",
"346 222 LINE",
"480 222 LINE",
"480 242 LINE",
"346 242 LINE",
"346 710 LINE"
);
},
{
closed = 1;
nodes = (
"276 242 LINE",
"64 242 LINE",
"276 580 LINE"
);
}
);
width = 540;
}
);
unicode = 0034;
},
{
glyphname = five;
lastChange = "2017-10-17 13:36:05 +0000";
layers = (
{
backgroundImage = {
crop = "{{1635.926, 1082.222}, {258.889, 366.667}}";
imagePath = "../../1878 Limprimerie Berger Levrault Notice historique/Romain/JACOB-notice-187524.jpg";
locked = "1";
transform = "{2.7, 0, 0, 2.7, -4542, -3187}";
};
guideLines = (
{
angle = 86;
position = "{412, 239}";
},
{
angle = 86;
position = "{218, 436}";
},
{
angle = 86;
position = "{328, 239}";
},
{
angle = 86;
position = "{105, 367}";
}
);
layerId = "9372F035-DA38-4B54-966C-CEBA9B53DD02";
paths = (
{
closed = 1;
nodes = (
"290 -10 OFFCURVE",
"403 109 OFFCURVE",
"412 239 CURVE SMOOTH",
"421 365 OFFCURVE",
"339 454 OFFCURVE",
"249 454 CURVE SMOOTH",
"180 454 OFFCURVE",
"121 424 OFFCURVE",
"106 386 CURVE",
"105 367 LINE",
"117 366 LINE",
"133 406 OFFCURVE",
"176 424 OFFCURVE",
"247 424 CURVE SMOOTH",
"305 424 OFFCURVE",
"338 379 OFFCURVE",
"328 239 CURVE SMOOTH",
"318 97 OFFCURVE",
"244 20 OFFCURVE",
"166 20 CURVE SMOOTH",
"87 20 OFFCURVE",
"104 99 OFFCURVE",
"71 99 CURVE SMOOTH",
"46 99 OFFCURVE",
"30 84 OFFCURVE",
"30 61 CURVE SMOOTH",
"30 18 OFFCURVE",
"66 -10 OFFCURVE",
"162 -10 CURVE SMOOTH"
);
},
{
closed = 1;
nodes = (
"99 367 LINE",
"117 366 LINE",
"144 718 LINE",
"124 719 LINE"
);
},
{
closed = 1;
nodes = (
"270 609 LINE SMOOTH",
"365 613 OFFCURVE",
"389 638 OFFCURVE",
"406 720 CURVE",
"381 701 OFFCURVE",
"318 697 OFFCURVE",
"276 695 CURVE SMOOTH",
"127 688 LINE",
"121 602 LINE"
);
}
);
width = 454;
},
{
associatedMasterId = "9372F035-DA38-4B54-966C-CEBA9B53DD02";
backgroundImage = {
crop = "{{1635.926, 1082.222}, {258.889, 366.667}}";
imagePath = "../../../../1878 Limprimerie Berger Levrault Notice historique/Romain/JACOB-notice-187524.jpg";
locked = "1";
transform = "{2.7, 0, 0, 2.7, -4542, -3187}";
};
layerId = "1710717F-5F7B-423D-9105-4DE92A9FDE94";
name = "Oct 16 17, 11:23";
paths = (
{
closed = 1;
nodes = (
"288 -5 OFFCURVE",
"396 109 OFFCURVE",
"412 239 CURVE SMOOTH",
"428 365 OFFCURVE",
"349 465 OFFCURVE",
"229 465 CURVE SMOOTH",
"200 465 OFFCURVE",
"173 459 OFFCURVE",
"151 424 CURVE",
"147 366 LINE",
"147 416 OFFCURVE",
"182 440 OFFCURVE",
"213 440 CURVE",
"301 440 OFFCURVE",
"343 379 OFFCURVE",
"328 239 CURVE SMOOTH",
"313 99 OFFCURVE",
"248 18 OFFCURVE",
"160 18 CURVE",
"91 18 OFFCURVE",
"104 89 OFFCURVE",
"71 89 CURVE SMOOTH",
"51 89 OFFCURVE",
"40 78 OFFCURVE",
"40 61 CURVE SMOOTH",
"40 23 OFFCURVE",
"96 -5 OFFCURVE",
"160 -5 CURVE SMOOTH"
);
},
{
closed = 1;
nodes = (
"129 367 LINE",
"147 366 LINE",
"163 598 LINE",
"173 675 LINE",
"153 700 LINE"
);
},
{
closed = 1;
nodes = (
"258 602 LINE SMOOTH",
"323 606 OFFCURVE",
"345 650 OFFCURVE",
"350 697 CURVE SMOOTH",
"351 706 OFFCURVE",
"349 712 OFFCURVE",
"342 707 CURVE SMOOTH",
"289 671 OFFCURVE",
"231 675 OFFCURVE",
"173 675 CURVE SMOOTH",
"166 675 LINE",
"159 596 LINE"
);
}
);
width = 454;
},
{
associatedMasterId = "9372F035-DA38-4B54-966C-CEBA9B53DD02";
backgroundImage = {
crop = "{{1635.926, 1082.222}, {258.889, 366.667}}";
imagePath = "../../../../1878 Limprimerie Berger Levrault Notice historique/Romain/JACOB-notice-187524.jpg";
locked = "1";
transform = "{2.7, 0, 0, 2.7, -4542, -3187}";
};
guideLines = (
{
angle = 83;
position = "{412, 239}";
},
{
angle = 262.9244;
position = "{238, 602}";
},
{
angle = 83;
position = "{328, 239}";
},
{
angle = 83;
position = "{99, 367}";
}
);
layerId = "8D2F6C0D-CA20-43F9-9222-33E4020A32D5";
name = "Oct 16 17, 12:08";
paths = (
{
closed = 1;
nodes = (
"290 -10 OFFCURVE",
"396 109 OFFCURVE",
"412 239 CURVE SMOOTH",
"428 365 OFFCURVE",
"341 465 OFFCURVE",
"221 465 CURVE SMOOTH",
"192 465 OFFCURVE",
"133 451 OFFCURVE",
"111 416 CURVE",
"105 367 LINE",
"117 366 LINE",
"124 419 OFFCURVE",
"187 440 OFFCURVE",
"218 440 CURVE SMOOTH",
"306 440 OFFCURVE",
"345 379 OFFCURVE",
"328 239 CURVE SMOOTH",
"311 99 OFFCURVE",
"244 20 OFFCURVE",
"166 20 CURVE SMOOTH",
"87 20 OFFCURVE",
"104 99 OFFCURVE",
"71 99 CURVE SMOOTH",
"46 99 OFFCURVE",
"30 84 OFFCURVE",
"30 61 CURVE SMOOTH",
"30 18 OFFCURVE",
"66 -10 OFFCURVE",
"162 -10 CURVE SMOOTH"
);
},
{
closed = 1;
nodes = (
"99 367 LINE",
"117 366 LINE",
"162 718 LINE",
"142 719 LINE"
);
},
{
closed = 1;
nodes = (
"240 622 LINE SMOOTH",
"315 622 OFFCURVE",
"369 648 OFFCURVE",
"376 720 CURVE",
"342 697 OFFCURVE",
"292 700 OFFCURVE",
"250 700 CURVE SMOOTH",
"148 700 LINE",
"138 622 LINE"
);
}
);
width = 454;
},
{
associatedMasterId = "9372F035-DA38-4B54-966C-CEBA9B53DD02";
backgroundImage = {
crop = "{{1635.926, 1082.222}, {258.889, 366.667}}";
imagePath = "../../../../1878 Limprimerie Berger Levrault Notice historique/Romain/JACOB-notice-187524.jpg";
locked = "1";
transform = "{2.7, 0, 0, 2.7, -4542, -3187}";
};
guideLines = (
{
angle = 83;
position = "{412, 239}";
},
{
angle = 262.9244;
position = "{238, 602}";
},
{
angle = 83;
position = "{328, 239}";
},
{
angle = 83;
position = "{99, 367}";
}
);
layerId = "16E3071D-E1E4-403E-842F-648A0131111F";
name = "Oct 16 17, 12:23";
paths = (
{
closed = 1;
nodes = (
"290 -10 OFFCURVE",
"396 109 OFFCURVE",
"412 239 CURVE SMOOTH",
"428 365 OFFCURVE",
"341 465 OFFCURVE",
"221 465 CURVE SMOOTH",
"192 465 OFFCURVE",
"133 451 OFFCURVE",
"111 416 CURVE",
"105 367 LINE",
"117 366 LINE",
"124 419 OFFCURVE",
"187 440 OFFCURVE",
"218 440 CURVE SMOOTH",
"306 440 OFFCURVE",
"345 379 OFFCURVE",
"328 239 CURVE SMOOTH",
"311 99 OFFCURVE",
"244 20 OFFCURVE",
"166 20 CURVE SMOOTH",
"87 20 OFFCURVE",
"104 99 OFFCURVE",
"71 99 CURVE SMOOTH",
"46 99 OFFCURVE",
"30 84 OFFCURVE",
"30 61 CURVE SMOOTH",
"30 18 OFFCURVE",
"66 -10 OFFCURVE",
"162 -10 CURVE SMOOTH"
);
},
{
closed = 1;
nodes = (
"99 367 LINE",
"117 366 LINE",
"162 718 LINE",
"142 719 LINE"
);
},
{
closed = 1;
nodes = (
"240 612 LINE SMOOTH",
"315 619 OFFCURVE",
"369 648 OFFCURVE",
"376 720 CURVE",
"342 697 OFFCURVE",
"292 699 OFFCURVE",
"250 695 CURVE SMOOTH",
"148 685 LINE",
"138 602 LINE"
);
}
);
width = 454;
},
{
associatedMasterId = "9372F035-DA38-4B54-966C-CEBA9B53DD02";
backgroundImage = {
crop = "{{1635.926, 1082.222}, {258.889, 366.667}}";
imagePath = "../../1878 Limprimerie Berger Levrault Notice historique/Romain/JACOB-notice-187524.jpg";
locked = "1";
transform = "{2.7, 0, 0, 2.7, -4542, -3187}";
};
guideLines = (
{
angle = 86;
position = "{412, 239}";
},
{
angle = 86;
position = "{218, 436}";
},
{
angle = 86;
position = "{328, 239}";
},
{
angle = 86;
position = "{105, 367}";
}
);
layerId = "4DFE8D87-2D22-4A62-BDA6-AB70F236CDC3";
name = "Oct 17 17, 12:06";
paths = (
{
closed = 1;
nodes = (
"290 -10 OFFCURVE",
"403 109 OFFCURVE",
"412 239 CURVE SMOOTH",
"421 365 OFFCURVE",
"339 454 OFFCURVE",
"219 454 CURVE SMOOTH",
"190 454 OFFCURVE",
"111 446 OFFCURVE",
"106 386 CURVE",
"105 367 LINE",
"117 366 LINE",
"124 419 OFFCURVE",
"186 424 OFFCURVE",
"217 424 CURVE SMOOTH",
"305 424 OFFCURVE",
"338 379 OFFCURVE",
"328 239 CURVE SMOOTH",
"318 97 OFFCURVE",
"244 20 OFFCURVE",
"166 20 CURVE SMOOTH",
"87 20 OFFCURVE",
"104 99 OFFCURVE",
"71 99 CURVE SMOOTH",
"46 99 OFFCURVE",
"30 84 OFFCURVE",
"30 61 CURVE SMOOTH",
"30 18 OFFCURVE",
"66 -10 OFFCURVE",
"162 -10 CURVE SMOOTH"
);
},
{
closed = 1;
nodes = (
"99 367 LINE",
"117 366 LINE",
"144 718 LINE",
"124 719 LINE"
);
},
{
closed = 1;
nodes = (
"240 609 LINE SMOOTH",
"335 615 OFFCURVE",
"359 638 OFFCURVE",
"376 720 CURVE",
"351 701 OFFCURVE",
"288 697 OFFCURVE",
"246 695 CURVE SMOOTH",
"127 688 LINE",
"121 602 LINE"
);
}
);
width = 454;
},
{
associatedMasterId = "9372F035-DA38-4B54-966C-CEBA9B53DD02";
layerId = "E6B8952F-D64A-490A-9CF5-6DF985D88222";
name = "new Layer";
paths = (
{
closed = 1;
nodes = (
"192 -10 OFFCURVE",
"348 109 OFFCURVE",
"405 239 CURVE SMOOTH",
"460 365 OFFCURVE",
"410 454 OFFCURVE",
"320 454 CURVE SMOOTH",
"251 454 OFFCURVE",
"181 424 OFFCURVE",
"152 386 CURVE",
"144 367 LINE",
"156 366 LINE",
"187 406 OFFCURVE",
"236 424 OFFCURVE",
"307 424 CURVE SMOOTH",
"365 424 OFFCURVE",
"382 379 OFFCURVE",
"321 239 CURVE SMOOTH",
"259 97 OFFCURVE",
"157 20 OFFCURVE",
"79 20 CURVE SMOOTH",
"0 20 OFFCURVE",
"46 99 OFFCURVE",
"13 99 CURVE SMOOTH",
"-12 99 OFFCURVE",
"-34 84 OFFCURVE",
"-42 61 CURVE SMOOTH",
"-58 18 OFFCURVE",
"-32 -10 OFFCURVE",
"64 -10 CURVE SMOOTH"
);
},
{
closed = 1;
nodes = (
"138 367 LINE",
"156 366 LINE",
"311 718 LINE",
"291 719 LINE"
);
},
{
closed = 1;
nodes = (
"397 609 LINE SMOOTH",
"494 613 OFFCURVE",
"527 638 OFFCURVE",
"574 720 CURVE",
"542 701 OFFCURVE",
"477 697 OFFCURVE",
"435 695 CURVE SMOOTH",
"283 688 LINE",
"246 602 LINE"
);
}
);
width = 448;
}
);
unicode = 0035;
},
{
glyphname = six;
lastChange = "2017-10-17 13:36:05 +0000";
layers = (
{
backgroundImage = {
crop = "{{1642.222, 1018.148}, {222.222, 366.667}}";
imagePath = "../../1878 Limprimerie Berger Levrault Notice historique/Romain/JACOB-notice-187532.jpg";
locked = "1";
transform = "{2.7, 0, 0, 2.7, -4459, -3029}";
};
layerId = "9372F035-DA38-4B54-966C-CEBA9B53DD02";
paths = (
{
closed = 1;
nodes = (
"185 696 OFFCURVE",
"130 538 OFFCURVE",
"130 330 CURVE SMOOTH",
"130 222 LINE SMOOTH",
"130 93 OFFCURVE",
"182 20 OFFCURVE",
"260 20 CURVE SMOOTH",
"338 20 OFFCURVE",
"385 93 OFFCURVE",
"385 222 CURVE SMOOTH",
"385 351 OFFCURVE",
"338 424 OFFCURVE",
"260 424 CURVE SMOOTH",
"182 424 OFFCURVE",
"130 351 OFFCURVE",
"130 222 CURVE",
"100 222 LINE",
"100 356 OFFCURVE",
"160 454 OFFCURVE",
"260 454 CURVE SMOOTH",
"380 454 OFFCURVE",
"465 356 OFFCURVE",
"465 222 CURVE SMOOTH",
"465 88 OFFCURVE",
"380 -10 OFFCURVE",
"260 -10 CURVE SMOOTH",
"140 -10 OFFCURVE",
"50 95 OFFCURVE",
"50 295 CURVE SMOOTH",
"50 495 OFFCURVE",
"120 720 OFFCURVE",
"300 720 CURVE SMOOTH",
"400 720 OFFCURVE",
"408 681 OFFCURVE",
"408 657 CURVE SMOOTH",
"408 633 OFFCURVE",
"385 620 OFFCURVE",
"366 620 CURVE SMOOTH",
"334 620 OFFCURVE",
"335 696 OFFCURVE",
"290 696 CURVE SMOOTH"
);
}
);
width = 515;
},
{
associatedMasterId = "9372F035-DA38-4B54-966C-CEBA9B53DD02";
layerId = "E6B8952F-D64A-490A-9CF5-6DF985D88222";
name = "new Layer";
paths = (
{
closed = 1;
nodes = (
"369 696 OFFCURVE",
"257 538 OFFCURVE",
"181 330 CURVE SMOOTH",
"142 222 LINE SMOOTH",
"95 93 OFFCURVE",
"120 20 OFFCURVE",
"198 20 CURVE SMOOTH",
"276 20 OFFCURVE",
"350 93 OFFCURVE",
"397 222 CURVE SMOOTH",
"444 351 OFFCURVE",
"423 424 OFFCURVE",
"345 424 CURVE SMOOTH",
"267 424 OFFCURVE",
"189 351 OFFCURVE",
"142 222 CURVE",
"112 222 LINE",
"160 356 OFFCURVE",
"256 454 OFFCURVE",
"356 454 CURVE SMOOTH",
"476 454 OFFCURVE",
"525 356 OFFCURVE",
"477 222 CURVE SMOOTH",
"428 88 OFFCURVE",
"307 -10 OFFCURVE",
"187 -10 CURVE SMOOTH",
"67 -10 OFFCURVE",
"15 95 OFFCURVE",
"88 295 CURVE SMOOTH",
"161 495 OFFCURVE",
"313 720 OFFCURVE",
"493 720 CURVE SMOOTH",
"593 720 OFFCURVE",
"587 681 OFFCURVE",
"578 657 CURVE SMOOTH",
"569 633 OFFCURVE",
"541 620 OFFCURVE",
"522 620 CURVE SMOOTH",
"490 620 OFFCURVE",
"519 696 OFFCURVE",
"474 696 CURVE SMOOTH"
);
}
);
width = 531;
}
);
unicode = 0036;
},
{
glyphname = seven;
lastChange = "2017-10-17 13:36:05 +0000";
layers = (
{
background = {
paths = (
{
closed = 1;
nodes = (
"68 440 LINE",
"68 510 LINE",
"50 510 LINE",
"50 258 LINE",
"68 258 LINE",
"68 358 LINE",
"383 358 LINE",
"409 440 LINE",
"150 -215 LINE SMOOTH",
"128 -270 OFFCURVE",
"133 -312 OFFCURVE",
"167 -312 CURVE SMOOTH",
"192 -312 OFFCURVE",
"207 -296 OFFCURVE",
"223 -243 CURVE SMOOTH",
"428 440 LINE"
);
}
);
};
layerId = "9372F035-DA38-4B54-966C-CEBA9B53DD02";
paths = (
{
closed = 1;
nodes = (
"68 440 LINE",
"68 510 LINE",
"50 510 LINE",
"50 258 LINE",
"68 258 LINE",
"68 358 LINE",
"383 358 LINE",
"399 428 LINE",
"150 -215 LINE SMOOTH",
"129 -270 OFFCURVE",
"133 -312 OFFCURVE",
"167 -312 CURVE SMOOTH",
"177 -312 OFFCURVE",
"205 -300 OFFCURVE",
"220 -249 CURVE SMOOTH",
"428 440 LINE"
);
}
);
width = 488;
},
{
associatedMasterId = "9372F035-DA38-4B54-966C-CEBA9B53DD02";
background = {
paths = (
{
closed = 1;
nodes = (
"54 440 LINE",
"54 510 LINE",
"36 510 LINE",
"36 258 LINE",
"54 258 LINE",
"54 358 LINE",
"369 358 LINE",
"395 440 LINE",
"136 -215 LINE SMOOTH",
"114 -270 OFFCURVE",
"119 -312 OFFCURVE",
"153 -312 CURVE SMOOTH",
"178 -312 OFFCURVE",
"193 -296 OFFCURVE",
"209 -243 CURVE SMOOTH",
"414 440 LINE"
);
}
);
};
layerId = "04677746-CD67-4685-B628-2597F82A9F2A";
name = "Oct 13 17, 15:08";
paths = (
{
closed = 1;
nodes = (
"54 440 LINE",
"54 510 LINE",
"36 510 LINE",
"36 258 LINE",
"54 258 LINE",
"54 358 LINE",
"369 358 LINE",
"395 440 LINE",
"136 -215 LINE SMOOTH",
"114 -270 OFFCURVE",
"119 -312 OFFCURVE",
"153 -312 CURVE SMOOTH",
"163 -312 OFFCURVE",
"179 -302 OFFCURVE",
"199 -252 CURVE SMOOTH",
"231 -175 OFFCURVE",
"280 -7 OFFCURVE",
"390 360 CURVE SMOOTH",
"414 440 LINE"
);
}
);
width = 444;
},
{
associatedMasterId = "9372F035-DA38-4B54-966C-CEBA9B53DD02";
layerId = "E6B8952F-D64A-490A-9CF5-6DF985D88222";
name = "new Layer";
paths = (
{
closed = 1;
nodes = (
"154 440 LINE",
"180 510 LINE",
"162 510 LINE",
"70 258 LINE",
"88 258 LINE",
"124 358 LINE",
"439 358 LINE",
"481 428 LINE",
"-2 -215 LINE SMOOTH",
"-43 -270 OFFCURVE",
"-55 -312 OFFCURVE",
"-21 -312 CURVE SMOOTH",
"-11 -312 OFFCURVE",
"22 -300 OFFCURVE",
"55 -249 CURVE SMOOTH",
"514 440 LINE"
);
}
);
width = 488;
}
);
unicode = 0037;
},
{
glyphname = eight;
lastChange = "2017-10-17 13:36:05 +0000";
layers = (
{
background = {
components = (
{
name = o;
transform = "{1, 0, 0, 1, -20, 0}";
}
);
};
backgroundImage = {
crop = "{{1538.148, 884.444}, {185.185, 366.667}}";
imagePath = "../../ANRT-Baskerwille/GLYPHS/Master/Glyphs-171013-01/chiffres/JACOB-notice-187525.jpg";
locked = "1";
transform = "{2.646, -0.046, 0.046, 2.646, -4122, -2481}";
};
layerId = "9372F035-DA38-4B54-966C-CEBA9B53DD02";
paths = (
{
closed = 1;
nodes = (
"215 362 LINE",
"153 308 OFFCURVE",
"78 253 OFFCURVE",
"78 158 CURVE SMOOTH",
"78 86 OFFCURVE",
"131 14 OFFCURVE",
"235 14 CURVE SMOOTH",
"317 14 OFFCURVE",
"380 64 OFFCURVE",
"380 153 CURVE SMOOTH",
"380 221 OFFCURVE",
"319 269 OFFCURVE",
"239 324 CURVE SMOOTH",
"157 382 LINE SMOOTH",
"98 423 OFFCURVE",
"54 477 OFFCURVE",
"54 563 CURVE SMOOTH",
"54 662 OFFCURVE",
"143 724 OFFCURVE",
"234 724 CURVE SMOOTH",
"335 724 OFFCURVE",
"389 657 OFFCURVE",
"389 580 CURVE SMOOTH",
"389 492 OFFCURVE",
"325 437 OFFCURVE",
"270 394 CURVE",
"250 409 LINE",
"293 443 OFFCURVE",
"361 500 OFFCURVE",
"361 575 CURVE SMOOTH",
"361 638 OFFCURVE",
"319 694 OFFCURVE",
"242 694 CURVE SMOOTH",
"173 694 OFFCURVE",
"122 647 OFFCURVE",
"122 580 CURVE SMOOTH",
"122 527 OFFCURVE",
"153 489 OFFCURVE",
"221 444 CURVE SMOOTH",
"302 389 LINE SMOOTH",
"381 336 OFFCURVE",
"440 272 OFFCURVE",
"440 186 CURVE SMOOTH",
"440 74 OFFCURVE",
"359 -14 OFFCURVE",
"235 -14 CURVE SMOOTH",
"104 -14 OFFCURVE",
"50 70 OFFCURVE",
"50 155 CURVE SMOOTH",
"50 263 OFFCURVE",
"127 319 OFFCURVE",
"190 375 CURVE"
);
}
);
width = 490;
},
{
associatedMasterId = "9372F035-DA38-4B54-966C-CEBA9B53DD02";
layerId = "54229142-6325-4BEF-B5C7-A92690552DE7";
name = "Oct 13 17, 14:39";
paths = (
{
closed = 1;
nodes = (
"298 347 LINE",
"298 347 OFFCURVE",
"160 272 OFFCURVE",
"160 147 CURVE SMOOTH",
"160 75 OFFCURVE",
"213 21 OFFCURVE",
"296 21 CURVE SMOOTH",
"338 21 OFFCURVE",
"450 40 OFFCURVE",
"450 153 CURVE SMOOTH",
"450 303 OFFCURVE",
"132 331 OFFCURVE",
"132 557 CURVE SMOOTH",
"132 636 OFFCURVE",
"204 720 OFFCURVE",
"305 720 CURVE SMOOTH",
"392 720 OFFCURVE",
"457 674 OFFCURVE",
"457 585 CURVE SMOOTH",
"457 502 OFFCURVE",
"323 396 OFFCURVE",
"323 396 CURVE",
"318 413 LINE",
"318 413 OFFCURVE",
"434 502 OFFCURVE",
"434 583 CURVE SMOOTH",
"434 657 OFFCURVE",
"363 690 OFFCURVE",
"313 690 CURVE SMOOTH",
"251 690 OFFCURVE",
"203 643 OFFCURVE",
"203 566 CURVE SMOOTH",
"203 416 OFFCURVE",
"512 416 OFFCURVE",
"512 209 CURVE SMOOTH",
"512 58 OFFCURVE",
"398 -10 OFFCURVE",
"306 -10 CURVE SMOOTH",
"204 -10 OFFCURVE",
"135 36 OFFCURVE",
"135 152 CURVE SMOOTH",
"135 272 OFFCURVE",
"291 364 OFFCURVE",
"291 364 CURVE"
);
}
);
width = 600;
},
{
associatedMasterId = "9372F035-DA38-4B54-966C-CEBA9B53DD02";
guideLines = (
{
angle = 90;
position = "{250, -100}";
}
);
layerId = "55AC7368-26CF-4BDA-8755-E2879CD2BE96";
name = "Oct 16 17, 12:26";
paths = (
{
closed = 1;
nodes = (
"240 360 LINE",
"142 298 OFFCURVE",
"75 221 OFFCURVE",
"75 162 CURVE SMOOTH",
"75 68 OFFCURVE",
"143 9 OFFCURVE",
"245 9 CURVE SMOOTH",
"332 9 OFFCURVE",
"390 63 OFFCURVE",
"390 138 CURVE SMOOTH",
"390 183 OFFCURVE",
"340 244 OFFCURVE",
"265 296 CURVE SMOOTH",
"182 354 LINE SMOOTH",
"118 400 OFFCURVE",
"75 477 OFFCURVE",
"75 547 CURVE SMOOTH",
"75 651 OFFCURVE",
"143 720 OFFCURVE",
"246 720 CURVE SMOOTH",
"343 720 OFFCURVE",
"408 658 OFFCURVE",
"408 564 CURVE SMOOTH",
"408 494 OFFCURVE",
"355 416 OFFCURVE",
"275 369 CURVE",
"260 380 LINE",
"334 423 OFFCURVE",
"383 500 OFFCURVE",
"383 574 CURVE SMOOTH",
"383 644 OFFCURVE",
"331 690 OFFCURVE",
"254 690 CURVE SMOOTH",
"183 690 OFFCURVE",
"135 640 OFFCURVE",
"135 581 CURVE SMOOTH",
"135 525 OFFCURVE",
"181 482 OFFCURVE",
"249 435 CURVE SMOOTH",
"333 376 LINE SMOOTH",
"403 327 OFFCURVE",
"450 256 OFFCURVE",
"450 196 CURVE SMOOTH",
"450 74 OFFCURVE",
"372 -10 OFFCURVE",
"255 -10 CURVE SMOOTH",
"132 -10 OFFCURVE",
"50 39 OFFCURVE",
"50 173 CURVE SMOOTH",
"50 239 OFFCURVE",
"120 308 OFFCURVE",
"223 372 CURVE"
);
}
);
width = 500;
},
{
associatedMasterId = "9372F035-DA38-4B54-966C-CEBA9B53DD02";
backgroundImage = {
crop = "{{1538.148, 884.444}, {185.185, 366.667}}";
imagePath = "chiffres/JACOB-notice-187525.jpg";
transform = "{2.646, -0.046, 0.046, 2.646, -4109, -2481}";
};
guideLines = (
{
angle = 90;
position = "{250, -100}";
}
);
layerId = "A3E92046-4EF0-45DD-BE5E-81BFA9C1A53F";
name = "Oct 16 17, 12:36";
paths = (
{
closed = 1;
nodes = (
"240 360 LINE",
"142 300 OFFCURVE",
"75 236 OFFCURVE",
"75 156 CURVE SMOOTH",
"75 57 OFFCURVE",
"143 9 OFFCURVE",
"245 9 CURVE SMOOTH",
"332 9 OFFCURVE",
"390 65 OFFCURVE",
"390 133 CURVE SMOOTH",
"390 188 OFFCURVE",
"340 246 OFFCURVE",
"265 296 CURVE SMOOTH",
"182 354 LINE SMOOTH",
"118 400 OFFCURVE",
"75 465 OFFCURVE",
"75 547 CURVE SMOOTH",
"75 651 OFFCURVE",
"143 720 OFFCURVE",
"246 720 CURVE SMOOTH",
"343 720 OFFCURVE",
"408 664 OFFCURVE",
"408 570 CURVE SMOOTH",
"408 500 OFFCURVE",
"355 416 OFFCURVE",
"275 369 CURVE",
"260 380 LINE",
"334 423 OFFCURVE",
"383 500 OFFCURVE",
"383 574 CURVE SMOOTH",
"383 644 OFFCURVE",
"331 690 OFFCURVE",
"254 690 CURVE SMOOTH",
"183 690 OFFCURVE",
"135 640 OFFCURVE",
"135 581 CURVE SMOOTH",
"135 525 OFFCURVE",
"181 482 OFFCURVE",
"249 435 CURVE SMOOTH",
"333 376 LINE SMOOTH",
"403 328 OFFCURVE",
"450 263 OFFCURVE",
"450 179 CURVE SMOOTH",
"450 76 OFFCURVE",
"372 -10 OFFCURVE",
"245 -10 CURVE SMOOTH",
"132 -10 OFFCURVE",
"50 35 OFFCURVE",
"50 156 CURVE SMOOTH",
"50 248 OFFCURVE",
"123 309 OFFCURVE",
"223 372 CURVE"
);
}
);
width = 500;
},
{
associatedMasterId = "9372F035-DA38-4B54-966C-CEBA9B53DD02";
backgroundImage = {
crop = "{{1538.148, 884.444}, {185.185, 366.667}}";
imagePath = "chiffres/JACOB-notice-187525.jpg";
locked = "1";
transform = "{2.646, -0.046, 0.046, 2.646, -4127, -2481}";
};
guideLines = (
{
angle = 90;
position = "{226, -100}";
},
{
angle = 90;
position = "{50, -200}";
},
{
angle = 90;
position = "{74, -200}";
},
{
angle = 90;
position = "{344, -200}";
},
{
angle = 90;
position = "{368, -200}";
},
{
angle = 230.4038;
position = "{6, 170}";
},
{
angle = -30.1414;
position = "{6, 442}";
},
{
angle = -30.1414;
position = "{7, 561}";
},
{
angle = 230.4038;
position = "{11, 10}";
}
);
layerId = "0C43F830-87D6-43BF-966A-97C1067239D5";
name = "Oct 16 17, 14:42";
paths = (
{
closed = 1;
nodes = (
"213 340 LINE",
"146 297 OFFCURVE",
"74 248 OFFCURVE",
"74 162 CURVE SMOOTH",
"74 76 OFFCURVE",
"133 20 OFFCURVE",
"221 20 CURVE SMOOTH",
"309 20 OFFCURVE",
"368 75 OFFCURVE",
"368 143 CURVE SMOOTH",
"368 208 OFFCURVE",
"319 261 OFFCURVE",
"234 310 CURVE SMOOTH",
"186 338 LINE SMOOTH",
"102 386 OFFCURVE",
"50 456 OFFCURVE",
"50 555 CURVE SMOOTH",
"50 656 OFFCURVE",
"131 720 OFFCURVE",
"222 720 CURVE SMOOTH",
"312 720 OFFCURVE",
"368 657 OFFCURVE",
"368 575 CURVE SMOOTH",
"368 493 OFFCURVE",
"313 450 OFFCURVE",
"251 412 CURVE",
"232 423 LINE",
"282 452 OFFCURVE",
"344 493 OFFCURVE",
"344 565 CURVE SMOOTH",
"344 637 OFFCURVE",
"307 690 OFFCURVE",
"230 690 CURVE SMOOTH",
"153 690 OFFCURVE",
"118 641 OFFCURVE",
"118 581 CURVE SMOOTH",
"118 521 OFFCURVE",
"144 479 OFFCURVE",
"216 439 CURVE SMOOTH",
"266 411 LINE SMOOTH",
"356 361 OFFCURVE",
"428 283 OFFCURVE",
"428 185 CURVE SMOOTH",
"428 86 OFFCURVE",
"351 -10 OFFCURVE",
"231 -10 CURVE SMOOTH",
"111 -10 OFFCURVE",
"50 66 OFFCURVE",
"50 166 CURVE SMOOTH",
"50 266 OFFCURVE",
"133 308 OFFCURVE",
"194 352 CURVE"
);
}
);
width = 478;
},
{
associatedMasterId = "9372F035-DA38-4B54-966C-CEBA9B53DD02";
backgroundImage = {
crop = "{{1538.148, 884.444}, {185.185, 366.667}}";
imagePath = "../../ANRT-Baskerwille/GLYPHS/Master/Glyphs-171013-01/chiffres/JACOB-notice-187525.jpg";
locked = "1";
transform = "{2.646, -0.046, 0.046, 2.646, -4127, -2481}";
};
layerId = "F94D5C3F-A2D8-4C82-83C0-05B669DDCC8F";
name = "Oct 17 17, 12:08";
paths = (
{
closed = 1;
nodes = (
"207 340 LINE",
"147 295 OFFCURVE",
"76 248 OFFCURVE",
"76 162 CURVE SMOOTH",
"76 76 OFFCURVE",
"133 20 OFFCURVE",
"221 20 CURVE SMOOTH",
"309 20 OFFCURVE",
"368 75 OFFCURVE",
"368 143 CURVE SMOOTH",
"368 208 OFFCURVE",
"319 261 OFFCURVE",
"234 310 CURVE SMOOTH",
"186 338 LINE SMOOTH",
"102 386 OFFCURVE",
"50 456 OFFCURVE",
"50 555 CURVE SMOOTH",
"50 656 OFFCURVE",
"131 720 OFFCURVE",
"222 720 CURVE SMOOTH",
"312 720 OFFCURVE",
"370 657 OFFCURVE",
"370 575 CURVE SMOOTH",
"370 488 OFFCURVE",
"311 441 OFFCURVE",
"256 398 CURVE",
"232 413 LINE",
"275 447 OFFCURVE",
"342 489 OFFCURVE",
"342 566 CURVE SMOOTH",
"342 638 OFFCURVE",
"307 690 OFFCURVE",
"230 690 CURVE SMOOTH",
"153 690 OFFCURVE",
"118 641 OFFCURVE",
"118 581 CURVE SMOOTH",
"118 521 OFFCURVE",
"144 479 OFFCURVE",
"216 439 CURVE SMOOTH",
"266 411 LINE SMOOTH",
"356 361 OFFCURVE",
"428 283 OFFCURVE",
"428 185 CURVE SMOOTH",
"428 86 OFFCURVE",
"351 -10 OFFCURVE",
"231 -10 CURVE SMOOTH",
"111 -10 OFFCURVE",
"48 66 OFFCURVE",
"48 166 CURVE SMOOTH",
"48 266 OFFCURVE",
"127 311 OFFCURVE",
"182 357 CURVE"
);
}
);
width = 478;
},
{
associatedMasterId = "9372F035-DA38-4B54-966C-CEBA9B53DD02";
backgroundImage = {
crop = "{{1538.148, 884.444}, {185.185, 366.667}}";
imagePath = "../../ANRT-Baskerwille/GLYPHS/Master/Glyphs-171013-01/chiffres/JACOB-notice-187525.jpg";
locked = "1";
transform = "{2.646, -0.046, 0.046, 2.646, -4122, -2481}";
};
layerId = "DFF01F65-B643-46A8-AC40-117BC7F5F14A";
name = "Oct 17 17, 12:25";
paths = (
{
closed = 1;
nodes = (
"212 354 LINE",
"147 309 OFFCURVE",
"78 258 OFFCURVE",
"78 172 CURVE SMOOTH",
"78 86 OFFCURVE",
"138 16 OFFCURVE",
"226 16 CURVE SMOOTH",
"324 16 OFFCURVE",
"380 75 OFFCURVE",
"380 153 CURVE SMOOTH",
"380 208 OFFCURVE",
"319 269 OFFCURVE",
"239 324 CURVE SMOOTH",
"191 357 LINE SMOOTH",
"99 420 OFFCURVE",
"54 462 OFFCURVE",
"54 563 CURVE SMOOTH",
"54 662 OFFCURVE",
"143 724 OFFCURVE",
"234 724 CURVE SMOOTH",
"335 724 OFFCURVE",
"389 657 OFFCURVE",
"389 575 CURVE SMOOTH",
"389 492 OFFCURVE",
"325 437 OFFCURVE",
"270 394 CURVE",
"246 409 LINE",
"289 443 OFFCURVE",
"361 500 OFFCURVE",
"361 566 CURVE SMOOTH",
"361 638 OFFCURVE",
"319 694 OFFCURVE",
"242 694 CURVE SMOOTH",
"165 694 OFFCURVE",
"122 647 OFFCURVE",
"122 587 CURVE SMOOTH",
"122 527 OFFCURVE",
"153 489 OFFCURVE",
"221 444 CURVE SMOOTH",
"271 411 LINE SMOOTH",
"356 355 OFFCURVE",
"440 283 OFFCURVE",
"440 195 CURVE SMOOTH",
"440 86 OFFCURVE",
"356 -14 OFFCURVE",
"236 -14 CURVE SMOOTH",
"116 -14 OFFCURVE",
"50 76 OFFCURVE",
"50 176 CURVE SMOOTH",
"50 276 OFFCURVE",
"127 325 OFFCURVE",
"187 371 CURVE"
);
}
);
width = 490;
},
{
associatedMasterId = "9372F035-DA38-4B54-966C-CEBA9B53DD02";
layerId = "E6B8952F-D64A-490A-9CF5-6DF985D88222";
name = "new Layer";
paths = (
{
closed = 1;
nodes = (
"273 362 LINE",
"191 308 OFFCURVE",
"96 253 OFFCURVE",
"61 158 CURVE SMOOTH",
"35 86 OFFCURVE",
"62 14 OFFCURVE",
"166 14 CURVE SMOOTH",
"248 14 OFFCURVE",
"329 64 OFFCURVE",
"361 153 CURVE SMOOTH",
"386 221 OFFCURVE",
"343 269 OFFCURVE",
"283 324 CURVE SMOOTH",
"222 382 LINE SMOOTH",
"178 423 OFFCURVE",
"153 477 OFFCURVE",
"185 563 CURVE SMOOTH",
"221 662 OFFCURVE",
"332 724 OFFCURVE",
"423 724 CURVE SMOOTH",
"524 724 OFFCURVE",
"554 657 OFFCURVE",
"526 580 CURVE SMOOTH",
"494 492 OFFCURVE",
"410 437 OFFCURVE",
"339 394 CURVE",
"325 409 LINE",
"380 443 OFFCURVE",
"469 500 OFFCURVE",
"496 575 CURVE SMOOTH",
"519 638 OFFCURVE",
"497 694 OFFCURVE",
"420 694 CURVE SMOOTH",
"351 694 OFFCURVE",
"283 647 OFFCURVE",
"259 580 CURVE SMOOTH",
"240 527 OFFCURVE",
"257 489 OFFCURVE",
"308 444 CURVE SMOOTH",
"369 389 LINE SMOOTH",
"429 336 OFFCURVE",
"465 272 OFFCURVE",
"433 186 CURVE SMOOTH",
"393 74 OFFCURVE",
"280 -14 OFFCURVE",
"156 -14 CURVE SMOOTH",
"25 -14 OFFCURVE",
"1 70 OFFCURVE",
"32 155 CURVE SMOOTH",
"72 263 OFFCURVE",
"169 319 OFFCURVE",
"252 375 CURVE"
);
}
);
width = 505;
}
);
unicode = 0038;
},
{
glyphname = nine;
lastChange = "2017-10-17 13:36:05 +0000";
layers = (
{
backgroundImage = {
crop = "{{1642.222, 1018.148}, {222.222, 366.667}}";
imagePath = "../../1878 Limprimerie Berger Levrault Notice historique/Romain/JACOB-notice-187532.jpg";
locked = "1";
transform = "{2.7, 0, 0, 2.7, -4479, -3029}";
};
layerId = "9372F035-DA38-4B54-966C-CEBA9B53DD02";
paths = (
{
closed = 1;
nodes = (
"120 454 OFFCURVE",
"40 356 OFFCURVE",
"40 222 CURVE SMOOTH",
"40 88 OFFCURVE",
"120 -14 OFFCURVE",
"240 -14 CURVE SMOOTH",
"298 -14 OFFCURVE",
"343 20 OFFCURVE",
"370 72 CURVE",
"368 -131 OFFCURVE",
"315 -266 OFFCURVE",
"220 -266 CURVE SMOOTH",
"178 -266 OFFCURVE",
"166 -190 OFFCURVE",
"134 -190 CURVE SMOOTH",
"115 -190 OFFCURVE",
"92 -205 OFFCURVE",
"92 -227 CURVE SMOOTH",
"92 -255 OFFCURVE",
"120 -290 OFFCURVE",
"210 -290 CURVE SMOOTH",
"360 -290 OFFCURVE",
"455 -148 OFFCURVE",
"455 142 CURVE SMOOTH",
"455 382 OFFCURVE",
"370 454 OFFCURVE",
"240 454 CURVE SMOOTH"
);
},
{
closed = 1;
nodes = (
"162 16 OFFCURVE",
"120 93 OFFCURVE",
"120 222 CURVE SMOOTH",
"120 351 OFFCURVE",
"162 424 OFFCURVE",
"240 424 CURVE SMOOTH",
"318 424 OFFCURVE",
"370 342 OFFCURVE",
"370 213 CURVE SMOOTH",
"370 84 OFFCURVE",
"318 16 OFFCURVE",
"240 16 CURVE SMOOTH"
);
}
);
width = 495;
},
{
associatedMasterId = "9372F035-DA38-4B54-966C-CEBA9B53DD02";
backgroundImage = {
crop = "{{1642.222, 1018.148}, {222.222, 366.667}}";
imagePath = "../../../../1878 Limprimerie Berger Levrault Notice historique/Romain/JACOB-notice-187532.jpg";
locked = "1";
transform = "{2.7, 0, 0, 2.7, -4459, -3029}";
};
layerId = "94346306-215A-4841-A0A6-E5DE18493020";
name = "Oct 16 17, 15:13";
paths = (
{
closed = 1;
nodes = (
"460 350 OFFCURVE",
"372 454 OFFCURVE",
"260 454 CURVE SMOOTH",
"148 454 OFFCURVE",
"60 345 OFFCURVE",
"60 222 CURVE SMOOTH",
"60 105 OFFCURVE",
"148 12 OFFCURVE",
"260 12 CURVE SMOOTH",
"372 12 OFFCURVE",
"410 95 OFFCURVE",
"410 212 CURVE",
"390 212 LINE",
"390 107 OFFCURVE",
"354 36 OFFCURVE",
"260 36 CURVE SMOOTH",
"166 36 OFFCURVE",
"130 117 OFFCURVE",
"130 222 CURVE SMOOTH",
"130 334 OFFCURVE",
"166 430 OFFCURVE",
"260 430 CURVE SMOOTH",
"354 430 OFFCURVE",
"390 329 OFFCURVE",
"390 222 CURVE SMOOTH",
"383 -9 OFFCURVE",
"361 -265 OFFCURVE",
"257 -265 CURVE SMOOTH",
"178 -265 OFFCURVE",
"161 -172 OFFCURVE",
"128 -172 CURVE SMOOTH",
"103 -172 OFFCURVE",
"87 -187 OFFCURVE",
"87 -216 CURVE SMOOTH",
"87 -254 OFFCURVE",
"169 -289 OFFCURVE",
"265 -289 CURVE SMOOTH",
"424 -289 OFFCURVE",
"460 -29 OFFCURVE",
"460 162 CURVE SMOOTH"
);
}
);
width = 520;
},
{
associatedMasterId = "9372F035-DA38-4B54-966C-CEBA9B53DD02";
layerId = "E6B8952F-D64A-490A-9CF5-6DF985D88222";
name = "new Layer";
paths = (
{
closed = 1;
nodes = (
"220 454 OFFCURVE",
"105 356 OFFCURVE",
"56 222 CURVE SMOOTH",
"7 88 OFFCURVE",
"50 -14 OFFCURVE",
"170 -14 CURVE SMOOTH",
"228 -14 OFFCURVE",
"285 20 OFFCURVE",
"331 72 CURVE",
"255 -131 OFFCURVE",
"153 -266 OFFCURVE",
"58 -266 CURVE SMOOTH",
"16 -266 OFFCURVE",
"32 -190 OFFCURVE",
"0 -190 CURVE SMOOTH",
"-19 -190 OFFCURVE",
"-47 -205 OFFCURVE",
"-55 -227 CURVE SMOOTH",
"-66 -255 OFFCURVE",
"-50 -290 OFFCURVE",
"40 -290 CURVE SMOOTH",
"190 -290 OFFCURVE",
"336 -148 OFFCURVE",
"442 142 CURVE SMOOTH",
"529 382 OFFCURVE",
"470 454 OFFCURVE",
"340 454 CURVE SMOOTH"
);
},
{
closed = 1;
nodes = (
"103 16 OFFCURVE",
"89 93 OFFCURVE",
"136 222 CURVE SMOOTH",
"183 351 OFFCURVE",
"251 424 OFFCURVE",
"329 424 CURVE SMOOTH",
"407 424 OFFCURVE",
"430 342 OFFCURVE",
"383 213 CURVE SMOOTH",
"336 84 OFFCURVE",
"259 16 OFFCURVE",
"181 16 CURVE SMOOTH"
);
}
);
width = 530;
}
);
unicode = 0039;
},
{
glyphname = colon;
lastChange = "2017-10-16 14:05:11 +0000";
layers = (
{
backgroundImage = {
crop = "{{1807.407, 1602.222}, {222.222, 366.667}}";
imagePath = "../../1878 Limprimerie Berger Levrault Notice historique/Romain/JACOB-notice-187526.jpg";
locked = "1";
transform = "{2.7, 0, 0, 2.7, -5028, -4606}";
};
layerId = "9372F035-DA38-4B54-966C-CEBA9B53DD02";
paths = (
{
closed = 1;
nodes = (
"180 -9 OFFCURVE",
"214 25 OFFCURVE",
"214 68 CURVE SMOOTH",
"214 110 OFFCURVE",
"180 144 OFFCURVE",
"138 144 CURVE SMOOTH",
"95 144 OFFCURVE",
"61 110 OFFCURVE",
"61 68 CURVE SMOOTH",
"61 25 OFFCURVE",
"95 -9 OFFCURVE",
"138 -9 CURVE SMOOTH"
);
},
{
closed = 1;
nodes = (
"179 288 OFFCURVE",
"213 322 OFFCURVE",
"213 365 CURVE SMOOTH",
"213 407 OFFCURVE",
"179 441 OFFCURVE",
"137 441 CURVE SMOOTH",
"94 441 OFFCURVE",
"60 407 OFFCURVE",
"60 365 CURVE SMOOTH",
"60 322 OFFCURVE",
"94 288 OFFCURVE",
"137 288 CURVE SMOOTH"
);
}
);
width = 274;
}
);
leftMetricsKey = "=period";
rightMetricsKey = "=period";
unicode = 003A;
},
{
glyphname = comma;
lastChange = "2017-10-16 14:05:11 +0000";
layers = (
{
layerId = "9372F035-DA38-4B54-966C-CEBA9B53DD02";
paths = (
{
closed = 1;
nodes = (
"140 121 LINE",
"180 121 OFFCURVE",
"219 84 OFFCURVE",
"219 0 CURVE SMOOTH",
"219 -86 OFFCURVE",
"165 -156 OFFCURVE",
"98 -196 CURVE",
"109 -217 LINE",
"186 -166 OFFCURVE",
"246 -107 OFFCURVE",
"246 3 CURVE SMOOTH",
"246 93 OFFCURVE",
"206 150 OFFCURVE",
"140 150 CURVE"
);
},
{
closed = 1;
nodes = (
"184 -10 OFFCURVE",
"210 36 OFFCURVE",
"210 90 CURVE SMOOTH",
"210 124 OFFCURVE",
"184 150 OFFCURVE",
"140 150 CURVE SMOOTH",
"96 150 OFFCURVE",
"60 114 OFFCURVE",
"60 70 CURVE SMOOTH",
"60 26 OFFCURVE",
"96 -10 OFFCURVE",
"140 -10 CURVE SMOOTH"
);
}
);
width = 306;
}
);
leftMetricsKey = "=period";
rightMetricsKey = "=period";
unicode = 002C;
},
{
glyphname = ellipsis;
lastChange = "2017-10-17 16:05:48 +0000";
layers = (
{
layerId = "9372F035-DA38-4B54-966C-CEBA9B53DD02";
paths = (
{
closed = 1;
nodes = (
"144 -10 OFFCURVE",
"180 26 OFFCURVE",
"180 70 CURVE SMOOTH",
"180 114 OFFCURVE",
"144 150 OFFCURVE",
"100 150 CURVE SMOOTH",
"56 150 OFFCURVE",
"20 114 OFFCURVE",
"20 70 CURVE SMOOTH",
"20 26 OFFCURVE",
"56 -10 OFFCURVE",
"100 -10 CURVE SMOOTH"
);
},
{
closed = 1;
nodes = (
"454 -10 OFFCURVE",
"490 26 OFFCURVE",
"490 70 CURVE SMOOTH",
"490 114 OFFCURVE",
"454 150 OFFCURVE",
"410 150 CURVE SMOOTH",
"366 150 OFFCURVE",
"330 114 OFFCURVE",
"330 70 CURVE SMOOTH",
"330 26 OFFCURVE",
"366 -10 OFFCURVE",
"410 -10 CURVE SMOOTH"
);
},
{
closed = 1;
nodes = (
"764 -10 OFFCURVE",
"800 26 OFFCURVE",
"800 70 CURVE SMOOTH",
"800 114 OFFCURVE",
"764 150 OFFCURVE",
"720 150 CURVE SMOOTH",
"676 150 OFFCURVE",
"640 114 OFFCURVE",
"640 70 CURVE SMOOTH",
"640 26 OFFCURVE",
"676 -10 OFFCURVE",
"720 -10 CURVE SMOOTH"
);
}
);
width = 820;
}
);
unicode = 2026;
},
{
glyphname = exclam;
lastChange = "2017-10-17 16:05:48 +0000";
layers = (
{
backgroundImage = {
crop = "{{1855.556, 791.481}, {222.222, 366.667}}";
imagePath = "../../../../1878 Limprimerie Berger Levrault Notice historique/Romain/JACOB-notice-187529.jpg";
locked = "1";
transform = "{2.7, 0, 0, 2.7, -5010, -2417}";
};
layerId = "9372F035-DA38-4B54-966C-CEBA9B53DD02";
paths = (
{
closed = 1;
nodes = (
"339 -10 OFFCURVE",
"371 22 OFFCURVE",
"371 61 CURVE SMOOTH",
"371 100 OFFCURVE",
"339 132 OFFCURVE",
"300 132 CURVE SMOOTH",
"261 132 OFFCURVE",
"229 100 OFFCURVE",
"229 61 CURVE SMOOTH",
"229 22 OFFCURVE",
"261 -10 OFFCURVE",
"300 -10 CURVE SMOOTH"
);
},
{
closed = 1;
nodes = (
"288 249 OFFCURVE",
"283 260 OFFCURVE",
"281 276 CURVE SMOOTH",
"272 345 OFFCURVE",
"261 413 OFFCURVE",
"252 486 CURVE SMOOTH",
"247 559 OFFCURVE",
"211 715 OFFCURVE",
"292 715 CURVE SMOOTH",
"363 715 OFFCURVE",
"337 564 OFFCURVE",
"335 486 CURVE SMOOTH",
"330 416 OFFCURVE",
"325 350 OFFCURVE",
"317 276 CURVE SMOOTH",
"315 260 OFFCURVE",
"310 249 OFFCURVE",
"299 249 CURVE SMOOTH"
);
}
);
width = 600;
},
{
associatedMasterId = "9372F035-DA38-4B54-966C-CEBA9B53DD02";
backgroundImage = {
crop = "{{1855.556, 791.481}, {222.222, 366.667}}";
imagePath = "../../1878 Limprimerie Berger Levrault Notice historique/Romain/JACOB-notice-187529.jpg";
locked = "1";
transform = "{2.7, 0, 0, 2.7, -4986, -2417}";
};
layerId = "C3073120-921F-4828-B3BA-FA4BD898FD57";
name = "Oct 17 17, 13:43";
paths = (
{
closed = 1;
nodes = (
"69 656 LINE",
"67 696 OFFCURVE",
"100 720 OFFCURVE",
"124 720 CURVE SMOOTH",
"148 720 OFFCURVE",
"181 696 OFFCURVE",
"179 656 CURVE",
"136 179 LINE",
"112 179 LINE"
);
},
{
closed = 1;
nodes = (
"159.2 -8 OFFCURVE",
"188 20.8 OFFCURVE",
"188 56 CURVE SMOOTH",
"188 91.2 OFFCURVE",
"159.2 120 OFFCURVE",
"124 120 CURVE SMOOTH",
"88.8 120 OFFCURVE",
"60 91.2 OFFCURVE",
"60 56 CURVE SMOOTH",
"60 20.8 OFFCURVE",
"88.8 -8 OFFCURVE",
"124 -8 CURVE SMOOTH"
);
}
);
width = 248;
},
{
associatedMasterId = "9372F035-DA38-4B54-966C-CEBA9B53DD02";
layerId = "E6B8952F-D64A-490A-9CF5-6DF985D88222";
name = "new Layer";
width = 600;
}
);
leftMetricsKey = period;
rightMetricsKey = "=period";
unicode = 0021;
},
{
glyphname = period;
lastChange = "2017-10-16 14:05:11 +0000";
layers = (
{
layerId = "9372F035-DA38-4B54-966C-CEBA9B53DD02";
paths = (
{
closed = 1;
nodes = (
"184 -10 OFFCURVE",
"220 26 OFFCURVE",
"220 70 CURVE SMOOTH",
"220 114 OFFCURVE",
"184 150 OFFCURVE",
"140 150 CURVE SMOOTH",
"96 150 OFFCURVE",
"60 114 OFFCURVE",
"60 70 CURVE SMOOTH",
"60 26 OFFCURVE",
"96 -10 OFFCURVE",
"140 -10 CURVE SMOOTH"
);
}
);
width = 280;
}
);
unicode = 002E;
},
{
glyphname = question;
lastChange = "2017-10-17 13:36:48 +0000";
layers = (
{
backgroundImage = {
crop = "{{0, 0}, {600, 971}}";
imagePath = "../?/?.tif";
locked = "1";
transform = "{1, 0, 0, 1, -133, -237}";
};
layerId = "9372F035-DA38-4B54-966C-CEBA9B53DD02";
paths = (
{
closed = 1;
nodes = (
"204 -15 OFFCURVE",
"233 14 OFFCURVE",
"233 49 CURVE SMOOTH",
"233 84 OFFCURVE",
"204 113 OFFCURVE",
"169 113 CURVE SMOOTH",
"134 113 OFFCURVE",
"105 84 OFFCURVE",
"105 49 CURVE SMOOTH",
"105 14 OFFCURVE",
"134 -15 OFFCURVE",
"169 -15 CURVE SMOOTH"
);
},
{
closed = 1;
nodes = (
"89 467 LINE",
"110 214 LINE",
"112 188 OFFCURVE",
"135 175 OFFCURVE",
"151 176 CURVE SMOOTH",
"167 177 OFFCURVE",
"186 196 OFFCURVE",
"182 221 CURVE",
"113 468 LINE"
);
},
{
closed = 1;
nodes = (
"286 698 OFFCURVE",
"314 641 OFFCURVE",
"314 540 CURVE SMOOTH",
"314 447 OFFCURVE",
"297 381 OFFCURVE",
"233 381 CURVE SMOOTH",
"157 381 OFFCURVE",
"129 415 OFFCURVE",
"113 468 CURVE",
"89 467 LINE",
"93 408 OFFCURVE",
"152 354 OFFCURVE",
"235 354 CURVE SMOOTH",
"325 354 OFFCURVE",
"394 430 OFFCURVE",
"394 540 CURVE SMOOTH",
"394 652 OFFCURVE",
"300 724 OFFCURVE",
"209 724 CURVE SMOOTH",
"136 724 OFFCURVE",
"60 693 OFFCURVE",
"60 640 CURVE SMOOTH",
"60 609 OFFCURVE",
"82 591 OFFCURVE",
"109 591 CURVE SMOOTH",
"134 591 OFFCURVE",
"153 612 OFFCURVE",
"153 637 CURVE SMOOTH",
"153 657 OFFCURVE",
"144 665 OFFCURVE",
"144 676 CURVE SMOOTH",
"144 696 OFFCURVE",
"176 698 OFFCURVE",
"211 698 CURVE SMOOTH"
);
}
);
width = 454;
},
{
associatedMasterId = "9372F035-DA38-4B54-966C-CEBA9B53DD02";
layerId = "E6B8952F-D64A-490A-9CF5-6DF985D88222";
name = "new Layer";
width = 600;
}
);
unicode = 003F;
},
{
glyphname = emdash;
lastChange = "2017-10-17 16:05:48 +0000";
layers = (
{
layerId = "9372F035-DA38-4B54-966C-CEBA9B53DD02";
paths = (
{
closed = 1;
nodes = (
"50 201 LINE",
"1214 201 LINE",
"1214 248 LINE",
"50 248 LINE"
);
}
);
width = 1264;
}
);
unicode = 2014;
},
{
glyphname = endash;
lastChange = "2017-10-17 16:05:48 +0000";
layers = (
{
guideLines = (
{
position = "{-12, 249}";
},
{
position = "{-11, 201}";
}
);
layerId = "9372F035-DA38-4B54-966C-CEBA9B53DD02";
paths = (
{
closed = 1;
nodes = (
"611 201 LINE",
"611 249 LINE",
"29 249 LINE",
"29 201 LINE"
);
}
);
width = 640;
}
);
unicode = 2013;
},
{
glyphname = hyphen;
lastChange = "2017-10-17 16:05:48 +0000";
layers = (
{
backgroundImage = {
crop = "{{1127.778, 1374.074}, {222.222, 366.667}}";
imagePath = "../../../../1878 Limprimerie Berger Levrault Notice historique/Romain/JACOB-notice-187513.jpg";
locked = "1";
transform = "{2.7, 0, 0, 2.7, -3119, -3990}";
};
layerId = "9372F035-DA38-4B54-966C-CEBA9B53DD02";
paths = (
{
closed = 1;
nodes = (
"60 189 LINE",
"389 189 LINE",
"389 255 LINE",
"60 255 LINE"
);
}
);
width = 449;
}
);
unicode = 002D;
},
{
glyphname = guillemetleft;
lastChange = "2017-10-16 14:05:11 +0000";
layers = (
{
layerId = "9372F035-DA38-4B54-966C-CEBA9B53DD02";
paths = (
{
closed = 1;
nodes = (
"265 289 OFFCURVE",
"290 350 OFFCURVE",
"358 369 CURVE",
"348 399 LINE",
"259 378 OFFCURVE",
"210 307 OFFCURVE",
"210 218 CURVE SMOOTH",
"210 130 OFFCURVE",
"259 58 OFFCURVE",
"348 37 CURVE",
"358 67 LINE",
"290 86 OFFCURVE",
"265 147 OFFCURVE",
"265 218 CURVE SMOOTH"
);
},
{
closed = 1;
nodes = (
"125 289 OFFCURVE",
"150 350 OFFCURVE",
"218 369 CURVE",
"208 399 LINE",
"119 378 OFFCURVE",
"70 306 OFFCURVE",
"70 218 CURVE SMOOTH",
"70 130 OFFCURVE",
"119 58 OFFCURVE",
"208 37 CURVE",
"218 67 LINE",
"150 85 OFFCURVE",
"125 146 OFFCURVE",
"125 218 CURVE SMOOTH"
);
}
);
width = 428;
}
);
unicode = 00AB;
},
{
glyphname = quotedblleft;
lastChange = "2017-10-17 16:05:48 +0000";
layers = (
{
backgroundImage = {
crop = "{{0, 0}, {3264, 2448}}";
imagePath = "../../../../1878 Limprimerie Berger Levrault Notice historique/Italique/JACOB-notice-187545.jpg";
locked = "1";
transform = "{2.7, 0, 0, 2.7, -2431, -3110}";
};
layerId = "9372F035-DA38-4B54-966C-CEBA9B53DD02";
paths = (
{
closed = 1;
nodes = (
"151 53 LINE",
"110 53 OFFCURVE",
"69 92 OFFCURVE",
"69 180 CURVE SMOOTH",
"69 270 OFFCURVE",
"130 338 OFFCURVE",
"200 380 CURVE",
"184 407 LINE",
"103 354 OFFCURVE",
"33 292 OFFCURVE",
"33 177 CURVE SMOOTH",
"33 83 OFFCURVE",
"83 23 OFFCURVE",
"151 23 CURVE"
);
},
{
closed = 1;
nodes = (
"111 199 OFFCURVE",
"79 154 OFFCURVE",
"79 87 CURVE SMOOTH",
"79 49 OFFCURVE",
"108 23 OFFCURVE",
"151 23 CURVE SMOOTH",
"207 23 OFFCURVE",
"243 60 OFFCURVE",
"243 115 CURVE SMOOTH",
"243 165 OFFCURVE",
"210 199 OFFCURVE",
"160 199 CURVE SMOOTH"
);
},
{
closed = 1;
nodes = (
"461 53 LINE",
"420 53 OFFCURVE",
"379 92 OFFCURVE",
"379 180 CURVE SMOOTH",
"379 270 OFFCURVE",
"440 338 OFFCURVE",
"510 380 CURVE",
"494 407 LINE",
"413 354 OFFCURVE",
"343 292 OFFCURVE",
"343 177 CURVE SMOOTH",
"343 83 OFFCURVE",
"393 23 OFFCURVE",
"461 23 CURVE"
);
},
{
closed = 1;
nodes = (
"421 199 OFFCURVE",
"389 154 OFFCURVE",
"389 87 CURVE SMOOTH",
"389 49 OFFCURVE",
"418 23 OFFCURVE",
"461 23 CURVE SMOOTH",
"517 23 OFFCURVE",
"553 60 OFFCURVE",
"553 115 CURVE SMOOTH",
"553 165 OFFCURVE",
"520 199 OFFCURVE",
"470 199 CURVE SMOOTH"
);
}
);
width = 600;
}
);
unicode = 201C;
},
{
glyphname = quotedblright;
lastChange = "2017-10-17 16:05:48 +0000";
layers = (
{
layerId = "9372F035-DA38-4B54-966C-CEBA9B53DD02";
paths = (
{
closed = 1;
nodes = (
"435 377 LINE",
"476 377 OFFCURVE",
"517 338 OFFCURVE",
"517 250 CURVE SMOOTH",
"517 160 OFFCURVE",
"456 92 OFFCURVE",
"386 50 CURVE",
"402 23 LINE",
"483 76 OFFCURVE",
"553 138 OFFCURVE",
"553 253 CURVE SMOOTH",
"553 347 OFFCURVE",
"503 407 OFFCURVE",
"435 407 CURVE"
);
},
{
closed = 1;
nodes = (
"475 231 OFFCURVE",
"507 276 OFFCURVE",
"507 343 CURVE SMOOTH",
"507 381 OFFCURVE",
"478 407 OFFCURVE",
"435 407 CURVE SMOOTH",
"379 407 OFFCURVE",
"343 370 OFFCURVE",
"343 315 CURVE SMOOTH",
"343 265 OFFCURVE",
"376 231 OFFCURVE",
"426 231 CURVE SMOOTH"
);
},
{
closed = 1;
nodes = (
"125 377 LINE",
"166 377 OFFCURVE",
"207 338 OFFCURVE",
"207 250 CURVE SMOOTH",
"207 160 OFFCURVE",
"146 92 OFFCURVE",
"76 50 CURVE",
"92 23 LINE",
"173 76 OFFCURVE",
"243 138 OFFCURVE",
"243 253 CURVE SMOOTH",
"243 347 OFFCURVE",
"193 407 OFFCURVE",
"125 407 CURVE"
);
},
{
closed = 1;
nodes = (
"165 231 OFFCURVE",
"197 276 OFFCURVE",
"197 343 CURVE SMOOTH",
"197 381 OFFCURVE",
"168 407 OFFCURVE",
"125 407 CURVE SMOOTH",
"69 407 OFFCURVE",
"33 370 OFFCURVE",
"33 315 CURVE SMOOTH",
"33 265 OFFCURVE",
"66 231 OFFCURVE",
"116 231 CURVE SMOOTH"
);
}
);
width = 600;
}
);
unicode = 201D;
},
{
glyphname = quoteright;
lastChange = "2017-10-16 14:05:11 +0000";
layers = (
{
layerId = "9372F035-DA38-4B54-966C-CEBA9B53DD02";
paths = (
{
closed = 1;
nodes = (
"102 698 LINE",
"133 698 OFFCURVE",
"163 669 OFFCURVE",
"163 604 CURVE SMOOTH",
"163 537 OFFCURVE",
"118 487 OFFCURVE",
"66 456 CURVE",
"78 436 LINE",
"138 475 OFFCURVE",
"190 521 OFFCURVE",
"190 606 CURVE SMOOTH",
"190 676 OFFCURVE",
"153 720 OFFCURVE",
"102 720 CURVE"
);
},
{
closed = 1;
nodes = (
"132 590 OFFCURVE",
"156 623 OFFCURVE",
"156 673 CURVE SMOOTH",
"156 701 OFFCURVE",
"134 720 OFFCURVE",
"102 720 CURVE SMOOTH",
"61 720 OFFCURVE",
"34 693 OFFCURVE",
"34 652 CURVE SMOOTH",
"34 615 OFFCURVE",
"59 590 OFFCURVE",
"96 590 CURVE SMOOTH"
);
}
);
width = 224;
}
);
unicode = 2019;
},
{
glyphname = degree;
lastChange = "2017-10-17 16:05:48 +0000";
layers = (
{
backgroundImage = {
crop = "{{1218.889, 637.037}, {222.222, 366.667}}";
imagePath = "../../../../1878 Limprimerie Berger Levrault Notice historique/Romain/IMG_3190.JPG";
locked = "1";
transform = "{2.7, 0, 0, 2.7, -3291, -2000}";
};
layerId = "9372F035-DA38-4B54-966C-CEBA9B53DD02";
paths = (
{
closed = 1;
nodes = (
"357 400 OFFCURVE",
"412 455 OFFCURVE",
"412 525 CURVE SMOOTH",
"412 595 OFFCURVE",
"357 650 OFFCURVE",
"287 650 CURVE SMOOTH",
"217 650 OFFCURVE",
"162 595 OFFCURVE",
"162 525 CURVE SMOOTH",
"162 455 OFFCURVE",
"217 400 OFFCURVE",
"287 400 CURVE SMOOTH"
);
},
{
closed = 1;
nodes = (
"233 419 OFFCURVE",
"211 465 OFFCURVE",
"211 525 CURVE SMOOTH",
"211 585 OFFCURVE",
"233 631 OFFCURVE",
"287 631 CURVE SMOOTH",
"341 631 OFFCURVE",
"363 585 OFFCURVE",
"363 525 CURVE SMOOTH",
"363 465 OFFCURVE",
"341 419 OFFCURVE",
"287 419 CURVE SMOOTH"
);
}
);
width = 600;
}
);
unicode = 00B0;
},
{
glyphname = acute;
lastChange = "2017-10-17 16:05:48 +0000";
layers = (
{
backgroundImage = {
crop = "{{0, 0}, {3264, 2448}}";
imagePath = "../../../../1878 Limprimerie Berger Levrault Notice historique/Romain/JACOB-notice-187509.jpg";
locked = "1";
transform = "{2.7, 0, 0, 2.7, -4991, -4198}";
};
layerId = "9372F035-DA38-4B54-966C-CEBA9B53DD02";
paths = (
{
closed = 1;
nodes = (
"288 671 LINE SMOOTH",
"295 727 OFFCURVE",
"327 733 OFFCURVE",
"347 724 CURVE SMOOTH",
"374 712 OFFCURVE",
"364 673 OFFCURVE",
"347 642 CURVE SMOOTH",
"281 520 LINE",
"269 520 LINE"
);
}
);
width = 600;
}
);
unicode = 00B4;
},
{
glyphname = circumflex;
lastChange = "2017-10-17 16:05:48 +0000";
layers = (
{
layerId = "9372F035-DA38-4B54-966C-CEBA9B53DD02";
paths = (
{
closed = 1;
nodes = (
"210 513 LINE",
"296 700 LINE",
"312 700 LINE",
"307 639 LINE",
"301 639 LINE",
"222 513 LINE"
);
},
{
closed = 1;
nodes = (
"307 639 LINE",
"301 639 LINE",
"296 700 LINE",
"312 700 LINE",
"398 513 LINE",
"386 513 LINE"
);
}
);
width = 600;
}
);
unicode = 02C6;
},
{
glyphname = dieresis;
lastChange = "2017-10-17 16:05:48 +0000";
layers = (
{
layerId = "9372F035-DA38-4B54-966C-CEBA9B53DD02";
paths = (
{
closed = 1;
nodes = (
"225 540 OFFCURVE",
"244 560 OFFCURVE",
"244 584 CURVE SMOOTH",
"244 608 OFFCURVE",
"225 628 OFFCURVE",
"201 628 CURVE SMOOTH",
"176 628 OFFCURVE",
"157 608 OFFCURVE",
"157 584 CURVE SMOOTH",
"157 560 OFFCURVE",
"176 540 OFFCURVE",
"201 540 CURVE SMOOTH"
);
},
{
closed = 1;
nodes = (
"420 540 OFFCURVE",
"439 560 OFFCURVE",
"439 584 CURVE SMOOTH",
"439 608 OFFCURVE",
"420 628 OFFCURVE",
"396 628 CURVE SMOOTH",
"371 628 OFFCURVE",
"352 608 OFFCURVE",
"352 584 CURVE SMOOTH",
"352 560 OFFCURVE",
"371 540 OFFCURVE",
"396 540 CURVE SMOOTH"
);
}
);
width = 600;
}
);
unicode = 00A8;
},
{
glyphname = grave;
lastChange = "2017-10-17 16:05:48 +0000";
layers = (
{
backgroundImage = {
crop = "{{1339.259, 857.037}, {222.222, 366.667}}";
imagePath = "../../../../1878 Limprimerie Berger Levrault Notice historique/Romain/JACOB-notice-187533.jpg";
locked = "1";
transform = "{2.7, 0, 0, 2.7, -3616, -2594}";
};
layerId = "9372F035-DA38-4B54-966C-CEBA9B53DD02";
paths = (
{
closed = 1;
nodes = (
"299 518 LINE",
"280 566 OFFCURVE",
"249 639 OFFCURVE",
"242 661 CURVE SMOOTH",
"235 683 OFFCURVE",
"243 698 OFFCURVE",
"259 704 CURVE SMOOTH",
"279 712 OFFCURVE",
"298 702 OFFCURVE",
"302 670 CURVE",
"311 518 LINE"
);
}
);
width = 600;
}
);
unicode = 0060;
},
{
export = 0;
glyphname = "_corner-bdc";
lastChange = "2017-10-16 08:28:31 +0000";
layers = (
{
associatedMasterId = "9372F035-DA38-4B54-966C-CEBA9B53DD02";
layerId = "22EA310E-A8A6-4E31-9984-701A46A378AA";
name = "Oct 13 17, 10:33";
paths = (
{
closed = 0;
nodes = (
"0 98 LINE SMOOTH",
"0 47 OFFCURVE",
"5 25 OFFCURVE",
"52 19 CURVE SMOOTH",
"85 15 LINE SMOOTH",
"87 15 OFFCURVE",
"88 14 OFFCURVE",
"88 12 CURVE SMOOTH",
"88 0 LINE SMOOTH",
"88 -2 OFFCURVE",
"87 -3 OFFCURVE",
"85 -3 CURVE SMOOTH",
"45 -3 OFFCURVE",
"4 0 OFFCURVE",
"-36 0 CURVE SMOOTH"
);
}
);
width = 600;
},
{
associatedMasterId = "9372F035-DA38-4B54-966C-CEBA9B53DD02";
layerId = "42BA8E2A-11D2-4138-856E-2AE9709097F1";
name = "Oct 13 17, 12:06";
paths = (
{
closed = 0;
nodes = (
"0 118 LINE SMOOTH",
"0 37 OFFCURVE",
"25 25 OFFCURVE",
"72 19 CURVE SMOOTH",
"88 17 LINE",
"88 -3 LINE",
"-35 0 LINE"
);
}
);
visible = 1;
width = 600;
},
{
layerId = "9372F035-DA38-4B54-966C-CEBA9B53DD02";
paths = (
{
closed = 0;
nodes = (
"0 121 LINE SMOOTH",
"0 31 OFFCURVE",
"14 29 OFFCURVE",
"72 22 CURVE SMOOTH",
"88 20 LINE",
"88 -3 LINE",
"-35 0 LINE"
);
}
);
width = 600;
}
);
},
{
export = 0;
glyphname = "_corner-cap";
lastChange = "2017-10-16 08:29:05 +0000";
layers = (
{
layerId = "9372F035-DA38-4B54-966C-CEBA9B53DD02";
paths = (
{
closed = 0;
nodes = (
"0 199 LINE SMOOTH",
"0 48 OFFCURVE",
"14 29 OFFCURVE",
"64 24 CURVE SMOOTH",
"136 17 LINE",
"136 -3 LINE",
"-19 0 LINE"
);
}
);
width = 600;
}
);
},
{
glyphname = "_part-o";
lastChange = "2017-10-16 08:40:17 +0000";
layers = (
{
layerId = "9372F035-DA38-4B54-966C-CEBA9B53DD02";
paths = (
{
closed = 1;
nodes = (
"141 450 OFFCURVE",
"50 354 OFFCURVE",
"50 224 CURVE",
"140 224 LINE",
"140 364 OFFCURVE",
"181 424 OFFCURVE",
"269 424 CURVE",
"269 450 LINE"
);
}
);
width = 600;
}
);
},
{
export = 0;
glyphname = _part;
lastChange = "2017-10-13 10:24:34 +0000";
layers = (
{
background = {
paths = (
{
closed = 1;
nodes = (
"108 404 OFFCURVE",
"80 410 OFFCURVE",
"36 410 CURVE",
"36 430 LINE",
"85 430 OFFCURVE",
"153 440 OFFCURVE",
"164 440 CURVE SMOOTH",
"176 440 OFFCURVE",
"178 428 OFFCURVE",
"178 421 CURVE",
"178 344 LINE",
"108 332 LINE"
);
}
);
};
layerId = "9372F035-DA38-4B54-966C-CEBA9B53DD02";
paths = (
{
closed = 1;
nodes = (
"118 329 LINE",
"118 401 OFFCURVE",
"84 407 OFFCURVE",
"30 407 CURVE",
"30 430 LINE",
"85 430 OFFCURVE",
"133 435 OFFCURVE",
"188 445 CURVE",
"188 344 LINE"
);
}
);
width = 600;
}
);
},
{
export = 0;
glyphname = "_part-bdc";
lastChange = "2017-10-16 11:54:29 +0000";
layers = (
{
background = {
paths = (
{
closed = 1;
nodes = (
"108 404 OFFCURVE",
"80 410 OFFCURVE",
"36 410 CURVE",
"36 430 LINE",
"85 430 OFFCURVE",
"153 440 OFFCURVE",
"164 440 CURVE SMOOTH",
"176 440 OFFCURVE",
"178 428 OFFCURVE",
"178 421 CURVE",
"178 344 LINE",
"108 332 LINE"
);
}
);
};
layerId = "9372F035-DA38-4B54-966C-CEBA9B53DD02";
paths = (
{
closed = 1;
nodes = (
"118 335 LINE",
"118 407 OFFCURVE",
"84 413 OFFCURVE",
"30 413 CURVE",
"30 436 LINE",
"85 436 OFFCURVE",
"133 441 OFFCURVE",
"188 451 CURVE",
"188 350 LINE"
);
}
);
width = 600;
}
);
},
{
export = 0;
glyphname = "_part-bdc-n";
lastChange = "2017-10-16 11:55:35 +0000";
layers = (
{
background = {
hints = (
{
origin = "{0, 13}";
type = Corner;
name = "_corner-bd";
},
{
origin = "{0, 14}";
type = Corner;
name = "_corner-bg";
}
);
paths = (
{
closed = 1;
nodes = (
"405 365 OFFCURVE",
"394 422 OFFCURVE",
"323 421 CURVE SMOOTH",
"204 419 OFFCURVE",
"164 296 OFFCURVE",
"162 253 CURVE",
"152 301 LINE",
"153 314 OFFCURVE",
"193 450 OFFCURVE",
"333 450 CURVE SMOOTH",
"435 450 OFFCURVE",
"475 402 OFFCURVE",
"475 331 CURVE SMOOTH",
"475 0 LINE",
"405 0 LINE",
"405 326 LINE SMOOTH"
);
}
);
};
hints = (
{
origin = "{0, 14}";
scale = "{-1, 1}";
type = Corner;
name = "_corner-bdc";
options = 1;
},
{
origin = "{0, 13}";
type = Corner;
name = "_corner-bdc";
}
);
layerId = "9372F035-DA38-4B54-966C-CEBA9B53DD02";
paths = (
{
closed = 1;
nodes = (
"415 388 OFFCURVE",
"391 425 OFFCURVE",
"333 424 CURVE SMOOTH",
"214 422 OFFCURVE",
"174 300 OFFCURVE",
"172 257 CURVE",
"162 306 LINE",
"163 319 OFFCURVE",
"203 454 OFFCURVE",
"343 454 CURVE SMOOTH",
"445 454 OFFCURVE",
"485 406 OFFCURVE",
"485 335 CURVE SMOOTH",
"485 0 LINE",
"415 0 LINE",
"415 330 LINE SMOOTH"
);
}
);
width = 603;
}
);
},
{
export = 0;
glyphname = "_part-curve-cap-left";
lastChange = "2017-10-16 08:36:51 +0000";
layers = (
{
backgroundImage = {
crop = "{{1156.582, 857.493}, {311.957, 386.047}}";
imagePath = "../../1878 Limprimerie Berger Levrault Notice historique/Romain/JACOB-notice-187521.jpg";
locked = "1";
transform = "{-2.64, -0.046, -0.046, 2.64, 3945, -2500}";
};
layerId = "9372F035-DA38-4B54-966C-CEBA9B53DD02";
paths = (
{
closed = 1;
nodes = (
"203 -11 OFFCURVE",
"69 151 OFFCURVE",
"69 353 CURVE SMOOTH",
"69 555 OFFCURVE",
"203 721 OFFCURVE",
"420 721 CURVE",
"420 696 LINE",
"242 696 OFFCURVE",
"179 517 OFFCURVE",
"179 353 CURVE SMOOTH",
"179 189 OFFCURVE",
"242 14 OFFCURVE",
"420 14 CURVE",
"420 -11 LINE"
);
}
);
width = 800;
}
);
},
{
export = 0;
glyphname = "_part-jambage";
lastChange = "2017-10-13 09:16:18 +0000";
layers = (
{
layerId = "9372F035-DA38-4B54-966C-CEBA9B53DD02";
paths = (
{
closed = 1;
nodes = (
"405 370 OFFCURVE",
"394 427 OFFCURVE",
"323 426 CURVE SMOOTH",
"204 424 OFFCURVE",
"164 301 OFFCURVE",
"162 258 CURVE",
"152 301 LINE",
"153 314 OFFCURVE",
"194 450 OFFCURVE",
"333 450 CURVE SMOOTH",
"435 450 OFFCURVE",
"475 402 OFFCURVE",
"475 331 CURVE",
"405 331 LINE"
);
}
);
userData = {
PartSelection = {
Bold = 1;
};
};
width = 600;
},
{
associatedMasterId = "9372F035-DA38-4B54-966C-CEBA9B53DD02";
layerId = "0A006F23-EE7B-46D5-AD5F-5329B57B676C";
name = Bold;
paths = (
{
closed = 1;
nodes = (
"166 367 OFFCURVE",
"236 453 OFFCURVE",
"344 453 CURVE SMOOTH",
"476 453 OFFCURVE",
"506 396 OFFCURVE",
"506 289 CURVE SMOOTH",
"506 0 LINE",
"450 0 LINE",
"384 0 OFFCURVE",
"352 -3 OFFCURVE",
"313 -3 CURVE",
"311 -3 OFFCURVE",
"310 -2 OFFCURVE",
"310 0 CURVE",
"310 12 LINE",
"310 14 OFFCURVE",
"311 15 OFFCURVE",
"313 15 CURVE",
"346 19 LINE",
"393 25 OFFCURVE",
"398 47 OFFCURVE",
"398 98 CURVE",
"398 318 LINE SMOOTH",
"398 379 OFFCURVE",
"366 404 OFFCURVE",
"324 404 CURVE SMOOTH",
"248 404 OFFCURVE",
"184 350 OFFCURVE",
"184 266 CURVE",
"166 271 LINE"
);
}
);
userData = {
PartSelection = {
Bold = 2;
};
};
width = 600;
}
);
partsSettings = (
{
name = Bold;
bottomName = Low;
bottomValue = 0;
topName = High;
topValue = 100;
}
);
},
{
export = 0;
glyphname = "_part-jambage";
lastChange = "2017-10-16 12:00:57 +0000";
layers = (
{
components = (
{
name = "_part-bdc-n";
transform = "{1, 0, 0, 1, 10, 0}";
},
{
name = "_part-bdc";
}
);
hints = (
{
origin = "{0, 2}";
scale = "{-1, 1}";
type = Corner;
name = "_corner-bdc";
options = 1;
},
{
origin = "{0, 1}";
type = Corner;
name = "_corner-bdc";
}
);
layerId = "9372F035-DA38-4B54-966C-CEBA9B53DD02";
paths = (
{
closed = 1;
nodes = (
"188 375 LINE",
"188 0 LINE",
"118 0 LINE",
"118 375 LINE"
);
}
);
userData = {
PartSelection = {
Bold = 1;
};
};
width = 600;
},
{
associatedMasterId = "9372F035-DA38-4B54-966C-CEBA9B53DD02";
layerId = "0A006F23-EE7B-46D5-AD5F-5329B57B676C";
name = Bold;
paths = (
{
closed = 1;
nodes = (
"166 367 OFFCURVE",
"236 453 OFFCURVE",
"344 453 CURVE SMOOTH",
"476 453 OFFCURVE",
"506 396 OFFCURVE",
"506 289 CURVE SMOOTH",
"506 0 LINE",
"450 0 LINE",
"384 0 OFFCURVE",
"352 -3 OFFCURVE",
"313 -3 CURVE",
"311 -3 OFFCURVE",
"310 -2 OFFCURVE",
"310 0 CURVE",
"310 12 LINE",
"310 14 OFFCURVE",
"311 15 OFFCURVE",
"313 15 CURVE",
"346 19 LINE",
"393 25 OFFCURVE",
"398 47 OFFCURVE",
"398 98 CURVE",
"398 318 LINE SMOOTH",
"398 379 OFFCURVE",
"366 404 OFFCURVE",
"324 404 CURVE SMOOTH",
"248 404 OFFCURVE",
"184 350 OFFCURVE",
"184 266 CURVE",
"166 271 LINE"
);
}
);
userData = {
PartSelection = {
Bold = 2;
};
};
width = 600;
}
);
partsSettings = (
{
name = Bold;
bottomName = Low;
bottomValue = 0;
topName = High;
topValue = 100;
}
);
},
{
export = 0;
glyphname = _partG;
lastChange = "2017-10-16 08:40:23 +0000";
layers = (
{
layerId = "9372F035-DA38-4B54-966C-CEBA9B53DD02";
paths = (
{
closed = 1;
nodes = (
"121 476 OFFCURVE",
"284 661 OFFCURVE",
"436 741 CURVE",
"433 705 LINE",
"301 625 OFFCURVE",
"199 406 OFFCURVE",
"199 215 CURVE",
"121 215 LINE"
);
}
);
width = 600;
}
);
},
